AcariSans-SemiBoldItalic.ufo
<glyph name="percent" format="2">
  <advance width="1554"/>
  <unicode hex="0025"/>
  <outline>
    <contour>
      <point x="359" y="-13" type="line"/>
      <point x="167" y="-13" type="line"/>
      <point x="1281" y="1439" type="line"/>
      <point x="1473" y="1439" type="line"/>
    </contour>
    <contour>
      <point x="445" y="779" type="qcurve" smooth="yes"/>
      <point x="329" y="779"/>
      <point x="227" y="917"/>
      <point x="227" y="1021" type="qcurve" smooth="yes"/>
      <point x="227" y="1080"/>
      <point x="262" y="1215"/>
      <point x="340" y="1340"/>
      <point x="404" y="1387" type="qcurve" smooth="yes"/>
      <point x="472" y="1436"/>
      <point x="565" y="1436" type="qcurve" smooth="yes"/>
      <point x="674" y="1436"/>
      <point x="781" y="1295"/>
      <point x="781" y="1188" type="qcurve" smooth="yes"/>
      <point x="781" y="1119"/>
      <point x="734" y="975"/>
      <point x="646" y="854"/>
      <point x="522" y="779"/>
    </contour>
    <contour>
      <point x="450" y="929" type="qcurve" smooth="yes"/>
      <point x="500" y="929"/>
      <point x="580" y="1017"/>
      <point x="627" y="1138"/>
      <point x="627" y="1188" type="qcurve" smooth="yes"/>
      <point x="627" y="1230"/>
      <point x="592" y="1284"/>
      <point x="554" y="1284" type="qcurve" smooth="yes"/>
      <point x="494" y="1284"/>
      <point x="403" y="1169"/>
      <point x="383" y="1087" type="qcurve"/>
      <point x="376" y="1050"/>
      <point x="376" y="1026" type="qcurve" smooth="yes"/>
      <point x="376" y="984"/>
      <point x="410" y="929"/>
    </contour>
    <contour>
      <point x="1091" y="-6" type="qcurve" smooth="yes"/>
      <point x="976" y="-6"/>
      <point x="873" y="135"/>
      <point x="873" y="239" type="qcurve" smooth="yes"/>
      <point x="873" y="300"/>
      <point x="914" y="444"/>
      <point x="998" y="573"/>
      <point x="1126" y="656"/>
      <point x="1213" y="656" type="qcurve" smooth="yes"/>
      <point x="1322" y="656"/>
      <point x="1428" y="517"/>
      <point x="1428" y="411" type="qcurve" smooth="yes"/>
      <point x="1428" y="354"/>
      <point x="1391" y="215"/>
      <point x="1309" y="86"/>
      <point x="1175" y="-6"/>
    </contour>
    <contour>
      <point x="1099" y="143" type="qcurve" smooth="yes"/>
      <point x="1150" y="143"/>
      <point x="1229" y="235"/>
      <point x="1274" y="360"/>
      <point x="1274" y="408" type="qcurve" smooth="yes"/>
      <point x="1274" y="450"/>
      <point x="1240" y="505"/>
      <point x="1203" y="505" type="qcurve" smooth="yes"/>
      <point x="1142" y="505"/>
      <point x="1050" y="388"/>
      <point x="1031" y="304" type="qcurve" smooth="yes"/>
      <point x="1023" y="269"/>
      <point x="1023" y="240" type="qcurve" smooth="yes"/>
      <point x="1023" y="198"/>
      <point x="1058" y="143"/>
    </contour>
  </outline>
</glyph>
<glyph name="quotesingle" format="2">
  <advance width="611"/>
  <unicode hex="0027"/>
  <outline>
    <contour>
      <point x="497" y="932" type="line"/>
      <point x="314" y="932" type="line"/>
      <point x="431" y="1442" type="line"/>
      <point x="614" y="1442" type="line"/>
    </contour>
  </outline>
</glyph>
<glyph name="hyphen" format="2">
  <advance width="858"/>
  <unicode hex="002D"/>
  <outline>
    <contour>
      <point x="724" y="560" type="line"/>
      <point x="162" y="560" type="line"/>
      <point x="199" y="722" type="line"/>
      <point x="760" y="722" type="line"/>
    </contour>
  </outline>
</glyph>
<glyph name="zero" format="2">
  <advance width="1200"/>
  <unicode hex="0030"/>
  <outline>
    <contour>
      <point x="502" y="-20" type="qcurve" smooth="yes"/>
      <point x="348" y="-20"/>
      <point x="156" y="118"/>
      <point x="74" y="343"/>
      <point x="74" y="481" type="qcurve" smooth="yes"/>
      <point x="74" y="772"/>
      <point x="229" y="1056" type="qcurve" smooth="yes"/>
      <point x="318" y="1217"/>
      <point x="606" y="1436"/>
      <point x="796" y="1436" type="qcurve" smooth="yes"/>
      <point x="940" y="1436"/>
      <point x="1035" y="1368" type="qcurve"/>
      <point x="1134" y="1294"/>
      <point x="1222" y="1061"/>
      <point x="1222" y="923" type="qcurve" smooth="yes"/>
      <point x="1222" y="768"/>
      <point x="1133" y="472"/>
      <point x="1055" y="343" type="qcurve" smooth="yes"/>
      <point x="958" y="182"/>
      <point x="672" y="-20"/>
    </contour>
    <contour>
      <point x="518" y="189" type="qcurve" smooth="yes"/>
      <point x="628" y="189"/>
      <point x="721" y="271" type="qcurve" smooth="yes"/>
      <point x="818" y="358"/>
      <point x="943" y="602"/>
      <point x="970" y="729" type="qcurve"/>
      <point x="994" y="833"/>
      <point x="994" y="923" type="qcurve" smooth="yes"/>
      <point x="994" y="1056"/>
      <point x="888" y="1222"/>
      <point x="772" y="1222" type="qcurve" smooth="yes"/>
      <point x="658" y="1222"/>
      <point x="564" y="1143" type="qcurve"/>
      <point x="466" y="1058"/>
      <point x="342" y="815"/>
      <point x="314" y="687" type="qcurve"/>
      <point x="290" y="585"/>
      <point x="290" y="491" type="qcurve" smooth="yes"/>
      <point x="290" y="357"/>
      <point x="398" y="189"/>
    </contour>
  </outline>
</glyph>
<glyph name="nine" format="2">
  <advance width="1200"/>
  <unicode hex="0039"/>
  <outline>
    <contour>
      <point x="492" y="0" type="line"/>
      <point x="234" y="0" type="line"/>
      <point x="660" y="483" type="line"/>
      <point x="628" y="480"/>
      <point x="604" y="480" type="qcurve" smooth="yes"/>
      <point x="478" y="480"/>
      <point x="294" y="578"/>
      <point x="194" y="748"/>
      <point x="194" y="856" type="qcurve" smooth="yes"/>
      <point x="194" y="1039"/>
      <point x="322" y="1197" type="qcurve" smooth="yes"/>
      <point x="407" y="1301"/>
      <point x="657" y="1434"/>
      <point x="804" y="1434" type="qcurve" smooth="yes"/>
      <point x="929" y="1434"/>
      <point x="1112" y="1328"/>
      <point x="1212" y="1151"/>
      <point x="1212" y="1043" type="qcurve" smooth="yes"/>
      <point x="1212" y="856"/>
      <point x="1076" y="694" type="qcurve" smooth="yes"/>
    </contour>
    <contour>
      <point x="624" y="669" type="qcurve" smooth="yes"/>
      <point x="712" y="669"/>
      <point x="865" y="754"/>
      <point x="970" y="888"/>
      <point x="988" y="967" type="qcurve"/>
      <point x="996" y="995"/>
      <point x="996" y="1024" type="qcurve" smooth="yes"/>
      <point x="996" y="1114"/>
      <point x="873" y="1226"/>
      <point x="778" y="1226" type="qcurve" smooth="yes"/>
      <point x="656" y="1226"/>
      <point x="446" y="1052"/>
      <point x="414" y="927" type="qcurve"/>
      <point x="408" y="894"/>
      <point x="408" y="871" type="qcurve" smooth="yes"/>
      <point x="408" y="784"/>
      <point x="527" y="669"/>
    </contour>
  </outline>
</glyph>
<glyph name="colon" format="2">
  <advance width="676"/>
  <unicode hex="003A"/>
  <outline>
    <contour>
      <point x="508" y="712" type="line"/>
      <point x="264" y="712" type="line"/>
      <point x="321" y="954" type="line"/>
      <point x="565" y="954" type="line"/>
    </contour>
    <contour>
      <point x="346" y="0" type="line"/>
      <point x="101" y="0" type="line"/>
      <point x="156" y="242" type="line"/>
      <point x="400" y="242" type="line"/>
    </contour>
  </outline>
</glyph>
<glyph name="question" format="2">
  <advance width="1008"/>
  <unicode hex="003F"/>
  <outline>
    <contour>
      <point x="567" y="409" type="line"/>
      <point x="382" y="409" type="line"/>
      <point x="424" y="590" type="line"/>
      <point x="459" y="733"/>
      <point x="556" y="796" type="qcurve" smooth="yes"/>
      <point x="605" y="827"/>
      <point x="669" y="860" type="qcurve" smooth="yes"/>
      <point x="724" y="888"/>
      <point x="760" y="910" type="qcurve" smooth="yes"/>
      <point x="841" y="961"/>
      <point x="868" y="1069" type="qcurve"/>
      <point x="875" y="1102"/>
      <point x="875" y="1120" type="qcurve" smooth="yes"/>
      <point x="875" y="1190"/>
      <point x="769" y="1253"/>
      <point x="682" y="1253" type="qcurve" smooth="yes"/>
      <point x="556" y="1253"/>
      <point x="397" y="1117"/>
      <point x="371" y="1004" type="qcurve"/>
      <point x="183" y="1022" type="line"/>
      <point x="233" y="1223"/>
      <point x="510" y="1434"/>
      <point x="690" y="1434" type="qcurve" smooth="yes"/>
      <point x="792" y="1434"/>
      <point x="961" y="1366"/>
      <point x="1062" y="1229"/>
      <point x="1062" y="1127" type="qcurve" smooth="yes"/>
      <point x="1062" y="1060"/>
      <point x="1019" y="919"/>
      <point x="982" y="867" type="qcurve"/>
      <point x="938" y="808"/>
      <point x="832" y="734"/>
      <point x="754" y="697" type="qcurve" smooth="yes"/>
      <point x="684" y="664"/>
      <point x="613" y="610"/>
      <point x="604" y="569" type="qcurve" smooth="yes"/>
    </contour>
    <contour>
      <point x="506" y="0" type="line"/>
      <point x="262" y="0" type="line"/>
      <point x="317" y="242" type="line"/>
      <point x="561" y="242" type="line"/>
    </contour>
  </outline>
</glyph>
<glyph name="A" format="2">
  <advance width="1332"/>
  <unicode hex="0041"/>
  <outline>
    <contour>
      <point x="1187" y="0" type="line"/>
      <point x="949" y="0" type="line"/>
      <point x="910" y="307" type="line"/>
      <point x="339" y="307" type="line"/>
      <point x="159" y="0" type="line"/>
      <point x="-89" y="0" type="line"/>
      <point x="792" y="1413" type="line"/>
      <point x="961" y="1413" type="line"/>
    </contour>
    <contour>
      <point x="880" y="502" type="line"/>
      <point x="807" y="1084" type="line"/>
      <point x="460" y="502" type="line"/>
    </contour>
  </outline>
</glyph>
<glyph name="B" format="2">
  <advance width="1266"/>
  <unicode hex="0042"/>
  <outline>
    <contour>
      <point x="607" y="0" type="qcurve" smooth="yes"/>
      <point x="78" y="0" type="line"/>
      <point x="403" y="1413" type="line"/>
      <point x="856" y="1413" type="line" smooth="yes"/>
      <point x="955" y="1413"/>
      <point x="1129" y="1354"/>
      <point x="1237" y="1225"/>
      <point x="1237" y="1120" type="qcurve" smooth="yes"/>
      <point x="1237" y="1058"/>
      <point x="1193" y="920"/>
      <point x="1141" y="858" type="qcurve" smooth="yes"/>
      <point x="1078" y="785"/>
      <point x="995" y="744" type="qcurve"/>
      <point x="1065" y="713"/>
      <point x="1156" y="570"/>
      <point x="1156" y="472" type="qcurve" smooth="yes"/>
      <point x="1156" y="423"/>
      <point x="1145" y="379" type="qcurve" smooth="yes"/>
      <point x="1115" y="252"/>
      <point x="952" y="84"/>
      <point x="727" y="0"/>
    </contour>
    <contour>
      <point x="738" y="827" type="line" smooth="yes"/>
      <point x="837" y="827"/>
      <point x="992" y="933"/>
      <point x="1018" y="1046" type="qcurve"/>
      <point x="1023" y="1071"/>
      <point x="1023" y="1088" type="qcurve" smooth="yes"/>
      <point x="1023" y="1211"/>
      <point x="825" y="1211" type="qcurve" smooth="yes"/>
      <point x="580" y="1211" type="line"/>
      <point x="492" y="827" type="line"/>
    </contour>
    <contour>
      <point x="648" y="212" type="line" smooth="yes"/>
      <point x="751" y="212"/>
      <point x="910" y="321"/>
      <point x="940" y="442" type="qcurve" smooth="yes"/>
      <point x="946" y="466"/>
      <point x="946" y="488" type="qcurve" smooth="yes"/>
      <point x="946" y="560"/>
      <point x="838" y="632"/>
      <point x="751" y="632" type="qcurve" smooth="yes"/>
      <point x="446" y="632" type="line"/>
      <point x="350" y="212" type="line"/>
    </contour>
  </outline>
</glyph>
<glyph name="E" format="2">
  <advance width="1245"/>
  <unicode hex="0045"/>
  <outline>
    <contour>
      <point x="1010" y="0" type="line"/>
      <point x="78" y="0" type="line"/>
      <point x="403" y="1413" type="line"/>
      <point x="1336" y="1413" type="line"/>
      <point x="1289" y="1210" type="line"/>
      <point x="581" y="1210" type="line"/>
      <point x="487" y="808" type="line"/>
      <point x="1132" y="808" type="line"/>
      <point x="1085" y="606" type="line"/>
      <point x="441" y="606" type="line"/>
      <point x="350" y="210" type="line"/>
      <point x="1058" y="210" type="line"/>
    </contour>
  </outline>
</glyph>
<glyph name="G" format="2">
  <advance width="1526"/>
  <unicode hex="0047"/>
  <outline>
    <contour>
      <point x="657" y="-20" type="qcurve" smooth="yes"/>
      <point x="475" y="-20"/>
      <point x="237" y="114"/>
      <point x="121" y="351"/>
      <point x="121" y="504" type="qcurve" smooth="yes"/>
      <point x="121" y="650"/>
      <point x="215" y="954"/>
      <point x="302" y="1084" type="qcurve"/>
      <point x="411" y="1244"/>
      <point x="749" y="1436"/>
      <point x="965" y="1436" type="qcurve" smooth="yes"/>
      <point x="1183" y="1436"/>
      <point x="1446" y="1219"/>
      <point x="1486" y="1030" type="qcurve"/>
      <point x="1274" y="964" type="line"/>
      <point x="1252" y="1107"/>
      <point x="1077" y="1237"/>
      <point x="943" y="1237" type="qcurve" smooth="yes"/>
      <point x="789" y="1237"/>
      <point x="553" y="1090"/>
      <point x="397" y="847"/>
      <point x="363" y="697" type="qcurve" smooth="yes"/>
      <point x="341" y="600"/>
      <point x="341" y="521" type="qcurve" smooth="yes"/>
      <point x="341" y="365"/>
      <point x="506" y="182"/>
      <point x="678" y="182" type="qcurve" smooth="yes"/>
      <point x="839" y="182"/>
      <point x="1129" y="391"/>
      <point x="1193" y="578" type="qcurve"/>
      <point x="869" y="569" type="line"/>
      <point x="911" y="749" type="line"/>
      <point x="1448" y="749" type="line"/>
      <point x="1276" y="0" type="line"/>
      <point x="1097" y="0" type="line"/>
      <point x="1132" y="208" type="line"/>
      <point x="1056" y="106"/>
      <point x="810" y="-20"/>
    </contour>
  </outline>
</glyph>
<glyph name="K" format="2">
  <advance width="1481"/>
  <unicode hex="004B"/>
  <outline>
    <contour>
      <point x="1331" y="0" type="line"/>
      <point x="1062" y="0" type="line"/>
      <point x="773" y="693" type="line"/>
      <point x="390" y="374" type="line"/>
      <point x="302" y="0" type="line"/>
      <point x="78" y="0" type="line"/>
      <point x="403" y="1413" type="line"/>
      <point x="628" y="1413" type="line"/>
      <point x="449" y="647" type="line"/>
      <point x="1343" y="1413" type="line"/>
      <point x="1645" y="1413" type="line"/>
      <point x="955" y="841" type="line"/>
    </contour>
  </outline>
</glyph>
<glyph name="L" format="2">
  <advance width="1057"/>
  <unicode hex="004C"/>
  <outline>
    <contour>
      <point x="906" y="0" type="line"/>
      <point x="78" y="0" type="line"/>
      <point x="403" y="1413" type="line"/>
      <point x="628" y="1413" type="line"/>
      <point x="350" y="210" type="line"/>
      <point x="954" y="210" type="line"/>
    </contour>
  </outline>
</glyph>
<glyph name="M" format="2">
  <advance width="1789"/>
  <unicode hex="004D"/>
  <outline>
    <contour>
      <point x="1482" y="0" type="line"/>
      <point x="1265" y="0" type="line"/>
      <point x="1527" y="1125" type="line"/>
      <point x="920" y="123" type="line"/>
      <point x="697" y="123" type="line"/>
      <point x="557" y="1125" type="line"/>
      <point x="295" y="0" type="line"/>
      <point x="78" y="0" type="line"/>
      <point x="403" y="1413" type="line"/>
      <point x="717" y="1413" type="line"/>
      <point x="860" y="367" type="line"/>
      <point x="1489" y="1413" type="line"/>
      <point x="1807" y="1413" type="line"/>
    </contour>
  </outline>
</glyph>
<glyph name="O" format="2">
  <advance width="1527"/>
  <unicode hex="004F"/>
  <outline>
    <contour>
      <point x="656" y="-20" type="qcurve" smooth="yes"/>
      <point x="473" y="-20"/>
      <point x="237" y="116"/>
      <point x="122" y="353"/>
      <point x="122" y="505" type="qcurve" smooth="yes"/>
      <point x="122" y="648"/>
      <point x="215" y="952"/>
      <point x="303" y="1083" type="qcurve" smooth="yes"/>
      <point x="412" y="1243"/>
      <point x="750" y="1434"/>
      <point x="966" y="1434" type="qcurve" smooth="yes"/>
      <point x="1149" y="1434"/>
      <point x="1386" y="1297"/>
      <point x="1501" y="1060"/>
      <point x="1501" y="908" type="qcurve" smooth="yes"/>
      <point x="1501" y="776"/>
      <point x="1412" y="470"/>
      <point x="1320" y="332" type="qcurve" smooth="yes"/>
      <point x="1211" y="171"/>
      <point x="872" y="-20"/>
    </contour>
    <contour>
      <point x="676" y="180" type="qcurve" smooth="yes"/>
      <point x="833" y="180"/>
      <point x="1065" y="328"/>
      <point x="1216" y="575"/>
      <point x="1251" y="727" type="qcurve" smooth="yes"/>
      <point x="1273" y="823"/>
      <point x="1273" y="903" type="qcurve" smooth="yes"/>
      <point x="1273" y="1054"/>
      <point x="1114" y="1233"/>
      <point x="944" y="1233" type="qcurve" smooth="yes"/>
      <point x="791" y="1233"/>
      <point x="674" y="1159" type="qcurve"/>
      <point x="554" y="1081"/>
      <point x="406" y="835"/>
      <point x="373" y="687" type="qcurve" smooth="yes"/>
      <point x="351" y="591"/>
      <point x="351" y="510" type="qcurve" smooth="yes"/>
      <point x="351" y="359"/>
      <point x="508" y="180"/>
    </contour>
  </outline>
</glyph>
<glyph name="P" format="2">
  <advance width="1164"/>
  <unicode hex="0050"/>
  <outline>
    <contour>
      <point x="301" y="0" type="line"/>
      <point x="78" y="0" type="line"/>
      <point x="403" y="1413" type="line"/>
      <point x="825" y="1413" type="line" smooth="yes"/>
      <point x="942" y="1413"/>
      <point x="1125" y="1341"/>
      <point x="1230" y="1198"/>
      <point x="1230" y="1091" type="qcurve" smooth="yes"/>
      <point x="1230" y="1008"/>
      <point x="1168" y="841"/>
      <point x="1110" y="776" type="qcurve"/>
      <point x="1025" y="686"/>
      <point x="787" y="602"/>
      <point x="651" y="602" type="qcurve" smooth="yes"/>
      <point x="439" y="602" type="line"/>
    </contour>
    <contour>
      <point x="686" y="809" type="line" smooth="yes"/>
      <point x="824" y="809"/>
      <point x="981" y="922"/>
      <point x="1004" y="1024" type="qcurve" smooth="yes"/>
      <point x="1010" y="1050"/>
      <point x="1010" y="1072" type="qcurve" smooth="yes"/>
      <point x="1010" y="1206"/>
      <point x="790" y="1206" type="qcurve" smooth="yes"/>
      <point x="578" y="1206" type="line"/>
      <point x="486" y="809" type="line"/>
    </contour>
  </outline>
</glyph>
<glyph name="R" format="2">
  <advance width="1255"/>
  <unicode hex="0052"/>
  <outline>
    <contour>
      <point x="1095" y="-2" type="line"/>
      <point x="853" y="-2" type="line"/>
      <point x="645" y="613" type="line"/>
      <point x="443" y="613" type="line"/>
      <point x="300" y="-2" type="line"/>
      <point x="76" y="-2" type="line"/>
      <point x="403" y="1413" type="line"/>
      <point x="838" y="1413" type="line" smooth="yes"/>
      <point x="947" y="1413"/>
      <point x="1126" y="1338"/>
      <point x="1233" y="1190"/>
      <point x="1233" y="1083" type="qcurve" smooth="yes"/>
      <point x="1233" y="1003"/>
      <point x="1166" y="836"/>
      <point x="1093" y="764" type="qcurve"/>
      <point x="995" y="670"/>
      <point x="859" y="633" type="qcurve"/>
    </contour>
    <contour>
      <point x="720" y="801" type="line"/>
      <point x="826" y="806"/>
      <point x="982" y="919"/>
      <point x="1007" y="1021" type="qcurve" smooth="yes"/>
      <point x="1012" y="1041"/>
      <point x="1012" y="1066" type="qcurve" smooth="yes"/>
      <point x="1012" y="1139"/>
      <point x="901" y="1212"/>
      <point x="806" y="1212" type="qcurve" smooth="yes"/>
      <point x="583" y="1212" type="line"/>
      <point x="488" y="801" type="line"/>
    </contour>
  </outline>
</glyph>
<glyph name="S" format="2">
  <advance width="1130"/>
  <unicode hex="0053"/>
  <outline>
    <contour>
      <point x="511" y="-16" type="qcurve" smooth="yes"/>
      <point x="385" y="-16"/>
      <point x="167" y="75"/>
      <point x="98" y="173" type="qcurve" smooth="yes"/>
      <point x="34" y="266"/>
      <point x="34" y="397" type="qcurve"/>
      <point x="262" y="436" type="line"/>
      <point x="262" y="353"/>
      <point x="331" y="244"/>
      <point x="454" y="190"/>
      <point x="534" y="190" type="qcurve" smooth="yes"/>
      <point x="664" y="190"/>
      <point x="815" y="318"/>
      <point x="815" y="418" type="qcurve" smooth="yes"/>
      <point x="815" y="485"/>
      <point x="749" y="580"/>
      <point x="651" y="643"/>
      <point x="568" y="685" type="qcurve" smooth="yes"/>
      <point x="470" y="733"/>
      <point x="352" y="818"/>
      <point x="314" y="878" type="qcurve" smooth="yes"/>
      <point x="273" y="942"/>
      <point x="273" y="1037" type="qcurve" smooth="yes"/>
      <point x="273" y="1157"/>
      <point x="399" y="1336"/>
      <point x="609" y="1434"/>
      <point x="735" y="1434" type="qcurve" smooth="yes"/>
      <point x="877" y="1434"/>
      <point x="1104" y="1309"/>
      <point x="1149" y="1185" type="qcurve"/>
      <point x="958" y="1093" type="line"/>
      <point x="935" y="1167"/>
      <point x="810" y="1244"/>
      <point x="733" y="1244" type="qcurve" smooth="yes"/>
      <point x="673" y="1244"/>
      <point x="567" y="1197"/>
      <point x="501" y="1110"/>
      <point x="501" y="1052" type="qcurve" smooth="yes"/>
      <point x="501" y="998"/>
      <point x="560" y="917"/>
      <point x="649" y="860"/>
      <point x="728" y="819" type="qcurve" smooth="yes"/>
      <point x="831" y="767"/>
      <point x="957" y="673"/>
      <point x="999" y="607" type="qcurve"/>
      <point x="1043" y="535"/>
      <point x="1043" y="433" type="qcurve" smooth="yes"/>
      <point x="1043" y="297"/>
      <point x="896" y="95"/>
      <point x="654" y="-16"/>
    </contour>
  </outline>
</glyph>
<glyph name="T" format="2">
  <advance width="1201"/>
  <unicode hex="0054"/>
  <outline>
    <contour>
      <point x="598" y="0" type="line"/>
      <point x="373" y="0" type="line"/>
      <point x="653" y="1216" type="line"/>
      <point x="200" y="1216" type="line"/>
      <point x="246" y="1413" type="line"/>
      <point x="1377" y="1413" type="line"/>
      <point x="1331" y="1216" type="line"/>
      <point x="878" y="1216" type="line"/>
    </contour>
  </outline>
</glyph>
<glyph name="V" format="2">
  <advance width="1340"/>
  <unicode hex="0056"/>
  <outline>
    <contour>
      <point x="645" y="0" type="line"/>
      <point x="472" y="0" type="line"/>
      <point x="243" y="1413" type="line"/>
      <point x="483" y="1413" type="line"/>
      <point x="633" y="349" type="line"/>
      <point x="1277" y="1413" type="line"/>
      <point x="1524" y="1413" type="line"/>
    </contour>
  </outline>
</glyph>
<glyph name="W" format="2">
  <advance width="1994"/>
  <unicode hex="0057"/>
  <outline>
    <contour>
      <point x="1375" y="0" type="line"/>
      <point x="1152" y="0" type="line"/>
      <point x="1079" y="1057" type="line"/>
      <point x="516" y="0" type="line"/>
      <point x="293" y="0" type="line"/>
      <point x="203" y="1413" type="line"/>
      <point x="435" y="1413" type="line"/>
      <point x="494" y="317" type="line"/>
      <point x="1072" y="1413" type="line"/>
      <point x="1247" y="1413" type="line"/>
      <point x="1320" y="317" type="line"/>
      <point x="1884" y="1413" type="line"/>
      <point x="2117" y="1413" type="line"/>
    </contour>
  </outline>
</glyph>
<glyph name="X" format="2">
  <advance width="1320"/>
  <unicode hex="0058"/>
  <outline>
    <contour>
      <point x="1161" y="0" type="line"/>
      <point x="901" y="0" type="line"/>
      <point x="675" y="549" type="line"/>
      <point x="196" y="0" type="line"/>
      <point x="-77" y="0" type="line"/>
      <point x="560" y="707" type="line"/>
      <point x="256" y="1413" type="line"/>
      <point x="519" y="1413" type="line"/>
      <point x="738" y="856" type="line"/>
      <point x="1220" y="1413" type="line"/>
      <point x="1490" y="1413" type="line"/>
      <point x="856" y="707" type="line"/>
    </contour>
  </outline>
</glyph>
<glyph name="bracketleft" format="2">
  <advance width="641"/>
  <unicode hex="005B"/>
  <outline>
    <contour>
      <point x="447" y="-142" type="line"/>
      <point x="37" y="-142" type="line"/>
      <point x="429" y="1551" type="line"/>
      <point x="839" y="1551" type="line"/>
      <point x="807" y="1412" type="line"/>
      <point x="571" y="1412" type="line"/>
      <point x="246" y="0" type="line"/>
      <point x="481" y="0" type="line"/>
    </contour>
  </outline>
</glyph>
<glyph name="backslash" format="2">
  <advance width="935"/>
  <unicode hex="005C"/>
  <outline>
    <contour>
      <point x="738" y="-430" type="line"/>
      <point x="539" y="-430" type="line"/>
      <point x="217" y="1516" type="line"/>
      <point x="416" y="1516" type="line"/>
    </contour>
  </outline>
</glyph>
<glyph name="bracketright" format="2">
  <advance width="641"/>
  <unicode hex="005D"/>
  <outline>
    <contour>
      <point x="307" y="-142" type="line"/>
      <point x="-103" y="-142" type="line"/>
      <point x="-70" y="0" type="line"/>
      <point x="166" y="0" type="line"/>
      <point x="492" y="1412" type="line"/>
      <point x="256" y="1412" type="line"/>
      <point x="288" y="1551" type="line"/>
      <point x="698" y="1551" type="line"/>
    </contour>
  </outline>
</glyph>
<glyph name="e" format="2">
  <advance width="1058"/>
  <unicode hex="0065"/>
  <outline>
    <contour>
      <point x="445" y="-12" type="qcurve" smooth="yes"/>
      <point x="312" y="-12"/>
      <point x="138" y="86"/>
      <point x="53" y="257"/>
      <point x="53" y="366" type="qcurve" smooth="yes"/>
      <point x="53" y="485"/>
      <point x="136" y="716"/>
      <point x="290" y="901"/>
      <point x="505" y="1012"/>
      <point x="637" y="1012" type="qcurve" smooth="yes"/>
      <point x="832" y="1012"/>
      <point x="1007" y="818"/>
      <point x="1007" y="658" type="qcurve" smooth="yes"/>
      <point x="1007" y="541"/>
      <point x="966" y="420" type="qcurve"/>
      <point x="273" y="420" type="line"/>
      <point x="269" y="395"/>
      <point x="269" y="366" type="qcurve" smooth="yes"/>
      <point x="269" y="285"/>
      <point x="362" y="185"/>
      <point x="464" y="185" type="qcurve" smooth="yes"/>
      <point x="557" y="185"/>
      <point x="692" y="235"/>
      <point x="753" y="288" type="qcurve"/>
      <point x="879" y="147" type="line"/>
      <point x="701" y="-12"/>
    </contour>
    <contour>
      <point x="802" y="579" type="line"/>
      <point x="808" y="620"/>
      <point x="808" y="652" type="qcurve" smooth="yes"/>
      <point x="808" y="746"/>
      <point x="714" y="829"/>
      <point x="621" y="829" type="qcurve" smooth="yes"/>
      <point x="544" y="829"/>
      <point x="423" y="763"/>
      <point x="337" y="650"/>
      <point x="312" y="579" type="qcurve"/>
    </contour>
  </outline>
</glyph>
<glyph name="h" format="2">
  <advance width="1154"/>
  <unicode hex="0068"/>
  <outline>
    <contour>
      <point x="914" y="0" type="line"/>
      <point x="696" y="0" type="line"/>
      <point x="831" y="586" type="line" smooth="yes"/>
      <point x="846" y="651"/>
      <point x="846" y="693" type="qcurve" smooth="yes"/>
      <point x="846" y="816"/>
      <point x="722" y="816" type="qcurve" smooth="yes"/>
      <point x="642" y="816"/>
      <point x="497" y="732"/>
      <point x="395" y="606"/>
      <point x="379" y="538" type="qcurve" smooth="yes"/>
      <point x="255" y="0" type="line"/>
      <point x="39" y="0" type="line"/>
      <point x="365" y="1413" type="line"/>
      <point x="581" y="1413" type="line"/>
      <point x="453" y="876" type="line"/>
      <point x="527" y="951"/>
      <point x="698" y="1016"/>
      <point x="777" y="1016" type="qcurve" smooth="yes"/>
      <point x="924" y="1016"/>
      <point x="1066" y="853"/>
      <point x="1066" y="723" type="qcurve" smooth="yes"/>
      <point x="1066" y="661"/>
      <point x="1051" y="596" type="qcurve" smooth="yes"/>
    </contour>
  </outline>
</glyph>
<glyph name="i" format="2">
  <advance width="520"/>
  <unicode hex="0069"/>
  <outline>
    <contour>
      <point x="538" y="1198" type="line"/>
      <point x="308" y="1198" type="line"/>
      <point x="357" y="1413" type="line"/>
      <point x="587" y="1413" type="line"/>
    </contour>
    <contour>
      <point x="252" y="0" type="line"/>
      <point x="38" y="0" type="line"/>
      <point x="268" y="999" type="line"/>
      <point x="481" y="999" type="line"/>
    </contour>
  </outline>
</glyph>
<glyph name="o" format="2">
  <advance width="1127"/>
  <unicode hex="006F"/>
  <outline>
    <contour>
      <point x="456" y="-20" type="qcurve" smooth="yes"/>
      <point x="325" y="-20"/>
      <point x="144" y="86"/>
      <point x="51" y="267"/>
      <point x="51" y="380" type="qcurve" smooth="yes"/>
      <point x="51" y="559"/>
      <point x="243" y="862"/>
      <point x="399" y="946" type="qcurve"/>
      <point x="525" y="1012"/>
      <point x="668" y="1012" type="qcurve" smooth="yes"/>
      <point x="799" y="1012"/>
      <point x="980" y="906"/>
      <point x="1073" y="725"/>
      <point x="1073" y="612" type="qcurve" smooth="yes"/>
      <point x="1073" y="490"/>
      <point x="982" y="272"/>
      <point x="826" y="100"/>
      <point x="725" y="47" type="qcurve" smooth="yes"/>
      <point x="599" y="-20"/>
    </contour>
    <contour>
      <point x="474" y="166" type="qcurve" smooth="yes"/>
      <point x="574" y="166"/>
      <point x="722" y="261"/>
      <point x="817" y="419"/>
      <point x="840" y="516" type="qcurve" smooth="yes"/>
      <point x="853" y="569"/>
      <point x="853" y="623" type="qcurve" smooth="yes"/>
      <point x="853" y="713"/>
      <point x="758" y="825"/>
      <point x="650" y="825" type="qcurve" smooth="yes"/>
      <point x="552" y="825"/>
      <point x="404" y="731"/>
      <point x="306" y="573"/>
      <point x="284" y="476" type="qcurve"/>
      <point x="271" y="423"/>
      <point x="271" y="369" type="qcurve" smooth="yes"/>
      <point x="271" y="279"/>
      <point x="366" y="166"/>
    </contour>
  </outline>
</glyph>
<glyph name="p" format="2">
  <advance width="1160"/>
  <unicode hex="0070"/>
  <outline>
    <contour>
      <point x="155" y="-438" type="line"/>
      <point x="-62" y="-438" type="line"/>
      <point x="270" y="999" type="line"/>
      <point x="482" y="999" type="line"/>
      <point x="460" y="895" type="line"/>
      <point x="584" y="1020"/>
      <point x="769" y="1020" type="qcurve" smooth="yes"/>
      <point x="880" y="1020"/>
      <point x="1028" y="924"/>
      <point x="1101" y="756"/>
      <point x="1101" y="648" type="qcurve" smooth="yes"/>
      <point x="1101" y="482"/>
      <point x="944" y="146"/>
      <point x="794" y="48" type="qcurve"/>
      <point x="686" y="-20"/>
      <point x="558" y="-20" type="qcurve" smooth="yes"/>
      <point x="470" y="-20"/>
      <point x="326" y="50"/>
      <point x="288" y="119" type="qcurve"/>
    </contour>
    <contour>
      <point x="521" y="176" type="qcurve" smooth="yes"/>
      <point x="613" y="176"/>
      <point x="754" y="267"/>
      <point x="849" y="422"/>
      <point x="871" y="520" type="qcurve" smooth="yes"/>
      <point x="885" y="581"/>
      <point x="885" y="630" type="qcurve" smooth="yes"/>
      <point x="885" y="688"/>
      <point x="847" y="777"/>
      <point x="764" y="828"/>
      <point x="697" y="828" type="qcurve" smooth="yes"/>
      <point x="607" y="828"/>
      <point x="466" y="734"/>
      <point x="371" y="577"/>
      <point x="349" y="480" type="qcurve" smooth="yes"/>
      <point x="335" y="419"/>
      <point x="335" y="370" type="qcurve" smooth="yes"/>
      <point x="335" y="284"/>
      <point x="422" y="176"/>
    </contour>
  </outline>
</glyph>
<glyph name="q" format="2">
  <advance width="1158"/>
  <unicode hex="0071"/>
  <outline>
    <contour>
      <point x="786" y="-438" type="line"/>
      <point x="570" y="-438" type="line"/>
      <point x="699" y="104" type="line"/>
      <point x="574" y="-20"/>
      <point x="390" y="-20" type="qcurve" smooth="yes"/>
      <point x="278" y="-20"/>
      <point x="131" y="77"/>
      <point x="58" y="245"/>
      <point x="58" y="353" type="qcurve" smooth="yes"/>
      <point x="58" y="455"/>
      <point x="122" y="674"/>
      <point x="184" y="771" type="qcurve" smooth="yes"/>
      <point x="255" y="882"/>
      <point x="468" y="1020"/>
      <point x="601" y="1020" type="qcurve" smooth="yes"/>
      <point x="690" y="1020"/>
      <point x="832" y="951"/>
      <point x="871" y="881" type="qcurve"/>
      <point x="906" y="999" type="line"/>
      <point x="1118" y="999" type="line"/>
    </contour>
    <contour>
      <point x="461" y="176" type="qcurve" smooth="yes"/>
      <point x="595" y="176"/>
      <point x="774" y="367"/>
      <point x="808" y="520" type="qcurve" smooth="yes"/>
      <point x="823" y="587"/>
      <point x="823" y="633" type="qcurve" smooth="yes"/>
      <point x="823" y="718"/>
      <point x="736" y="826"/>
      <point x="637" y="826" type="qcurve" smooth="yes"/>
      <point x="545" y="826"/>
      <point x="404" y="733"/>
      <point x="310" y="577"/>
      <point x="289" y="480" type="qcurve" smooth="yes"/>
      <point x="275" y="419"/>
      <point x="275" y="370" type="qcurve" smooth="yes"/>
      <point x="275" y="284"/>
      <point x="362" y="176"/>
    </contour>
  </outline>
</glyph>
<glyph name="braceleft" format="2">
  <advance width="614"/>
  <unicode hex="007B"/>
  <outline>
    <contour>
      <point x="336" y="-144" type="qcurve" smooth="yes"/>
      <point x="265" y="-144" type="line" smooth="yes"/>
      <point x="151" y="-144"/>
      <point x="115" y="-31" type="qcurve"/>
      <point x="97" y="-9"/>
      <point x="97" y="37" type="qcurve" smooth="yes"/>
      <point x="97" y="73"/>
      <point x="110" y="130" type="qcurve" smooth="yes"/>
      <point x="194" y="492"/>
      <point x="196" y="509" type="qcurve"/>
      <point x="196" y="549"/>
      <point x="151" y="572" type="qcurve"/>
      <point x="93" y="598" type="line"/>
      <point x="114" y="743" type="line"/>
      <point x="265" y="786"/>
      <point x="287" y="894" type="qcurve"/>
      <point x="385" y="1320" type="line"/>
      <point x="412" y="1444"/>
      <point x="549" y="1555"/>
      <point x="666" y="1555" type="qcurve" smooth="yes"/>
      <point x="755" y="1555"/>
      <point x="791" y="1552" type="qcurve"/>
      <point x="771" y="1414" type="line"/>
      <point x="733" y="1423"/>
      <point x="690" y="1423" type="qcurve" smooth="yes"/>
      <point x="593" y="1423"/>
      <point x="581" y="1371" type="qcurve" smooth="yes"/>
      <point x="464" y="862" type="line"/>
      <point x="435" y="723"/>
      <point x="262" y="652" type="qcurve"/>
      <point x="314" y="630"/>
      <point x="378" y="557"/>
      <point x="378" y="508" type="qcurve" smooth="yes"/>
      <point x="378" y="493"/>
      <point x="375" y="478" type="qcurve" smooth="yes"/>
      <point x="291" y="116" type="line" smooth="yes"/>
      <point x="283" y="82"/>
      <point x="283" y="61" type="qcurve" smooth="yes"/>
      <point x="283" y="-10"/>
      <point x="361" y="-10" type="qcurve" smooth="yes"/>
      <point x="387" y="-10"/>
      <point x="433" y="2" type="qcurve"/>
      <point x="413" y="-141" type="line"/>
      <point x="382" y="-142" type="line"/>
      <point x="356" y="-144"/>
    </contour>
  </outline>
</glyph>
<glyph name="asciitilde" format="2">
  <advance width="1160"/>
  <unicode hex="007E"/>
  <outline>
    <contour>
      <point x="737" y="379" type="qcurve" smooth="yes"/>
      <point x="668" y="379"/>
      <point x="570" y="419"/>
      <point x="513" y="456" type="qcurve" smooth="yes"/>
      <point x="474" y="482"/>
      <point x="429" y="503"/>
      <point x="403" y="503" type="qcurve" smooth="yes"/>
      <point x="360" y="503"/>
      <point x="333" y="458"/>
      <point x="333" y="414" type="qcurve" smooth="yes"/>
      <point x="333" y="406" type="line"/>
      <point x="185" y="406" type="line"/>
      <point x="185" y="525"/>
      <point x="298" y="651"/>
      <point x="401" y="651" type="qcurve" smooth="yes"/>
      <point x="485" y="651"/>
      <point x="591" y="609"/>
      <point x="646" y="572" type="qcurve"/>
      <point x="681" y="550"/>
      <point x="721" y="531"/>
      <point x="743" y="531" type="qcurve" smooth="yes"/>
      <point x="790" y="531"/>
      <point x="820" y="584"/>
      <point x="820" y="645" type="qcurve"/>
      <point x="976" y="645" type="line"/>
      <point x="976" y="515"/>
      <point x="856" y="379"/>
    </contour>
  </outline>
</glyph>
<glyph name="exclamdown" format="2">
  <advance width="635"/>
  <unicode hex="00A1"/>
  <outline>
    <contour>
      <point x="499" y="757" type="line"/>
      <point x="255" y="757" type="line"/>
      <point x="310" y="999" type="line"/>
      <point x="554" y="999" type="line"/>
    </contour>
    <contour>
      <point x="211" y="-435" type="line"/>
      <point x="-8" y="-435" type="line"/>
      <point x="256" y="586" type="line"/>
      <point x="418" y="586" type="line"/>
    </contour>
  </outline>
</glyph>
<glyph name="sterling" format="2">
  <advance width="1214"/>
  <unicode hex="00A3"/>
  <outline>
    <contour>
      <point x="1063" y="0" type="line"/>
      <point x="31" y="0" type="line"/>
      <point x="70" y="170" type="line"/>
      <point x="244" y="260"/>
      <point x="399" y="470"/>
      <point x="399" y="620" type="qcurve"/>
      <point x="176" y="620" type="line"/>
      <point x="218" y="793" type="line"/>
      <point x="399" y="793" type="line"/>
      <point x="390" y="847"/>
      <point x="390" y="901" type="qcurve" smooth="yes"/>
      <point x="390" y="1039"/>
      <point x="510" y="1288"/>
      <point x="629" y="1368" type="qcurve"/>
      <point x="742" y="1442"/>
      <point x="887" y="1442" type="qcurve" smooth="yes"/>
      <point x="988" y="1442"/>
      <point x="1140" y="1354"/>
      <point x="1231" y="1213"/>
      <point x="1243" y="1129" type="qcurve"/>
      <point x="1065" y="1085" type="line"/>
      <point x="1052" y="1171"/>
      <point x="943" y="1260"/>
      <point x="871" y="1260" type="qcurve" smooth="yes"/>
      <point x="773" y="1260"/>
      <point x="637" y="1153"/>
      <point x="565" y="984"/>
      <point x="565" y="889" type="qcurve" smooth="yes"/>
      <point x="565" y="846"/>
      <point x="575" y="793" type="qcurve"/>
      <point x="1056" y="793" type="line"/>
      <point x="1014" y="620" type="line"/>
      <point x="575" y="620" type="line"/>
      <point x="575" y="479"/>
      <point x="470" y="236"/>
      <point x="359" y="178" type="qcurve"/>
      <point x="1105" y="182" type="line"/>
    </contour>
  </outline>
</glyph>
<glyph name="yen" format="2">
  <advance width="1318"/>
  <unicode hex="00A5"/>
  <outline>
    <contour>
      <point x="638" y="0" type="line"/>
      <point x="450" y="0" type="line"/>
      <point x="502" y="226" type="line"/>
      <point x="203" y="226" type="line"/>
      <point x="240" y="390" type="line"/>
      <point x="539" y="390" type="line"/>
      <point x="567" y="507" type="line"/>
      <point x="268" y="507" type="line"/>
      <point x="306" y="671" type="line"/>
      <point x="531" y="671" type="line"/>
      <point x="228" y="1413" type="line"/>
      <point x="448" y="1413" type="line"/>
      <point x="709" y="734" type="line"/>
      <point x="1288" y="1413" type="line"/>
      <point x="1516" y="1413" type="line"/>
      <point x="872" y="670" type="line"/>
      <point x="1092" y="670" type="line"/>
      <point x="1055" y="507" type="line"/>
      <point x="756" y="507" type="line"/>
      <point x="727" y="390" type="line"/>
      <point x="1027" y="390" type="line"/>
      <point x="990" y="226" type="line"/>
      <point x="691" y="226" type="line"/>
    </contour>
  </outline>
</glyph>
<glyph name="brokenbar" format="2">
  <advance width="637"/>
  <unicode hex="00A6"/>
  <outline>
    <contour>
      <point x="458" y="731" type="line"/>
      <point x="286" y="731" type="line"/>
      <point x="458" y="1475" type="line"/>
      <point x="630" y="1475" type="line"/>
    </contour>
    <contour>
      <point x="218" y="-307" type="line"/>
      <point x="47" y="-307" type="line"/>
      <point x="215" y="420" type="line"/>
      <point x="386" y="420" type="line"/>
    </contour>
  </outline>
</glyph>
<glyph name="registered" format="2">
  <advance width="1785"/>
  <unicode hex="00AE"/>
  <outline>
    <contour>
      <point x="942" y="-48" type="qcurve" smooth="yes"/>
      <point x="794" y="-48"/>
      <point x="537" y="49"/>
      <point x="336" y="218"/>
      <point x="269" y="330" type="qcurve" smooth="yes"/>
      <point x="164" y="503"/>
      <point x="164" y="709" type="qcurve" smooth="yes"/>
      <point x="164" y="852"/>
      <point x="263" y="1101"/>
      <point x="437" y="1297"/>
      <point x="552" y="1363" type="qcurve" smooth="yes"/>
      <point x="730" y="1465"/>
      <point x="942" y="1465" type="qcurve" smooth="yes"/>
      <point x="1089" y="1465"/>
      <point x="1344" y="1368"/>
      <point x="1545" y="1199"/>
      <point x="1613" y="1088" type="qcurve"/>
      <point x="1717" y="914"/>
      <point x="1717" y="709" type="qcurve" smooth="yes"/>
      <point x="1717" y="565"/>
      <point x="1618" y="316"/>
      <point x="1444" y="119"/>
      <point x="1331" y="54" type="qcurve" smooth="yes"/>
      <point x="1153" y="-48"/>
    </contour>
    <contour>
      <point x="942" y="111" type="qcurve" smooth="yes"/>
      <point x="1115" y="111"/>
      <point x="1393" y="278"/>
      <point x="1475" y="412" type="qcurve" smooth="yes"/>
      <point x="1559" y="549"/>
      <point x="1559" y="709" type="qcurve" smooth="yes"/>
      <point x="1559" y="821"/>
      <point x="1479" y="1017"/>
      <point x="1340" y="1172"/>
      <point x="1249" y="1225" type="qcurve" smooth="yes"/>
      <point x="1107" y="1306"/>
      <point x="942" y="1306" type="qcurve" smooth="yes"/>
      <point x="826" y="1306"/>
      <point x="622" y="1229"/>
      <point x="461" y="1094"/>
      <point x="407" y="1006" type="qcurve" smooth="yes"/>
      <point x="323" y="869"/>
      <point x="323" y="709" type="qcurve" smooth="yes"/>
      <point x="323" y="541"/>
      <point x="495" y="272"/>
      <point x="634" y="193" type="qcurve" smooth="yes"/>
      <point x="776" y="111"/>
    </contour>
    <contour>
      <point x="1323" y="293" type="line"/>
      <point x="1134" y="293" type="line"/>
      <point x="960" y="614" type="line"/>
      <point x="844" y="614" type="line"/>
      <point x="844" y="293" type="line"/>
      <point x="679" y="293" type="line"/>
      <point x="679" y="1110" type="line"/>
      <point x="995" y="1110" type="line" smooth="yes"/>
      <point x="1137" y="1110"/>
      <point x="1272" y="973"/>
      <point x="1272" y="862" type="qcurve" smooth="yes"/>
      <point x="1272" y="770"/>
      <point x="1188" y="659"/>
      <point x="1123" y="636" type="qcurve"/>
    </contour>
    <contour>
      <point x="995" y="769" type="line" smooth="yes"/>
      <point x="1059" y="769"/>
      <point x="1118" y="811"/>
      <point x="1118" y="862" type="qcurve" smooth="yes"/>
      <point x="1118" y="915"/>
      <point x="1061" y="955"/>
      <point x="995" y="955" type="qcurve" smooth="yes"/>
      <point x="834" y="955" type="line"/>
      <point x="834" y="769" type="line"/>
    </contour>
  </outline>
</glyph>
<glyph name="plusminus" format="2">
  <advance width="1330"/>
  <unicode hex="00B1"/>
  <outline>
    <contour>
      <point x="746" y="106" type="line"/>
      <point x="584" y="106" type="line"/>
      <point x="584" y="544" type="line"/>
      <point x="127" y="544" type="line"/>
      <point x="127" y="706" type="line"/>
      <point x="584" y="706" type="line"/>
      <point x="584" y="1143" type="line"/>
      <point x="746" y="1143" type="line"/>
      <point x="746" y="706" type="line"/>
      <point x="1203" y="706" type="line"/>
      <point x="1203" y="544" type="line"/>
      <point x="746" y="544" type="line"/>
    </contour>
    <contour>
      <point x="1201" y="-162" type="line"/>
      <point x="129" y="-162" type="line"/>
      <point x="129" y="0" type="line"/>
      <point x="1201" y="0" type="line"/>
    </contour>
  </outline>
</glyph>
<glyph name="periodcentered" format="2">
  <advance width="627"/>
  <unicode hex="00B7"/>
  <outline>
    <contour>
      <point x="363" y="666" type="qcurve" smooth="yes"/>
      <point x="308" y="666"/>
      <point x="244" y="738"/>
      <point x="244" y="790" type="qcurve" smooth="yes"/>
      <point x="244" y="867"/>
      <point x="305" y="914" type="qcurve" smooth="yes"/>
      <point x="349" y="948"/>
      <point x="403" y="948" type="qcurve" smooth="yes"/>
      <point x="459" y="948"/>
      <point x="526" y="879"/>
      <point x="526" y="826" type="qcurve" smooth="yes"/>
      <point x="526" y="810"/>
      <point x="521" y="788" type="qcurve" smooth="yes"/>
      <point x="508" y="736"/>
      <point x="419" y="666"/>
    </contour>
  </outline>
</glyph>
<glyph name="cedilla" format="2">
  <advance width="554"/>
  <unicode hex="00B8"/>
  <anchor x="42" y="-500" name="b.uni0326_2"/>
  <outline>
    <contour>
      <point x="31" y="-517" type="qcurve" smooth="yes"/>
      <point x="-38" y="-517"/>
      <point x="-129" y="-437"/>
      <point x="-141" y="-380" type="qcurve"/>
      <point x="-11" y="-343" type="line"/>
      <point x="-10" y="-366"/>
      <point x="19" y="-389"/>
      <point x="41" y="-389" type="qcurve" smooth="yes"/>
      <point x="86" y="-389"/>
      <point x="119" y="-359" type="qcurve" smooth="yes"/>
      <point x="159" y="-323"/>
      <point x="166" y="-270" type="qcurve"/>
      <point x="166" y="-237"/>
      <point x="94" y="-190"/>
      <point x="24" y="-190" type="qcurve" smooth="yes"/>
      <point x="-45" y="-190" type="line"/>
      <point x="107" y="-2" type="line"/>
      <point x="248" y="-2" type="line"/>
      <point x="141" y="-107" type="line"/>
      <point x="219" y="-116"/>
      <point x="295" y="-201"/>
      <point x="295" y="-263" type="qcurve" smooth="yes"/>
      <point x="295" y="-328"/>
      <point x="225" y="-444"/>
      <point x="105" y="-517"/>
    </contour>
  </outline>
</glyph>
<glyph name="onesuperior" format="2">
  <advance width="847"/>
  <unicode hex="00B9"/>
  <outline>
    <contour>
      <point x="473" y="486" type="line"/>
      <point x="306" y="486" type="line"/>
      <point x="488" y="1171" type="line"/>
      <point x="251" y="1171" type="line"/>
      <point x="302" y="1302" type="line"/>
      <point x="413" y="1302" type="line" smooth="yes"/>
      <point x="465" y="1302"/>
      <point x="538" y="1360"/>
      <point x="550" y="1404" type="qcurve" smooth="yes"/>
      <point x="556" y="1428" type="line"/>
      <point x="723" y="1428" type="line"/>
    </contour>
  </outline>
</glyph>
<glyph name="guillemotright" format="2">
  <advance width="962"/>
  <unicode hex="00BB"/>
  <outline>
    <contour>
      <point x="76" y="165" type="line"/>
      <point x="118" y="360" type="line"/>
      <point x="338" y="510" type="line"/>
      <point x="192" y="662" type="line"/>
      <point x="232" y="857" type="line"/>
      <point x="564" y="510" type="line"/>
    </contour>
    <contour>
      <point x="439" y="165" type="line"/>
      <point x="480" y="360" type="line"/>
      <point x="701" y="510" type="line"/>
      <point x="554" y="662" type="line"/>
      <point x="594" y="857" type="line"/>
      <point x="927" y="510" type="line"/>
    </contour>
  </outline>
</glyph>
<glyph name="questiondown" format="2">
  <advance width="1005"/>
  <unicode hex="00BF"/>
  <outline>
    <contour>
      <point x="691" y="757" type="line"/>
      <point x="446" y="757" type="line"/>
      <point x="501" y="999" type="line"/>
      <point x="745" y="999" type="line"/>
    </contour>
    <contour>
      <point x="317" y="-434" type="qcurve" smooth="yes"/>
      <point x="215" y="-434"/>
      <point x="47" y="-367"/>
      <point x="-54" y="-231"/>
      <point x="-54" y="-128" type="qcurve" smooth="yes"/>
      <point x="-54" y="-61"/>
      <point x="-11" y="80"/>
      <point x="27" y="133" type="qcurve" smooth="yes"/>
      <point x="70" y="192"/>
      <point x="176" y="266"/>
      <point x="253" y="302" type="qcurve" smooth="yes"/>
      <point x="322" y="334"/>
      <point x="395" y="390"/>
      <point x="404" y="431" type="qcurve" smooth="yes"/>
      <point x="441" y="590" type="line"/>
      <point x="626" y="590" type="line"/>
      <point x="584" y="410" type="line"/>
      <point x="549" y="267"/>
      <point x="451" y="204" type="qcurve" smooth="yes"/>
      <point x="404" y="174"/>
      <point x="343" y="143" type="qcurve" smooth="yes"/>
      <point x="287" y="114"/>
      <point x="248" y="90" type="qcurve" smooth="yes"/>
      <point x="172" y="45"/>
      <point x="139" y="-70" type="qcurve"/>
      <point x="133" y="-97"/>
      <point x="133" y="-120" type="qcurve" smooth="yes"/>
      <point x="133" y="-191"/>
      <point x="238" y="-253"/>
      <point x="324" y="-253" type="qcurve" smooth="yes"/>
      <point x="431" y="-253"/>
      <point x="603" y="-133"/>
      <point x="632" y="-25" type="qcurve"/>
      <point x="821" y="-43" type="line"/>
      <point x="771" y="-234"/>
      <point x="486" y="-434"/>
    </contour>
  </outline>
</glyph>
<glyph name="Aring" format="2">
  <advance width="1335"/>
  <unicode hex="00C5"/>
  <outline>
    <contour>
      <point x="1188" y="0" type="line"/>
      <point x="958" y="0" type="line"/>
      <point x="920" y="307" type="line"/>
      <point x="340" y="307" type="line"/>
      <point x="161" y="0" type="line"/>
      <point x="-87" y="0" type="line"/>
      <point x="748" y="1334" type="line"/>
      <point x="679" y="1387"/>
      <point x="679" y="1483" type="qcurve" smooth="yes"/>
      <point x="679" y="1517"/>
      <point x="708" y="1603"/>
      <point x="740" y="1641" type="qcurve"/>
      <point x="828" y="1738"/>
      <point x="939" y="1738" type="qcurve" smooth="yes"/>
      <point x="1022" y="1738"/>
      <point x="1128" y="1631"/>
      <point x="1128" y="1553" type="qcurve" smooth="yes"/>
      <point x="1128" y="1481"/>
      <point x="1047" y="1360"/>
      <point x="980" y="1325" type="qcurve"/>
    </contour>
    <contour>
      <point x="880" y="1407" type="qcurve" smooth="yes"/>
      <point x="938" y="1407"/>
      <point x="1013" y="1494"/>
      <point x="1013" y="1542" type="qcurve" smooth="yes"/>
      <point x="1013" y="1583"/>
      <point x="963" y="1625"/>
      <point x="924" y="1625" type="qcurve" smooth="yes"/>
      <point x="883" y="1625"/>
      <point x="824" y="1584"/>
      <point x="793" y="1522"/>
      <point x="793" y="1491" type="qcurve" smooth="yes"/>
      <point x="793" y="1453"/>
      <point x="842" y="1407"/>
    </contour>
    <contour>
      <point x="889" y="502" type="line"/>
      <point x="815" y="1094" type="line"/>
      <point x="462" y="502" type="line"/>
    </contour>
  </outline>
</glyph>
<glyph name="AE" format="2">
  <advance width="1847"/>
  <unicode hex="00C6"/>
  <outline>
    <contour>
      <point x="1628" y="0" type="line"/>
      <point x="672" y="0" type="line"/>
      <point x="741" y="307" type="line"/>
      <point x="325" y="307" type="line"/>
      <point x="144" y="0" type="line"/>
      <point x="-87" y="0" type="line"/>
      <point x="787" y="1413" type="line"/>
      <point x="1954" y="1413" type="line"/>
      <point x="1911" y="1226" type="line"/>
      <point x="1163" y="1226" type="line"/>
      <point x="1064" y="801" type="line"/>
      <point x="1724" y="801" type="line"/>
      <point x="1680" y="612" type="line"/>
      <point x="1021" y="612" type="line"/>
      <point x="924" y="193" type="line"/>
      <point x="1672" y="193" type="line"/>
    </contour>
    <contour>
      <point x="783" y="486" type="line"/>
      <point x="954" y="1226" type="line"/>
      <point x="889" y="1226" type="line"/>
      <point x="436" y="486" type="line"/>
    </contour>
  </outline>
</glyph>
<glyph name="Ccedilla" format="2">
  <advance width="1431"/>
  <unicode hex="00C7"/>
  <outline>
    <contour>
      <point x="527" y="-517" type="qcurve" smooth="yes"/>
      <point x="458" y="-517"/>
      <point x="367" y="-437"/>
      <point x="355" y="-380" type="qcurve"/>
      <point x="485" y="-343" type="line"/>
      <point x="486" y="-366"/>
      <point x="515" y="-389"/>
      <point x="537" y="-389" type="qcurve" smooth="yes"/>
      <point x="582" y="-389"/>
      <point x="615" y="-359" type="qcurve" smooth="yes"/>
      <point x="655" y="-323"/>
      <point x="662" y="-270" type="qcurve"/>
      <point x="662" y="-237"/>
      <point x="590" y="-190"/>
      <point x="520" y="-190" type="qcurve" smooth="yes"/>
      <point x="451" y="-190" type="line"/>
      <point x="591" y="-17" type="line"/>
      <point x="431" y="-3"/>
      <point x="223" y="136"/>
      <point x="123" y="362"/>
      <point x="123" y="504" type="qcurve" smooth="yes"/>
      <point x="123" y="650"/>
      <point x="217" y="955"/>
      <point x="304" y="1084" type="qcurve" smooth="yes"/>
      <point x="413" y="1245"/>
      <point x="751" y="1436"/>
      <point x="967" y="1436" type="qcurve" smooth="yes"/>
      <point x="1179" y="1436"/>
      <point x="1459" y="1228"/>
      <point x="1489" y="1030" type="qcurve"/>
      <point x="1269" y="965" type="line"/>
      <point x="1260" y="1105"/>
      <point x="1085" y="1239"/>
      <point x="942" y="1239" type="qcurve" smooth="yes"/>
      <point x="718" y="1239"/>
      <point x="562" y="1078" type="qcurve" smooth="yes"/>
      <point x="420" y="931"/>
      <point x="365" y="697" type="qcurve" smooth="yes"/>
      <point x="343" y="601"/>
      <point x="343" y="522" type="qcurve" smooth="yes"/>
      <point x="343" y="368"/>
      <point x="508" y="191"/>
      <point x="681" y="191" type="qcurve" smooth="yes"/>
      <point x="836" y="191"/>
      <point x="1069" y="334"/>
      <point x="1154" y="473" type="qcurve"/>
      <point x="1342" y="369" type="line"/>
      <point x="1221" y="187"/>
      <point x="905" y="-2"/>
      <point x="729" y="-17" type="qcurve"/>
      <point x="637" y="-107" type="line"/>
      <point x="715" y="-116"/>
      <point x="791" y="-201"/>
      <point x="791" y="-263" type="qcurve" smooth="yes"/>
      <point x="791" y="-328"/>
      <point x="721" y="-444"/>
      <point x="601" y="-517"/>
    </contour>
  </outline>
</glyph>
<glyph name="Eth" format="2">
  <advance width="1430"/>
  <unicode hex="00D0"/>
  <outline>
    <contour>
      <point x="491" y="0" type="qcurve" smooth="yes"/>
      <point x="99" y="0" type="line"/>
      <point x="244" y="631" type="line"/>
      <point x="132" y="631" type="line"/>
      <point x="168" y="794" type="line"/>
      <point x="281" y="794" type="line"/>
      <point x="424" y="1413" type="line"/>
      <point x="807" y="1413" type="line" smooth="yes"/>
      <point x="1096" y="1413"/>
      <point x="1405" y="1153"/>
      <point x="1405" y="903" type="qcurve" smooth="yes"/>
      <point x="1405" y="797"/>
      <point x="1377" y="676" type="qcurve"/>
      <point x="1297" y="345"/>
      <point x="834" y="0"/>
    </contour>
    <contour>
      <point x="499" y="197" type="line" smooth="yes"/>
      <point x="751" y="197"/>
      <point x="1112" y="459"/>
      <point x="1176" y="727" type="qcurve" smooth="yes"/>
      <point x="1197" y="818"/>
      <point x="1197" y="893" type="qcurve" smooth="yes"/>
      <point x="1197" y="1062"/>
      <point x="981" y="1219"/>
      <point x="771" y="1219" type="qcurve" smooth="yes"/>
      <point x="590" y="1219" type="line"/>
      <point x="492" y="794" type="line"/>
      <point x="873" y="794" type="line"/>
      <point x="836" y="631" type="line"/>
      <point x="455" y="631" type="line"/>
      <point x="354" y="197" type="line"/>
    </contour>
  </outline>
</glyph>
<glyph name="multiply" format="2">
  <advance width="1097"/>
  <unicode hex="00D7"/>
  <outline>
    <contour>
      <point x="225" y="187" type="line"/>
      <point x="111" y="301" type="line"/>
      <point x="433" y="625" type="line"/>
      <point x="124" y="933" type="line"/>
      <point x="240" y="1049" type="line"/>
      <point x="549" y="740" type="line"/>
      <point x="872" y="1062" type="line"/>
      <point x="986" y="948" type="line"/>
      <point x="664" y="625" type="line"/>
      <point x="973" y="316" type="line"/>
      <point x="858" y="200" type="line"/>
      <point x="549" y="509" type="line"/>
    </contour>
  </outline>
</glyph>
<glyph name="Oslash" format="2">
  <advance width="1527"/>
  <unicode hex="00D8"/>
  <outline>
    <contour>
      <point x="656" y="-20" type="qcurve" smooth="yes"/>
      <point x="476" y="-20"/>
      <point x="354" y="49" type="qcurve"/>
      <point x="313" y="0" type="line"/>
      <point x="142" y="0" type="line"/>
      <point x="250" y="131" type="line"/>
      <point x="184" y="202"/>
      <point x="122" y="394"/>
      <point x="122" y="505" type="qcurve" smooth="yes"/>
      <point x="122" y="653"/>
      <point x="217" y="955"/>
      <point x="303" y="1083" type="qcurve" smooth="yes"/>
      <point x="412" y="1243"/>
      <point x="750" y="1434"/>
      <point x="966" y="1434" type="qcurve" smooth="yes"/>
      <point x="1144" y="1434"/>
      <point x="1268" y="1365" type="qcurve"/>
      <point x="1308" y="1413" type="line"/>
      <point x="1478" y="1413" type="line"/>
      <point x="1372" y="1284" type="line"/>
      <point x="1500" y="1144"/>
      <point x="1500" y="907" type="qcurve" smooth="yes"/>
      <point x="1500" y="763"/>
      <point x="1408" y="462"/>
      <point x="1320" y="332" type="qcurve" smooth="yes"/>
      <point x="1211" y="171"/>
      <point x="872" y="-20"/>
    </contour>
    <contour>
      <point x="398" y="311" type="qcurve"/>
      <point x="1127" y="1194" type="line"/>
      <point x="1054" y="1233"/>
      <point x="944" y="1233" type="qcurve" smooth="yes"/>
      <point x="791" y="1233"/>
      <point x="674" y="1159" type="qcurve"/>
      <point x="554" y="1081"/>
      <point x="406" y="835"/>
      <point x="373" y="687" type="qcurve" smooth="yes"/>
      <point x="351" y="590"/>
      <point x="351" y="510" type="qcurve" smooth="yes"/>
      <point x="351" y="389"/>
    </contour>
    <contour>
      <point x="676" y="180" type="qcurve" smooth="yes"/>
      <point x="833" y="180"/>
      <point x="1065" y="328"/>
      <point x="1216" y="575"/>
      <point x="1251" y="727" type="qcurve" smooth="yes"/>
      <point x="1273" y="823"/>
      <point x="1273" y="902" type="qcurve" smooth="yes"/>
      <point x="1273" y="1025"/>
      <point x="1223" y="1104" type="qcurve"/>
      <point x="494" y="220" type="line"/>
      <point x="566" y="180"/>
    </contour>
  </outline>
</glyph>
<glyph name="germandbls" format="2">
  <advance width="1185"/>
  <unicode hex="00DF"/>
  <outline>
    <contour>
      <point x="620" y="-18" type="qcurve" smooth="yes"/>
      <point x="564" y="-18"/>
      <point x="460" y="7"/>
      <point x="400" y="31" type="qcurve"/>
      <point x="509" y="210" type="line"/>
      <point x="567" y="180"/>
      <point x="635" y="180" type="qcurve" smooth="yes"/>
      <point x="709" y="180"/>
      <point x="821" y="268"/>
      <point x="836" y="331" type="qcurve"/>
      <point x="840" y="351"/>
      <point x="840" y="361" type="qcurve" smooth="yes"/>
      <point x="840" y="399"/>
      <point x="795" y="467"/>
      <point x="748" y="513" type="qcurve" smooth="yes"/>
      <point x="693" y="568"/>
      <point x="632" y="665"/>
      <point x="632" y="727" type="qcurve" smooth="yes"/>
      <point x="632" y="789"/>
      <point x="684" y="882"/>
      <point x="723" y="911" type="qcurve" smooth="yes"/>
      <point x="753" y="933"/>
      <point x="794" y="957" type="qcurve" smooth="yes"/>
      <point x="834" y="981"/>
      <point x="861" y="1001" type="qcurve" smooth="yes"/>
      <point x="893" y="1024"/>
      <point x="938" y="1095"/>
      <point x="938" y="1136" type="qcurve" smooth="yes"/>
      <point x="938" y="1182"/>
      <point x="862" y="1247"/>
      <point x="777" y="1247" type="qcurve" smooth="yes"/>
      <point x="668" y="1247"/>
      <point x="509" y="1111"/>
      <point x="477" y="975" type="qcurve"/>
      <point x="253" y="0" type="line"/>
      <point x="40" y="0" type="line"/>
      <point x="270" y="994" type="line"/>
      <point x="306" y="1143"/>
      <point x="461" y="1339"/>
      <point x="670" y="1434"/>
      <point x="784" y="1434" type="qcurve" smooth="yes"/>
      <point x="878" y="1434"/>
      <point x="1043" y="1361"/>
      <point x="1146" y="1225"/>
      <point x="1146" y="1131" type="qcurve" smooth="yes"/>
      <point x="1146" y="1088"/>
      <point x="1121" y="994"/>
      <point x="1065" y="919"/>
      <point x="994" y="866"/>
      <point x="942" y="838" type="qcurve" smooth="yes"/>
      <point x="889" y="809"/>
      <point x="837" y="766"/>
      <point x="831" y="737" type="qcurve"/>
      <point x="830" y="726" type="line"/>
      <point x="830" y="705"/>
      <point x="864" y="664"/>
      <point x="905" y="630" type="qcurve"/>
      <point x="975" y="575"/>
      <point x="1055" y="461"/>
      <point x="1055" y="376" type="qcurve" smooth="yes"/>
      <point x="1055" y="314"/>
      <point x="1007" y="186"/>
      <point x="962" y="134" type="qcurve"/>
      <point x="821" y="-18"/>
    </contour>
  </outline>
</glyph>
<glyph name="ae" format="2">
  <advance width="1677"/>
  <unicode hex="00E6"/>
  <outline>
    <contour>
      <point x="292" y="-20" type="qcurve" smooth="yes"/>
      <point x="212" y="-20"/>
      <point x="80" y="39"/>
      <point x="2" y="152"/>
      <point x="2" y="232" type="qcurve" smooth="yes"/>
      <point x="2" y="268"/>
      <point x="11" y="307" type="qcurve" smooth="yes"/>
      <point x="45" y="456"/>
      <point x="277" y="586"/>
      <point x="459" y="588" type="qcurve"/>
      <point x="750" y="588" type="line"/>
      <point x="763" y="651"/>
      <point x="763" y="690" type="qcurve" smooth="yes"/>
      <point x="763" y="767"/>
      <point x="677" y="836"/>
      <point x="588" y="836" type="qcurve" smooth="yes"/>
      <point x="505" y="836"/>
      <point x="355" y="752"/>
      <point x="304" y="694" type="qcurve"/>
      <point x="170" y="820" type="line"/>
      <point x="272" y="924"/>
      <point x="487" y="1016"/>
      <point x="613" y="1016" type="qcurve" smooth="yes"/>
      <point x="735" y="1016"/>
      <point x="883" y="920"/>
      <point x="910" y="844" type="qcurve"/>
      <point x="1064" y="1012"/>
      <point x="1270" y="1012" type="qcurve" smooth="yes"/>
      <point x="1458" y="1012"/>
      <point x="1626" y="817"/>
      <point x="1626" y="659" type="qcurve" smooth="yes"/>
      <point x="1626" y="595"/>
      <point x="1599" y="449"/>
      <point x="1583" y="429" type="qcurve"/>
      <point x="891" y="429" type="line"/>
      <point x="887" y="404"/>
      <point x="887" y="375" type="qcurve" smooth="yes"/>
      <point x="887" y="289"/>
      <point x="980" y="185"/>
      <point x="1083" y="185" type="qcurve" smooth="yes"/>
      <point x="1175" y="185"/>
      <point x="1310" y="235"/>
      <point x="1372" y="288" type="qcurve"/>
      <point x="1498" y="147" type="line"/>
      <point x="1401" y="64"/>
      <point x="1192" y="-12"/>
      <point x="1064" y="-12" type="qcurve" smooth="yes"/>
      <point x="925" y="-12"/>
      <point x="769" y="98"/>
      <point x="744" y="188" type="qcurve"/>
      <point x="561" y="-20"/>
    </contour>
    <contour>
      <point x="1423" y="588" type="line"/>
      <point x="1428" y="626"/>
      <point x="1428" y="652" type="qcurve" smooth="yes"/>
      <point x="1428" y="745"/>
      <point x="1333" y="829"/>
      <point x="1240" y="829" type="qcurve" smooth="yes"/>
      <point x="1130" y="829"/>
      <point x="968" y="691"/>
      <point x="931" y="588" type="qcurve"/>
    </contour>
    <contour>
      <point x="347" y="158" type="qcurve" smooth="yes"/>
      <point x="429" y="158"/>
      <point x="582" y="242"/>
      <point x="692" y="366"/>
      <point x="713" y="429" type="qcurve"/>
      <point x="449" y="429" type="line"/>
      <point x="360" y="427"/>
      <point x="228" y="343"/>
      <point x="209" y="268" type="qcurve" smooth="yes"/>
      <point x="207" y="261"/>
      <point x="207" y="247" type="qcurve" smooth="yes"/>
      <point x="207" y="203"/>
      <point x="287" y="158"/>
    </contour>
  </outline>
</glyph>
<glyph name="ccedilla" format="2">
  <advance width="996"/>
  <unicode hex="00E7"/>
  <outline>
    <contour>
      <point x="275" y="-517" type="qcurve" smooth="yes"/>
      <point x="206" y="-517"/>
      <point x="115" y="-437"/>
      <point x="103" y="-380" type="qcurve"/>
      <point x="233" y="-343" type="line"/>
      <point x="234" y="-366"/>
      <point x="263" y="-389"/>
      <point x="285" y="-389" type="qcurve" smooth="yes"/>
      <point x="330" y="-389"/>
      <point x="363" y="-359" type="qcurve" smooth="yes"/>
      <point x="403" y="-323"/>
      <point x="410" y="-270" type="qcurve"/>
      <point x="410" y="-237"/>
      <point x="338" y="-190"/>
      <point x="268" y="-190" type="qcurve" smooth="yes"/>
      <point x="199" y="-190" type="line"/>
      <point x="342" y="-13" type="line"/>
      <point x="199" y="12"/>
      <point x="55" y="217"/>
      <point x="55" y="365" type="qcurve" smooth="yes"/>
      <point x="55" y="526"/>
      <point x="217" y="848"/>
      <point x="377" y="947" type="qcurve"/>
      <point x="495" y="1016"/>
      <point x="642" y="1016" type="qcurve" smooth="yes"/>
      <point x="744" y="1016"/>
      <point x="894" y="941"/>
      <point x="987" y="810"/>
      <point x="1004" y="725" type="qcurve"/>
      <point x="790" y="663" type="line"/>
      <point x="786" y="742"/>
      <point x="694" y="818"/>
      <point x="622" y="818" type="qcurve" smooth="yes"/>
      <point x="530" y="818"/>
      <point x="392" y="722"/>
      <point x="303" y="568"/>
      <point x="282" y="478" type="qcurve" smooth="yes"/>
      <point x="268" y="420"/>
      <point x="268" y="369" type="qcurve" smooth="yes"/>
      <point x="268" y="313"/>
      <point x="304" y="226"/>
      <point x="383" y="177"/>
      <point x="448" y="177" type="qcurve" smooth="yes"/>
      <point x="535" y="177"/>
      <point x="676" y="275"/>
      <point x="714" y="351" type="qcurve"/>
      <point x="890" y="258" type="line"/>
      <point x="813" y="129"/>
      <point x="598" y="-8"/>
      <point x="476" y="-18" type="qcurve"/>
      <point x="385" y="-107" type="line"/>
      <point x="463" y="-116"/>
      <point x="539" y="-201"/>
      <point x="539" y="-263" type="qcurve" smooth="yes"/>
      <point x="539" y="-328"/>
      <point x="469" y="-444"/>
      <point x="349" y="-517"/>
    </contour>
  </outline>
</glyph>
<glyph name="eth" format="2">
  <advance width="1173"/>
  <unicode hex="00F0"/>
  <outline>
    <contour>
      <point x="474" y="-16" type="qcurve" smooth="yes"/>
      <point x="333" y="-16"/>
      <point x="148" y="91"/>
      <point x="57" y="276"/>
      <point x="57" y="391" type="qcurve" smooth="yes"/>
      <point x="57" y="486"/>
      <point x="120" y="690"/>
      <point x="187" y="782" type="qcurve" smooth="yes"/>
      <point x="265" y="888"/>
      <point x="501" y="1020"/>
      <point x="650" y="1020" type="qcurve" smooth="yes"/>
      <point x="825" y="1020"/>
      <point x="911" y="917" type="qcurve"/>
      <point x="907" y="1123"/>
      <point x="713" y="1246" type="qcurve"/>
      <point x="598" y="1120" type="line"/>
      <point x="509" y="1183" type="line"/>
      <point x="615" y="1299" type="line"/>
      <point x="571" y="1318"/>
      <point x="482" y="1352" type="qcurve"/>
      <point x="610" y="1512" type="line"/>
      <point x="684" y="1480"/>
      <point x="748" y="1446" type="qcurve"/>
      <point x="839" y="1546" type="line"/>
      <point x="931" y="1486" type="line"/>
      <point x="841" y="1387" type="line"/>
      <point x="986" y="1283"/>
      <point x="1123" y="1006"/>
      <point x="1123" y="830" type="qcurve" smooth="yes"/>
      <point x="1123" y="698"/>
      <point x="1048" y="372"/>
      <point x="883" y="125"/>
      <point x="635" y="-16"/>
    </contour>
    <contour>
      <point x="487" y="183" type="qcurve" smooth="yes"/>
      <point x="584" y="183"/>
      <point x="740" y="281"/>
      <point x="844" y="442"/>
      <point x="866" y="538" type="qcurve" smooth="yes"/>
      <point x="877" y="583"/>
      <point x="877" y="632" type="qcurve" smooth="yes"/>
      <point x="877" y="694"/>
      <point x="832" y="792"/>
      <point x="739" y="849"/>
      <point x="666" y="849" type="qcurve" smooth="yes"/>
      <point x="567" y="849"/>
      <point x="412" y="750"/>
      <point x="308" y="591"/>
      <point x="286" y="496" type="qcurve" smooth="yes"/>
      <point x="274" y="447"/>
      <point x="274" y="401" type="qcurve" smooth="yes"/>
      <point x="274" y="339"/>
      <point x="318" y="241"/>
      <point x="412" y="183"/>
    </contour>
  </outline>
</glyph>
<glyph name="oslash" format="2">
  <advance width="1127"/>
  <unicode hex="00F8"/>
  <outline>
    <contour>
      <point x="456" y="-20" type="qcurve" smooth="yes"/>
      <point x="332" y="-20"/>
      <point x="237" y="32" type="qcurve"/>
      <point x="211" y="0" type="line"/>
      <point x="90" y="0" type="line"/>
      <point x="162" y="88" type="line"/>
      <point x="107" y="144"/>
      <point x="51" y="294"/>
      <point x="51" y="380" type="qcurve" smooth="yes"/>
      <point x="51" y="559"/>
      <point x="243" y="862"/>
      <point x="399" y="946" type="qcurve"/>
      <point x="525" y="1012"/>
      <point x="668" y="1012" type="qcurve" smooth="yes"/>
      <point x="791" y="1012"/>
      <point x="883" y="962" type="qcurve"/>
      <point x="915" y="1000" type="line"/>
      <point x="1035" y="1000" type="line"/>
      <point x="958" y="907" type="line"/>
      <point x="1073" y="797"/>
      <point x="1073" y="612" type="qcurve" smooth="yes"/>
      <point x="1073" y="490"/>
      <point x="982" y="272"/>
      <point x="826" y="100"/>
      <point x="725" y="47" type="qcurve" smooth="yes"/>
      <point x="599" y="-20"/>
    </contour>
    <contour>
      <point x="298" y="252" type="qcurve"/>
      <point x="754" y="805" type="line"/>
      <point x="711" y="825"/>
      <point x="650" y="825" type="qcurve" smooth="yes"/>
      <point x="552" y="825"/>
      <point x="404" y="731"/>
      <point x="306" y="573"/>
      <point x="284" y="476" type="qcurve"/>
      <point x="271" y="423"/>
      <point x="271" y="370" type="qcurve" smooth="yes"/>
      <point x="271" y="299"/>
    </contour>
    <contour>
      <point x="474" y="166" type="qcurve" smooth="yes"/>
      <point x="574" y="166"/>
      <point x="722" y="261"/>
      <point x="817" y="419"/>
      <point x="840" y="516" type="qcurve"/>
      <point x="853" y="576"/>
      <point x="853" y="623" type="qcurve" smooth="yes"/>
      <point x="853" y="696"/>
      <point x="824" y="744" type="qcurve"/>
      <point x="366" y="188" type="line"/>
      <point x="410" y="166"/>
    </contour>
  </outline>
</glyph>
<glyph name="Aogonek" format="2">
  <advance width="1332"/>
  <unicode hex="0104"/>
  <outline>
    <contour>
      <point x="966" y="-451" type="qcurve" smooth="yes"/>
      <point x="883" y="-451"/>
      <point x="780" y="-359"/>
      <point x="780" y="-281" type="qcurve" smooth="yes"/>
      <point x="780" y="-227"/>
      <point x="827" y="-123"/>
      <point x="876" y="-82" type="qcurve" smooth="yes"/>
      <point x="944" y="-25"/>
      <point x="1003" y="0" type="qcurve"/>
      <point x="949" y="0" type="line"/>
      <point x="910" y="307" type="line"/>
      <point x="339" y="307" type="line"/>
      <point x="159" y="0" type="line"/>
      <point x="-89" y="0" type="line"/>
      <point x="792" y="1413" type="line"/>
      <point x="961" y="1413" type="line"/>
      <point x="1187" y="0" type="line"/>
      <point x="1114" y="0" type="line"/>
      <point x="1190" y="-3" type="line"/>
      <point x="1163" y="-12"/>
      <point x="1049" y="-70"/>
      <point x="991" y="-121" type="qcurve" smooth="yes"/>
      <point x="956" y="-153"/>
      <point x="914" y="-232"/>
      <point x="914" y="-266" type="qcurve" smooth="yes"/>
      <point x="914" y="-312"/>
      <point x="966" y="-312" type="qcurve" smooth="yes"/>
      <point x="1036" y="-312"/>
      <point x="1099" y="-246" type="qcurve"/>
      <point x="1198" y="-339" type="line"/>
      <point x="1100" y="-451"/>
    </contour>
    <contour>
      <point x="880" y="502" type="line"/>
      <point x="807" y="1084" type="line"/>
      <point x="460" y="502" type="line"/>
    </contour>
  </outline>
</glyph>
<glyph name="aogonek" format="2">
  <advance width="1052"/>
  <unicode hex="0105"/>
  <outline>
    <contour>
      <point x="590" y="-451" type="qcurve" smooth="yes"/>
      <point x="507" y="-451"/>
      <point x="404" y="-359"/>
      <point x="404" y="-281" type="qcurve" smooth="yes"/>
      <point x="404" y="-185"/>
      <point x="473" y="-110" type="qcurve"/>
      <point x="522" y="-59"/>
      <point x="613" y="-4"/>
      <point x="637" y="4" type="qcurve"/>
      <point x="688" y="2" type="line"/>
      <point x="704" y="107" type="line"/>
      <point x="577" y="-20"/>
      <point x="390" y="-20" type="qcurve" smooth="yes"/>
      <point x="278" y="-20"/>
      <point x="131" y="77"/>
      <point x="58" y="245"/>
      <point x="58" y="353" type="qcurve" smooth="yes"/>
      <point x="58" y="455"/>
      <point x="122" y="674"/>
      <point x="184" y="771" type="qcurve" smooth="yes"/>
      <point x="255" y="882"/>
      <point x="468" y="1020"/>
      <point x="601" y="1020" type="qcurve" smooth="yes"/>
      <point x="692" y="1020"/>
      <point x="834" y="949"/>
      <point x="871" y="881" type="qcurve"/>
      <point x="902" y="999" type="line"/>
      <point x="1119" y="999" type="line"/>
      <point x="890" y="0" type="line"/>
      <point x="738" y="0" type="line"/>
      <point x="814" y="-3" type="line"/>
      <point x="787" y="-12"/>
      <point x="673" y="-70"/>
      <point x="615" y="-121" type="qcurve" smooth="yes"/>
      <point x="580" y="-153"/>
      <point x="538" y="-232"/>
      <point x="538" y="-266" type="qcurve" smooth="yes"/>
      <point x="538" y="-312"/>
      <point x="590" y="-312" type="qcurve" smooth="yes"/>
      <point x="660" y="-312"/>
      <point x="723" y="-246" type="qcurve"/>
      <point x="822" y="-339" type="line"/>
      <point x="724" y="-451"/>
    </contour>
    <contour>
      <point x="462" y="177" type="qcurve" smooth="yes"/>
      <point x="596" y="177"/>
      <point x="775" y="367"/>
      <point x="809" y="520" type="qcurve" smooth="yes"/>
      <point x="823" y="581"/>
      <point x="823" y="631" type="qcurve" smooth="yes"/>
      <point x="823" y="717"/>
      <point x="736" y="825"/>
      <point x="637" y="825" type="qcurve" smooth="yes"/>
      <point x="546" y="825"/>
      <point x="405" y="732"/>
      <point x="311" y="577"/>
      <point x="289" y="480" type="qcurve" smooth="yes"/>
      <point x="275" y="421"/>
      <point x="275" y="371" type="qcurve" smooth="yes"/>
      <point x="275" y="285"/>
      <point x="362" y="177"/>
    </contour>
  </outline>
</glyph>
<glyph name="dcroat" format="2">
  <advance width="1160"/>
  <unicode hex="0111"/>
  <outline>
    <contour>
      <point x="390" y="-20" type="qcurve" smooth="yes"/>
      <point x="278" y="-20"/>
      <point x="131" y="77"/>
      <point x="58" y="245"/>
      <point x="58" y="353" type="qcurve" smooth="yes"/>
      <point x="58" y="455"/>
      <point x="122" y="674"/>
      <point x="184" y="771" type="qcurve" smooth="yes"/>
      <point x="255" y="882"/>
      <point x="468" y="1020"/>
      <point x="601" y="1020" type="qcurve" smooth="yes"/>
      <point x="692" y="1020"/>
      <point x="834" y="949"/>
      <point x="871" y="881" type="qcurve"/>
      <point x="934" y="1146" type="line"/>
      <point x="668" y="1146" type="line"/>
      <point x="701" y="1295" type="line"/>
      <point x="970" y="1295" type="line"/>
      <point x="998" y="1413" type="line"/>
      <point x="1215" y="1413" type="line"/>
      <point x="1188" y="1295" type="line"/>
      <point x="1336" y="1295" type="line"/>
      <point x="1302" y="1146" type="line"/>
      <point x="1154" y="1146" type="line"/>
      <point x="890" y="0" type="line"/>
      <point x="688" y="0" type="line"/>
      <point x="704" y="107" type="line"/>
      <point x="577" y="-20"/>
    </contour>
    <contour>
      <point x="462" y="177" type="qcurve" smooth="yes"/>
      <point x="596" y="177"/>
      <point x="775" y="367"/>
      <point x="809" y="520" type="qcurve" smooth="yes"/>
      <point x="823" y="581"/>
      <point x="823" y="631" type="qcurve" smooth="yes"/>
      <point x="823" y="717"/>
      <point x="736" y="825"/>
      <point x="637" y="825" type="qcurve" smooth="yes"/>
      <point x="546" y="825"/>
      <point x="405" y="732"/>
      <point x="311" y="577"/>
      <point x="289" y="480" type="qcurve" smooth="yes"/>
      <point x="275" y="421"/>
      <point x="275" y="371" type="qcurve" smooth="yes"/>
      <point x="275" y="285"/>
      <point x="362" y="177"/>
    </contour>
  </outline>
</glyph>
<glyph name="gcedilla" format="2">
  <advance width="1028"/>
  <unicode hex="0123"/>
  <outline>
    <contour>
      <point x="751" y="1121" type="line"/>
      <point x="506" y="1121" type="line"/>
      <point x="828" y="1431" type="line"/>
      <point x="963" y="1431" type="line"/>
    </contour>
    <contour>
      <point x="344" y="-437" type="qcurve" smooth="yes"/>
      <point x="59" y="-437"/>
      <point x="-45" y="-220" type="qcurve"/>
      <point x="138" y="-117" type="line"/>
      <point x="158" y="-177"/>
      <point x="271" y="-250"/>
      <point x="365" y="-250" type="qcurve" smooth="yes"/>
      <point x="482" y="-250"/>
      <point x="643" y="-115"/>
      <point x="673" y="9" type="qcurve" smooth="yes"/>
      <point x="701" y="120" type="line"/>
      <point x="635" y="54"/>
      <point x="476" y="-5"/>
      <point x="394" y="-5" type="qcurve" smooth="yes"/>
      <point x="281" y="-5"/>
      <point x="133" y="91"/>
      <point x="60" y="258"/>
      <point x="60" y="364" type="qcurve" smooth="yes"/>
      <point x="60" y="460"/>
      <point x="121" y="676"/>
      <point x="184" y="773" type="qcurve" smooth="yes"/>
      <point x="230" y="845"/>
      <point x="357" y="956"/>
      <point x="512" y="1020"/>
      <point x="602" y="1020" type="qcurve" smooth="yes"/>
      <point x="688" y="1020"/>
      <point x="831" y="950"/>
      <point x="870" y="880" type="qcurve"/>
      <point x="901" y="999" type="line"/>
      <point x="1117" y="999" type="line"/>
      <point x="883" y="-9" type="line"/>
      <point x="836" y="-215"/>
      <point x="553" y="-437"/>
    </contour>
    <contour>
      <point x="465" y="191" type="qcurve" smooth="yes"/>
      <point x="556" y="191"/>
      <point x="695" y="281"/>
      <point x="788" y="432"/>
      <point x="810" y="527" type="qcurve" smooth="yes"/>
      <point x="823" y="586"/>
      <point x="823" y="632" type="qcurve" smooth="yes"/>
      <point x="823" y="689"/>
      <point x="785" y="776"/>
      <point x="703" y="826"/>
      <point x="637" y="826" type="qcurve" smooth="yes"/>
      <point x="546" y="826"/>
      <point x="404" y="733"/>
      <point x="310" y="580"/>
      <point x="289" y="487" type="qcurve" smooth="yes"/>
      <point x="276" y="429"/>
      <point x="276" y="385" type="qcurve" smooth="yes"/>
      <point x="276" y="329"/>
      <point x="315" y="241"/>
      <point x="398" y="191"/>
    </contour>
  </outline>
</glyph>
<glyph name="Hbar" format="2">
  <advance width="1482"/>
  <unicode hex="0126"/>
  <outline>
    <contour>
      <point x="1175" y="0" type="line"/>
      <point x="950" y="0" type="line"/>
      <point x="1089" y="606" type="line"/>
      <point x="441" y="606" type="line"/>
      <point x="302" y="0" type="line"/>
      <point x="78" y="0" type="line"/>
      <point x="320" y="1051" type="line"/>
      <point x="213" y="1051" type="line"/>
      <point x="242" y="1178" type="line"/>
      <point x="349" y="1178" type="line"/>
      <point x="403" y="1413" type="line"/>
      <point x="628" y="1413" type="line"/>
      <point x="573" y="1178" type="line"/>
      <point x="1222" y="1178" type="line"/>
      <point x="1276" y="1413" type="line"/>
      <point x="1500" y="1413" type="line"/>
      <point x="1446" y="1178" type="line"/>
      <point x="1551" y="1178" type="line"/>
      <point x="1522" y="1051" type="line"/>
      <point x="1417" y="1051" type="line"/>
    </contour>
    <contour>
      <point x="1136" y="808" type="line"/>
      <point x="1192" y="1051" type="line"/>
      <point x="544" y="1051" type="line"/>
      <point x="487" y="808" type="line"/>
    </contour>
  </outline>
</glyph>
<glyph name="hbar" format="2">
  <advance width="1154"/>
  <unicode hex="0127"/>
  <outline>
    <contour>
      <point x="914" y="0" type="line"/>
      <point x="696" y="0" type="line"/>
      <point x="831" y="586" type="line" smooth="yes"/>
      <point x="846" y="651"/>
      <point x="846" y="693" type="qcurve" smooth="yes"/>
      <point x="846" y="816"/>
      <point x="722" y="816" type="qcurve" smooth="yes"/>
      <point x="642" y="816"/>
      <point x="497" y="732"/>
      <point x="395" y="606"/>
      <point x="379" y="538" type="qcurve" smooth="yes"/>
      <point x="255" y="0" type="line"/>
      <point x="39" y="0" type="line"/>
      <point x="296" y="1115" type="line"/>
      <point x="140" y="1115" type="line"/>
      <point x="173" y="1264" type="line"/>
      <point x="331" y="1264" type="line"/>
      <point x="365" y="1413" type="line"/>
      <point x="581" y="1413" type="line"/>
      <point x="545" y="1264" type="line"/>
      <point x="808" y="1264" type="line"/>
      <point x="774" y="1115" type="line"/>
      <point x="510" y="1115" type="line"/>
      <point x="453" y="876" type="line"/>
      <point x="527" y="951"/>
      <point x="698" y="1016"/>
      <point x="777" y="1016" type="qcurve" smooth="yes"/>
      <point x="924" y="1016"/>
      <point x="1066" y="853"/>
      <point x="1066" y="723" type="qcurve" smooth="yes"/>
      <point x="1066" y="661"/>
      <point x="1051" y="596" type="qcurve" smooth="yes"/>
    </contour>
  </outline>
</glyph>
<glyph name="iogonek" format="2">
  <advance width="513"/>
  <unicode hex="012F"/>
  <outline>
    <contour>
      <point x="532" y="1198" type="line"/>
      <point x="302" y="1198" type="line"/>
      <point x="351" y="1413" type="line"/>
      <point x="581" y="1413" type="line"/>
    </contour>
    <contour>
      <point x="19" y="-451" type="qcurve" smooth="yes"/>
      <point x="-64" y="-451"/>
      <point x="-167" y="-359"/>
      <point x="-167" y="-281" type="qcurve" smooth="yes"/>
      <point x="-167" y="-227"/>
      <point x="-120" y="-123"/>
      <point x="-71" y="-82" type="qcurve" smooth="yes"/>
      <point x="-3" y="-25"/>
      <point x="56" y="0" type="qcurve"/>
      <point x="41" y="0" type="line"/>
      <point x="270" y="999" type="line"/>
      <point x="472" y="999" type="line"/>
      <point x="242" y="0" type="line"/>
      <point x="167" y="0" type="line"/>
      <point x="243" y="-3" type="line"/>
      <point x="216" y="-12"/>
      <point x="102" y="-70"/>
      <point x="44" y="-121" type="qcurve" smooth="yes"/>
      <point x="9" y="-153"/>
      <point x="-33" y="-232"/>
      <point x="-33" y="-266" type="qcurve" smooth="yes"/>
      <point x="-33" y="-312"/>
      <point x="19" y="-312" type="qcurve" smooth="yes"/>
      <point x="89" y="-312"/>
      <point x="152" y="-246" type="qcurve"/>
      <point x="251" y="-339" type="line"/>
      <point x="153" y="-451"/>
    </contour>
  </outline>
</glyph>
<glyph name="dotlessi" format="2">
  <advance width="513"/>
  <unicode hex="0131"/>
  <outline>
    <contour>
      <point x="242" y="0" type="line"/>
      <point x="41" y="0" type="line"/>
      <point x="270" y="999" type="line"/>
      <point x="472" y="999" type="line"/>
    </contour>
  </outline>
</glyph>
<glyph name="Lcaron" format="2">
  <advance width="1055"/>
  <unicode hex="013D"/>
  <outline>
    <contour>
      <point x="905" y="0" type="line"/>
      <point x="77" y="0" type="line"/>
      <point x="402" y="1413" type="line"/>
      <point x="627" y="1413" type="line"/>
      <point x="349" y="210" type="line"/>
      <point x="953" y="210" type="line"/>
    </contour>
    <contour>
      <point x="893" y="977" type="line"/>
      <point x="757" y="977" type="line"/>
      <point x="968" y="1413" type="line"/>
      <point x="1214" y="1413" type="line"/>
    </contour>
  </outline>
</glyph>
<glyph name="oe" format="2">
  <advance width="1816"/>
  <unicode hex="0153"/>
  <outline>
    <contour>
      <point x="455" y="-20" type="qcurve" smooth="yes"/>
      <point x="326" y="-20"/>
      <point x="145" y="85"/>
      <point x="51" y="265"/>
      <point x="51" y="379" type="qcurve" smooth="yes"/>
      <point x="51" y="560"/>
      <point x="242" y="861"/>
      <point x="397" y="945" type="qcurve" smooth="yes"/>
      <point x="523" y="1012"/>
      <point x="667" y="1012" type="qcurve" smooth="yes"/>
      <point x="794" y="1012"/>
      <point x="962" y="909"/>
      <point x="1003" y="829" type="qcurve"/>
      <point x="1164" y="1012"/>
      <point x="1392" y="1012" type="qcurve" smooth="yes"/>
      <point x="1521" y="1012"/>
      <point x="1683" y="913"/>
      <point x="1759" y="743"/>
      <point x="1759" y="638" type="qcurve" smooth="yes"/>
      <point x="1759" y="525"/>
      <point x="1721" y="418" type="qcurve"/>
      <point x="1031" y="418" type="line"/>
      <point x="1028" y="396"/>
      <point x="1028" y="374" type="qcurve" smooth="yes"/>
      <point x="1028" y="293"/>
      <point x="1124" y="191"/>
      <point x="1228" y="191" type="qcurve" smooth="yes"/>
      <point x="1395" y="191"/>
      <point x="1524" y="305" type="qcurve"/>
      <point x="1653" y="158" type="line"/>
      <point x="1554" y="73"/>
      <point x="1335" y="-12"/>
      <point x="1209" y="-12" type="qcurve" smooth="yes"/>
      <point x="1120" y="-12"/>
      <point x="985" y="36"/>
      <point x="893" y="116"/>
      <point x="868" y="167" type="qcurve"/>
      <point x="694" y="-20"/>
    </contour>
    <contour>
      <point x="468" y="165" type="qcurve" smooth="yes"/>
      <point x="612" y="165"/>
      <point x="799" y="361"/>
      <point x="835" y="516" type="qcurve"/>
      <point x="850" y="576"/>
      <point x="850" y="629" type="qcurve" smooth="yes"/>
      <point x="850" y="718"/>
      <point x="757" y="825"/>
      <point x="651" y="825" type="qcurve" smooth="yes"/>
      <point x="507" y="825"/>
      <point x="319" y="629"/>
      <point x="284" y="474" type="qcurve"/>
      <point x="269" y="414"/>
      <point x="269" y="361" type="qcurve" smooth="yes"/>
      <point x="269" y="273"/>
      <point x="362" y="165"/>
    </contour>
    <contour>
      <point x="1554" y="579" type="line"/>
      <point x="1559" y="617"/>
      <point x="1559" y="644" type="qcurve" smooth="yes"/>
      <point x="1559" y="740"/>
      <point x="1466" y="825"/>
      <point x="1375" y="825" type="qcurve" smooth="yes"/>
      <point x="1299" y="825"/>
      <point x="1180" y="759"/>
      <point x="1094" y="648"/>
      <point x="1070" y="579" type="qcurve"/>
    </contour>
  </outline>
</glyph>
<glyph name="Scedilla" format="2">
  <advance width="1130"/>
  <unicode hex="015E"/>
  <outline>
    <contour>
      <point x="301" y="-517" type="qcurve" smooth="yes"/>
      <point x="232" y="-517"/>
      <point x="141" y="-437"/>
      <point x="129" y="-380" type="qcurve"/>
      <point x="259" y="-343" type="line"/>
      <point x="260" y="-366"/>
      <point x="289" y="-389"/>
      <point x="311" y="-389" type="qcurve" smooth="yes"/>
      <point x="356" y="-389"/>
      <point x="389" y="-359" type="qcurve" smooth="yes"/>
      <point x="429" y="-323"/>
      <point x="436" y="-270" type="qcurve"/>
      <point x="436" y="-237"/>
      <point x="364" y="-190"/>
      <point x="294" y="-190" type="qcurve" smooth="yes"/>
      <point x="225" y="-190" type="line"/>
      <point x="377" y="-2" type="line"/>
      <point x="282" y="18"/>
      <point x="127" y="119"/>
      <point x="34" y="283"/>
      <point x="34" y="397" type="qcurve"/>
      <point x="262" y="436" type="line"/>
      <point x="262" y="353"/>
      <point x="331" y="244"/>
      <point x="454" y="190"/>
      <point x="534" y="190" type="qcurve" smooth="yes"/>
      <point x="664" y="190"/>
      <point x="815" y="318"/>
      <point x="815" y="418" type="qcurve" smooth="yes"/>
      <point x="815" y="485"/>
      <point x="749" y="580"/>
      <point x="651" y="643"/>
      <point x="568" y="685" type="qcurve" smooth="yes"/>
      <point x="470" y="733"/>
      <point x="352" y="818"/>
      <point x="314" y="878" type="qcurve" smooth="yes"/>
      <point x="273" y="942"/>
      <point x="273" y="1037" type="qcurve" smooth="yes"/>
      <point x="273" y="1157"/>
      <point x="399" y="1336"/>
      <point x="609" y="1434"/>
      <point x="735" y="1434" type="qcurve" smooth="yes"/>
      <point x="877" y="1434"/>
      <point x="1104" y="1309"/>
      <point x="1149" y="1185" type="qcurve"/>
      <point x="958" y="1093" type="line"/>
      <point x="935" y="1167"/>
      <point x="810" y="1244"/>
      <point x="733" y="1244" type="qcurve" smooth="yes"/>
      <point x="673" y="1244"/>
      <point x="567" y="1197"/>
      <point x="501" y="1110"/>
      <point x="501" y="1052" type="qcurve" smooth="yes"/>
      <point x="501" y="998"/>
      <point x="560" y="917"/>
      <point x="649" y="860"/>
      <point x="728" y="819" type="qcurve" smooth="yes"/>
      <point x="831" y="767"/>
      <point x="957" y="673"/>
      <point x="999" y="607" type="qcurve"/>
      <point x="1043" y="535"/>
      <point x="1043" y="433" type="qcurve" smooth="yes"/>
      <point x="1043" y="297"/>
      <point x="896" y="95"/>
      <point x="654" y="-16"/>
      <point x="504" y="-16" type="qcurve"/>
      <point x="411" y="-107" type="line"/>
      <point x="489" y="-116"/>
      <point x="565" y="-201"/>
      <point x="565" y="-263" type="qcurve" smooth="yes"/>
      <point x="565" y="-328"/>
      <point x="495" y="-444"/>
      <point x="375" y="-517"/>
    </contour>
  </outline>
</glyph>
<glyph name="scedilla" format="2">
  <advance width="898"/>
  <unicode hex="015F"/>
  <outline>
    <contour>
      <point x="229" y="-517" type="qcurve" smooth="yes"/>
      <point x="160" y="-517"/>
      <point x="69" y="-437"/>
      <point x="57" y="-380" type="qcurve"/>
      <point x="187" y="-343" type="line"/>
      <point x="188" y="-366"/>
      <point x="217" y="-389"/>
      <point x="239" y="-389" type="qcurve" smooth="yes"/>
      <point x="284" y="-389"/>
      <point x="317" y="-359" type="qcurve" smooth="yes"/>
      <point x="357" y="-323"/>
      <point x="364" y="-270" type="qcurve"/>
      <point x="364" y="-237"/>
      <point x="292" y="-190"/>
      <point x="222" y="-190" type="qcurve" smooth="yes"/>
      <point x="153" y="-190" type="line"/>
      <point x="295" y="-14" type="line"/>
      <point x="157" y="10"/>
      <point x="4" y="163"/>
      <point x="-7" y="259" type="qcurve"/>
      <point x="176" y="320" type="line"/>
      <point x="181" y="277"/>
      <point x="229" y="205"/>
      <point x="314" y="161"/>
      <point x="375" y="161" type="qcurve" smooth="yes"/>
      <point x="437" y="161"/>
      <point x="526" y="207"/>
      <point x="574" y="279"/>
      <point x="574" y="317" type="qcurve" smooth="yes"/>
      <point x="574" y="385"/>
      <point x="497" y="416" type="qcurve" smooth="yes"/>
      <point x="463" y="430"/>
      <point x="403" y="448" type="qcurve" smooth="yes"/>
      <point x="320" y="472"/>
      <point x="270" y="498" type="qcurve" smooth="yes"/>
      <point x="150" y="559"/>
      <point x="150" y="698" type="qcurve" smooth="yes"/>
      <point x="150" y="797"/>
      <point x="254" y="939"/>
      <point x="428" y="1014"/>
      <point x="532" y="1014" type="qcurve" smooth="yes"/>
      <point x="663" y="1014"/>
      <point x="853" y="900"/>
      <point x="888" y="799" type="qcurve"/>
      <point x="709" y="726" type="line"/>
      <point x="693" y="780"/>
      <point x="601" y="846"/>
      <point x="524" y="846" type="qcurve" smooth="yes"/>
      <point x="453" y="846"/>
      <point x="358" y="782"/>
      <point x="358" y="725" type="qcurve" smooth="yes"/>
      <point x="358" y="661"/>
      <point x="435" y="629" type="qcurve"/>
      <point x="468" y="614"/>
      <point x="526" y="595" type="qcurve" smooth="yes"/>
      <point x="611" y="568"/>
      <point x="663" y="541" type="qcurve" smooth="yes"/>
      <point x="787" y="476"/>
      <point x="787" y="331" type="qcurve" smooth="yes"/>
      <point x="787" y="239"/>
      <point x="691" y="90"/>
      <point x="531" y="-4"/>
      <point x="431" y="-16" type="qcurve"/>
      <point x="339" y="-107" type="line"/>
      <point x="417" y="-116"/>
      <point x="493" y="-201"/>
      <point x="493" y="-263" type="qcurve" smooth="yes"/>
      <point x="493" y="-328"/>
      <point x="423" y="-444"/>
      <point x="303" y="-517"/>
    </contour>
  </outline>
</glyph>
<glyph name="tcedilla" format="2">
  <advance width="733"/>
  <unicode hex="0163"/>
  <outline>
    <contour>
      <point x="220" y="-517" type="qcurve" smooth="yes"/>
      <point x="151" y="-517"/>
      <point x="60" y="-437"/>
      <point x="48" y="-380" type="qcurve"/>
      <point x="178" y="-343" type="line"/>
      <point x="179" y="-366"/>
      <point x="208" y="-389"/>
      <point x="230" y="-389" type="qcurve" smooth="yes"/>
      <point x="275" y="-389"/>
      <point x="308" y="-359" type="qcurve" smooth="yes"/>
      <point x="348" y="-323"/>
      <point x="355" y="-270" type="qcurve"/>
      <point x="355" y="-237"/>
      <point x="283" y="-190"/>
      <point x="213" y="-190" type="qcurve" smooth="yes"/>
      <point x="144" y="-190" type="line"/>
      <point x="289" y="-10" type="line"/>
      <point x="210" y="10"/>
      <point x="131" y="117"/>
      <point x="131" y="195" type="qcurve" smooth="yes"/>
      <point x="131" y="233"/>
      <point x="142" y="282" type="qcurve" smooth="yes"/>
      <point x="266" y="820" type="line"/>
      <point x="106" y="820" type="line"/>
      <point x="147" y="999" type="line"/>
      <point x="310" y="999" type="line"/>
      <point x="364" y="1240" type="line"/>
      <point x="607" y="1403" type="line"/>
      <point x="515" y="999" type="line"/>
      <point x="773" y="999" type="line"/>
      <point x="732" y="820" type="line"/>
      <point x="474" y="820" type="line"/>
      <point x="351" y="293" type="line" smooth="yes"/>
      <point x="345" y="266"/>
      <point x="345" y="245" type="qcurve" smooth="yes"/>
      <point x="345" y="166"/>
      <point x="433" y="166" type="qcurve" smooth="yes"/>
      <point x="496" y="166"/>
      <point x="575" y="203" type="qcurve"/>
      <point x="541" y="4" type="line"/>
      <point x="494" y="-13"/>
      <point x="420" y="-18" type="qcurve"/>
      <point x="330" y="-107" type="line"/>
      <point x="408" y="-116"/>
      <point x="484" y="-201"/>
      <point x="484" y="-263" type="qcurve" smooth="yes"/>
      <point x="484" y="-328"/>
      <point x="414" y="-444"/>
      <point x="294" y="-517"/>
    </contour>
  </outline>
</glyph>
<glyph name="tcaron" format="2">
  <advance width="733"/>
  <unicode hex="0165"/>
  <outline>
    <contour>
      <point x="791" y="1132" type="line"/>
      <point x="660" y="1132" type="line"/>
      <point x="889" y="1561" type="line"/>
      <point x="1129" y="1561" type="line"/>
    </contour>
    <contour>
      <point x="362" y="-20" type="qcurve" smooth="yes"/>
      <point x="280" y="-20"/>
      <point x="179" y="33"/>
      <point x="131" y="127"/>
      <point x="131" y="189" type="qcurve" smooth="yes"/>
      <point x="131" y="232"/>
      <point x="142" y="282" type="qcurve" smooth="yes"/>
      <point x="263" y="808" type="line"/>
      <point x="103" y="808" type="line"/>
      <point x="147" y="999" type="line"/>
      <point x="310" y="999" type="line"/>
      <point x="364" y="1240" type="line"/>
      <point x="607" y="1403" type="line"/>
      <point x="515" y="999" type="line"/>
      <point x="773" y="999" type="line"/>
      <point x="729" y="808" type="line"/>
      <point x="471" y="808" type="line"/>
      <point x="345" y="262" type="line"/>
      <point x="340" y="243"/>
      <point x="340" y="223" type="qcurve" smooth="yes"/>
      <point x="340" y="193"/>
      <point x="375" y="169"/>
      <point x="408" y="169" type="qcurve" smooth="yes"/>
      <point x="480" y="169"/>
      <point x="577" y="203"/>
      <point x="577" y="204" type="qcurve"/>
      <point x="539" y="16" type="line"/>
      <point x="539" y="15"/>
      <point x="495" y="-3"/>
      <point x="415" y="-20"/>
    </contour>
  </outline>
</glyph>
<glyph name="Tbar" format="2">
  <advance width="1201"/>
  <unicode hex="0166"/>
  <outline>
    <contour>
      <point x="598" y="0" type="line"/>
      <point x="373" y="0" type="line"/>
      <point x="519" y="633" type="line"/>
      <point x="315" y="633" type="line"/>
      <point x="348" y="782" type="line"/>
      <point x="553" y="782" type="line"/>
      <point x="653" y="1216" type="line"/>
      <point x="200" y="1216" type="line"/>
      <point x="246" y="1413" type="line"/>
      <point x="1377" y="1413" type="line"/>
      <point x="1331" y="1216" type="line"/>
      <point x="878" y="1216" type="line"/>
      <point x="778" y="782" type="line"/>
      <point x="983" y="782" type="line"/>
      <point x="949" y="633" type="line"/>
      <point x="744" y="633" type="line"/>
    </contour>
  </outline>
</glyph>
<glyph name="longs" format="2">
  <advance width="688"/>
  <unicode hex="017F"/>
  <outline>
    <contour>
      <point x="312" y="0" type="line"/>
      <point x="93" y="0" type="line"/>
      <point x="281" y="820" type="line"/>
      <point x="99" y="820" type="line"/>
      <point x="140" y="997" type="line"/>
      <point x="324" y="997" type="line"/>
      <point x="361" y="1158" type="line"/>
      <point x="395" y="1297"/>
      <point x="581" y="1434"/>
      <point x="718" y="1434" type="qcurve" smooth="yes"/>
      <point x="803" y="1434"/>
      <point x="889" y="1390" type="qcurve"/>
      <point x="788" y="1228" type="line"/>
      <point x="747" y="1251"/>
      <point x="702" y="1251" type="qcurve" smooth="yes"/>
      <point x="658" y="1251"/>
      <point x="588" y="1193"/>
      <point x="574" y="1135" type="qcurve" smooth="yes"/>
    </contour>
  </outline>
</glyph>
<glyph name="aemacron" format="2">
  <advance width="1694"/>
  <unicode hex="01E3"/>
  <outline>
    <contour>
      <point x="1278" y="1162" type="line"/>
      <point x="727" y="1162" type="line"/>
      <point x="758" y="1297" type="line"/>
      <point x="1309" y="1297" type="line"/>
    </contour>
    <contour>
      <point x="322" y="-20" type="qcurve" smooth="yes"/>
      <point x="181" y="-20"/>
      <point x="20" y="118"/>
      <point x="20" y="231" type="qcurve" smooth="yes"/>
      <point x="20" y="268"/>
      <point x="29" y="308" type="qcurve" smooth="yes"/>
      <point x="93" y="589"/>
      <point x="476" y="589" type="qcurve"/>
      <point x="767" y="590" type="line"/>
      <point x="780" y="650"/>
      <point x="780" y="688" type="qcurve" smooth="yes"/>
      <point x="780" y="836"/>
      <point x="625" y="836" type="qcurve" smooth="yes"/>
      <point x="617" y="836" type="line" smooth="yes"/>
      <point x="453" y="836"/>
      <point x="320" y="694" type="qcurve"/>
      <point x="187" y="819" type="line"/>
      <point x="372" y="1016"/>
      <point x="624" y="1016" type="qcurve" smooth="yes"/>
      <point x="749" y="1016"/>
      <point x="898" y="924"/>
      <point x="928" y="844" type="qcurve"/>
      <point x="1010" y="933"/>
      <point x="1188" y="1012"/>
      <point x="1298" y="1012" type="qcurve" smooth="yes"/>
      <point x="1488" y="1012"/>
      <point x="1637" y="823"/>
      <point x="1637" y="669" type="qcurve" smooth="yes"/>
      <point x="1637" y="588"/>
      <point x="1618" y="472" type="qcurve" smooth="yes"/>
      <point x="1617" y="465"/>
      <point x="1614" y="454"/>
      <point x="1601" y="428" type="qcurve"/>
      <point x="908" y="428" type="line"/>
      <point x="904" y="390"/>
      <point x="904" y="374" type="qcurve" smooth="yes"/>
      <point x="904" y="185"/>
      <point x="1107" y="185" type="qcurve" smooth="yes"/>
      <point x="1277" y="185"/>
      <point x="1390" y="289" type="qcurve"/>
      <point x="1516" y="147" type="line"/>
      <point x="1330" y="-12"/>
      <point x="1089" y="-12" type="qcurve" smooth="yes"/>
      <point x="823" y="-12"/>
      <point x="761" y="188" type="qcurve"/>
      <point x="678" y="93"/>
      <point x="453" y="-20"/>
    </contour>
    <contour>
      <point x="948" y="587" type="qcurve"/>
      <point x="1440" y="590" type="line"/>
      <point x="1445" y="627"/>
      <point x="1445" y="652" type="qcurve" smooth="yes"/>
      <point x="1445" y="829"/>
      <point x="1262" y="829" type="qcurve" smooth="yes"/>
      <point x="1144" y="829"/>
      <point x="987" y="691"/>
    </contour>
    <contour>
      <point x="355" y="158" type="qcurve" smooth="yes"/>
      <point x="445" y="158"/>
      <point x="599" y="241"/>
      <point x="708" y="365"/>
      <point x="731" y="431" type="qcurve"/>
      <point x="465" y="429" type="line"/>
      <point x="372" y="429"/>
      <point x="240" y="334"/>
      <point x="226" y="269" type="qcurve"/>
      <point x="224" y="248" type="line"/>
      <point x="224" y="203"/>
      <point x="301" y="158"/>
    </contour>
  </outline>
</glyph>
<glyph name="oogonek" format="2">
  <advance width="1127"/>
  <unicode hex="01EB"/>
  <outline>
    <contour>
      <point x="370" y="-451" type="qcurve" smooth="yes"/>
      <point x="287" y="-451"/>
      <point x="184" y="-359"/>
      <point x="184" y="-281" type="qcurve" smooth="yes"/>
      <point x="184" y="-233"/>
      <point x="222" y="-139"/>
      <point x="262" y="-99" type="qcurve" smooth="yes"/>
      <point x="316" y="-46"/>
      <point x="377" y="-14" type="qcurve"/>
      <point x="216" y="12"/>
      <point x="51" y="229"/>
      <point x="51" y="379" type="qcurve" smooth="yes"/>
      <point x="51" y="560"/>
      <point x="244" y="862"/>
      <point x="399" y="946" type="qcurve"/>
      <point x="525" y="1012"/>
      <point x="668" y="1012" type="qcurve" smooth="yes"/>
      <point x="799" y="1012"/>
      <point x="980" y="906"/>
      <point x="1073" y="725"/>
      <point x="1073" y="612" type="qcurve" smooth="yes"/>
      <point x="1073" y="463"/>
      <point x="942" y="207"/>
      <point x="725" y="30"/>
      <point x="591" y="-4" type="qcurve"/>
      <point x="555" y="-16"/>
      <point x="441" y="-78"/>
      <point x="340" y="-174"/>
      <point x="322" y="-238" type="qcurve" smooth="yes"/>
      <point x="318" y="-253"/>
      <point x="318" y="-266" type="qcurve" smooth="yes"/>
      <point x="318" y="-312"/>
      <point x="370" y="-312" type="qcurve" smooth="yes"/>
      <point x="440" y="-312"/>
      <point x="503" y="-246" type="qcurve"/>
      <point x="602" y="-339" type="line"/>
      <point x="504" y="-451"/>
    </contour>
    <contour>
      <point x="474" y="166" type="qcurve" smooth="yes"/>
      <point x="574" y="166"/>
      <point x="722" y="261"/>
      <point x="817" y="419"/>
      <point x="840" y="516" type="qcurve" smooth="yes"/>
      <point x="853" y="569"/>
      <point x="853" y="623" type="qcurve" smooth="yes"/>
      <point x="853" y="713"/>
      <point x="758" y="825"/>
      <point x="650" y="825" type="qcurve" smooth="yes"/>
      <point x="552" y="825"/>
      <point x="404" y="731"/>
      <point x="306" y="573"/>
      <point x="284" y="476" type="qcurve"/>
      <point x="271" y="423"/>
      <point x="271" y="369" type="qcurve" smooth="yes"/>
      <point x="271" y="279"/>
      <point x="366" y="166"/>
    </contour>
  </outline>
</glyph>
<glyph name="ereversed" format="2">
  <advance width="1050"/>
  <unicode hex="0258"/>
  <outline>
    <contour>
      <point x="395" y="-12" type="qcurve" smooth="yes"/>
      <point x="263" y="-12"/>
      <point x="82" y="75"/>
      <point x="20" y="162" type="qcurve"/>
      <point x="186" y="275" type="line"/>
      <point x="223" y="224"/>
      <point x="329" y="185"/>
      <point x="418" y="185" type="qcurve" smooth="yes"/>
      <point x="500" y="185"/>
      <point x="631" y="251"/>
      <point x="721" y="365"/>
      <point x="744" y="438" type="qcurve"/>
      <point x="57" y="438" type="line"/>
      <point x="57" y="473"/>
      <point x="66" y="511" type="qcurve" smooth="yes"/>
      <point x="116" y="729"/>
      <point x="385" y="1012"/>
      <point x="624" y="1012" type="qcurve" smooth="yes"/>
      <point x="751" y="1012"/>
      <point x="917" y="912"/>
      <point x="999" y="739"/>
      <point x="999" y="629" type="qcurve" smooth="yes"/>
      <point x="999" y="536"/>
      <point x="937" y="326"/>
      <point x="870" y="231" type="qcurve" smooth="yes"/>
      <point x="820" y="160"/>
      <point x="679" y="51"/>
      <point x="501" y="-12"/>
    </contour>
    <contour>
      <point x="291" y="580" type="qcurve"/>
      <point x="783" y="598" type="line"/>
      <point x="785" y="613"/>
      <point x="785" y="643" type="qcurve" smooth="yes"/>
      <point x="785" y="829"/>
      <point x="607" y="829" type="qcurve" smooth="yes"/>
      <point x="482" y="829"/>
      <point x="324" y="691"/>
    </contour>
  </outline>
</glyph>
<glyph name="colontriangularhalfmod" format="2">
  <advance width="548"/>
  <unicode hex="02D1"/>
  <outline>
    <contour>
      <point x="280" y="228" type="line"/>
      <point x="35" y="671" type="line"/>
      <point x="507" y="682" type="line"/>
    </contour>
  </outline>
</glyph>
<glyph name="uni02F6" format="2">
  <advance width="1106"/>
  <unicode hex="02F6"/>
  <outline>
    <contour>
      <point x="564" y="685" type="line"/>
      <point x="390" y="685" type="line"/>
      <point x="413" y="718" type="line"/>
      <point x="383" y="685" type="line"/>
      <point x="208" y="685" type="line"/>
      <point x="430" y="999" type="line"/>
      <point x="851" y="999" type="line"/>
    </contour>
  </outline>
</glyph>
<glyph name="gravecmb" format="2">
  <unicode hex="0300"/>
  <anchor x="-34" y="999" name="_t.ringcmb_1"/>
  <outline>
    <contour>
      <point x="95" y="1110" type="line"/>
      <point x="-71" y="1110" type="line"/>
      <point x="-293" y="1413" type="line"/>
      <point x="-58" y="1413" type="line"/>
    </contour>
  </outline>
</glyph>
<glyph name="brevecmb" format="2">
  <unicode hex="0306"/>
  <anchor x="-303" y="999" name="_t.ringcmb_1"/>
  <outline>
    <contour>
      <point x="-248" y="1143" type="qcurve" smooth="yes"/>
      <point x="-387" y="1143"/>
      <point x="-518" y="1251"/>
      <point x="-518" y="1340" type="qcurve" smooth="yes"/>
      <point x="-518" y="1374"/>
      <point x="-509" y="1413" type="qcurve"/>
      <point x="-353" y="1413" type="line"/>
      <point x="-358" y="1388"/>
      <point x="-358" y="1373" type="qcurve" smooth="yes"/>
      <point x="-358" y="1322"/>
      <point x="-294" y="1277"/>
      <point x="-243" y="1277" type="qcurve" smooth="yes"/>
      <point x="-174" y="1277"/>
      <point x="-61" y="1353"/>
      <point x="-45" y="1413" type="qcurve"/>
      <point x="112" y="1413" type="line"/>
      <point x="83" y="1280"/>
      <point x="-93" y="1143"/>
    </contour>
  </outline>
</glyph>
<glyph name="ringcmb" format="2">
  <unicode hex="030A"/>
  <anchor x="-205" y="999" name="_t.ringcmb_1"/>
  <outline>
    <contour>
      <point x="-171" y="1072" type="qcurve" smooth="yes"/>
      <point x="-258" y="1072"/>
      <point x="-358" y="1183"/>
      <point x="-358" y="1257" type="qcurve" smooth="yes"/>
      <point x="-358" y="1329"/>
      <point x="-282" y="1446"/>
      <point x="-163" y="1516"/>
      <point x="-97" y="1516" type="qcurve" smooth="yes"/>
      <point x="-13" y="1516"/>
      <point x="91" y="1408"/>
      <point x="91" y="1331" type="qcurve" smooth="yes"/>
      <point x="91" y="1258"/>
      <point x="14" y="1141"/>
      <point x="-106" y="1072"/>
    </contour>
    <contour>
      <point x="-155" y="1194" type="qcurve" smooth="yes"/>
      <point x="-101" y="1194"/>
      <point x="-32" y="1274"/>
      <point x="-32" y="1320" type="qcurve" smooth="yes"/>
      <point x="-32" y="1359"/>
      <point x="-78" y="1398"/>
      <point x="-113" y="1398" type="qcurve" smooth="yes"/>
      <point x="-170" y="1398"/>
      <point x="-234" y="1321"/>
      <point x="-234" y="1271" type="qcurve" smooth="yes"/>
      <point x="-234" y="1233"/>
      <point x="-191" y="1194"/>
    </contour>
  </outline>
</glyph>
<glyph name="hungarumlautcmb" format="2">
  <unicode hex="030B"/>
  <anchor x="-420" y="999" name="_t.ringcmb_1"/>
  <outline>
    <contour>
      <point x="-528" y="1095" type="line"/>
      <point x="-697" y="1095" type="line"/>
      <point x="-401" y="1413" type="line"/>
      <point x="-187" y="1413" type="line"/>
    </contour>
    <contour>
      <point x="-186" y="1095" type="line"/>
      <point x="-354" y="1095" type="line"/>
      <point x="-58" y="1413" type="line"/>
      <point x="185" y="1413" type="line"/>
    </contour>
  </outline>
</glyph>
<glyph name="uni0326" format="2">
  <unicode hex="0326"/>
  <anchor x="-291" y="0" name="_b.uni0326"/>
  <anchor x="-291" y="0" name="_b.uni0326_2"/>
  <anchor x="-455" y="-446" name="b.uni0326_2"/>
  <outline>
    <contour>
      <point x="-501" y="-455" type="line"/>
      <point x="-636" y="-455" type="line"/>
      <point x="-424" y="-108" type="line"/>
      <point x="-179" y="-108" type="line"/>
    </contour>
  </outline>
</glyph>
<glyph name="cedillacmb" format="2">
  <unicode hex="0327"/>
  <anchor x="-384" y="0" name="_b.uni0326"/>
  <anchor x="-384" y="0" name="_b.uni0326_2"/>
  <anchor x="-520" y="-500" name="b.uni0326_2"/>
  <outline>
    <contour>
      <point x="-523" y="-517" type="qcurve" smooth="yes"/>
      <point x="-592" y="-517"/>
      <point x="-683" y="-437"/>
      <point x="-695" y="-380" type="qcurve"/>
      <point x="-565" y="-343" type="line"/>
      <point x="-564" y="-366"/>
      <point x="-535" y="-389"/>
      <point x="-513" y="-389" type="qcurve" smooth="yes"/>
      <point x="-468" y="-389"/>
      <point x="-435" y="-359" type="qcurve" smooth="yes"/>
      <point x="-395" y="-323"/>
      <point x="-388" y="-270" type="qcurve"/>
      <point x="-388" y="-237"/>
      <point x="-460" y="-190"/>
      <point x="-530" y="-190" type="qcurve" smooth="yes"/>
      <point x="-599" y="-190" type="line"/>
      <point x="-447" y="-2" type="line"/>
      <point x="-306" y="-2" type="line"/>
      <point x="-413" y="-107" type="line"/>
      <point x="-335" y="-116"/>
      <point x="-259" y="-201"/>
      <point x="-259" y="-263" type="qcurve" smooth="yes"/>
      <point x="-259" y="-328"/>
      <point x="-329" y="-444"/>
      <point x="-449" y="-517"/>
    </contour>
  </outline>
</glyph>
<glyph name="afii10051" format="2">
  <advance width="1616"/>
  <unicode hex="0402"/>
  <outline>
    <contour>
      <point x="1001" y="-19" type="qcurve" smooth="yes"/>
      <point x="915" y="-19"/>
      <point x="752" y="58"/>
      <point x="703" y="113" type="qcurve"/>
      <point x="843" y="254" type="line"/>
      <point x="895" y="190"/>
      <point x="994" y="190" type="qcurve" smooth="yes"/>
      <point x="1106" y="190"/>
      <point x="1272" y="325"/>
      <point x="1302" y="446" type="qcurve"/>
      <point x="1322" y="534"/>
      <point x="1322" y="595" type="qcurve" smooth="yes"/>
      <point x="1322" y="696"/>
      <point x="1208" y="785"/>
      <point x="1090" y="785" type="qcurve" smooth="yes"/>
      <point x="984" y="785"/>
      <point x="809" y="706"/>
      <point x="750" y="651" type="qcurve"/>
      <point x="596" y="0" type="line"/>
      <point x="372" y="0" type="line"/>
      <point x="651" y="1215" type="line"/>
      <point x="198" y="1215" type="line"/>
      <point x="244" y="1412" type="line"/>
      <point x="1375" y="1412" type="line"/>
      <point x="1329" y="1215" type="line"/>
      <point x="876" y="1215" type="line"/>
      <point x="801" y="917" type="line"/>
      <point x="954" y="1001"/>
      <point x="1115" y="1001" type="qcurve" smooth="yes"/>
      <point x="1338" y="1001"/>
      <point x="1545" y="800"/>
      <point x="1545" y="619" type="qcurve" smooth="yes"/>
      <point x="1545" y="526"/>
      <point x="1520" y="419" type="qcurve" smooth="yes"/>
      <point x="1484" y="268"/>
      <point x="1333" y="74"/>
      <point x="1124" y="-19"/>
    </contour>
  </outline>
</glyph>
<glyph name="afii10053" format="2">
  <advance width="1431"/>
  <unicode hex="0404"/>
  <outline>
    <contour>
      <point x="657" y="-20" type="qcurve" smooth="yes"/>
      <point x="475" y="-20"/>
      <point x="237" y="114"/>
      <point x="121" y="351"/>
      <point x="121" y="504" type="qcurve" smooth="yes"/>
      <point x="121" y="650"/>
      <point x="215" y="955"/>
      <point x="302" y="1084" type="qcurve" smooth="yes"/>
      <point x="411" y="1245"/>
      <point x="750" y="1436"/>
      <point x="965" y="1436" type="qcurve" smooth="yes"/>
      <point x="1184" y="1436"/>
      <point x="1448" y="1219"/>
      <point x="1488" y="1030" type="qcurve"/>
      <point x="1267" y="965" type="line"/>
      <point x="1252" y="1224"/>
      <point x="940" y="1224" type="qcurve" smooth="yes"/>
      <point x="803" y="1224"/>
      <point x="586" y="1111"/>
      <point x="435" y="920"/>
      <point x="394" y="798" type="qcurve"/>
      <point x="981" y="807" type="line"/>
      <point x="936" y="610" type="line"/>
      <point x="347" y="601" type="line"/>
      <point x="343" y="566"/>
      <point x="343" y="525" type="qcurve" smooth="yes"/>
      <point x="343" y="368"/>
      <point x="507" y="191"/>
      <point x="680" y="191" type="qcurve" smooth="yes"/>
      <point x="833" y="191"/>
      <point x="1066" y="333"/>
      <point x="1151" y="472" type="qcurve"/>
      <point x="1340" y="369" type="line"/>
      <point x="1207" y="170"/>
      <point x="853" y="-20"/>
    </contour>
  </outline>
</glyph>
<glyph name="afii10055" format="2">
  <advance width="607"/>
  <unicode hex="0406"/>
  <outline>
    <contour>
      <point x="301" y="0" type="line"/>
      <point x="77" y="0" type="line"/>
      <point x="402" y="1412" type="line"/>
      <point x="627" y="1412" type="line"/>
    </contour>
  </outline>
</glyph>
<glyph name="afii10057" format="2">
  <advance width="1133"/>
  <unicode hex="0408"/>
  <outline>
    <contour>
      <point x="397" y="-20" type="qcurve" smooth="yes"/>
      <point x="272" y="-20"/>
      <point x="105" y="79"/>
      <point x="21" y="247"/>
      <point x="21" y="351" type="qcurve" smooth="yes"/>
      <point x="21" y="395"/>
      <point x="28" y="436" type="qcurve"/>
      <point x="249" y="444" type="line"/>
      <point x="242" y="400"/>
      <point x="242" y="371" type="qcurve" smooth="yes"/>
      <point x="242" y="288"/>
      <point x="325" y="185"/>
      <point x="419" y="185" type="qcurve" smooth="yes"/>
      <point x="561" y="185"/>
      <point x="710" y="350"/>
      <point x="745" y="509" type="qcurve"/>
      <point x="906" y="1209" type="line"/>
      <point x="373" y="1209" type="line"/>
      <point x="421" y="1412" type="line"/>
      <point x="1178" y="1412" type="line"/>
      <point x="966" y="497" type="line" smooth="yes"/>
      <point x="910" y="255"/>
      <point x="633" y="-20"/>
    </contour>
  </outline>
</glyph>
<glyph name="afii10058" format="2">
  <advance width="1957"/>
  <unicode hex="0409"/>
  <outline>
    <contour>
      <point x="108" y="-20" type="qcurve" smooth="yes"/>
      <point x="51" y="-20"/>
      <point x="-39" y="10"/>
      <point x="-84" y="40" type="qcurve"/>
      <point x="11" y="205" type="line"/>
      <point x="70" y="186"/>
      <point x="114" y="186" type="qcurve" smooth="yes"/>
      <point x="163" y="186"/>
      <point x="219" y="304" type="qcurve" smooth="yes"/>
      <point x="327" y="535"/>
      <point x="409" y="899" type="qcurve"/>
      <point x="527" y="1412" type="line"/>
      <point x="1421" y="1412" type="line"/>
      <point x="1282" y="810" type="line"/>
      <point x="1482" y="810" type="line" smooth="yes"/>
      <point x="1599" y="810"/>
      <point x="1782" y="739"/>
      <point x="1887" y="598"/>
      <point x="1887" y="493" type="qcurve" smooth="yes"/>
      <point x="1887" y="441"/>
      <point x="1874" y="388" type="qcurve" smooth="yes"/>
      <point x="1828" y="198"/>
      <point x="1517" y="0"/>
      <point x="1307" y="0" type="qcurve" smooth="yes"/>
      <point x="873" y="0" type="line"/>
      <point x="1151" y="1209" type="line"/>
      <point x="703" y="1209" type="line"/>
      <point x="628" y="882" type="line" smooth="yes"/>
      <point x="570" y="626"/>
      <point x="453" y="259"/>
      <point x="252" y="-20"/>
    </contour>
    <contour>
      <point x="1341" y="207" type="line" smooth="yes"/>
      <point x="1479" y="207"/>
      <point x="1639" y="326"/>
      <point x="1662" y="428" type="qcurve" smooth="yes"/>
      <point x="1668" y="454"/>
      <point x="1668" y="475" type="qcurve" smooth="yes"/>
      <point x="1668" y="541"/>
      <point x="1557" y="603"/>
      <point x="1445" y="603" type="qcurve" smooth="yes"/>
      <point x="1234" y="603" type="line"/>
      <point x="1142" y="207" type="line"/>
    </contour>
  </outline>
</glyph>
<glyph name="afii10060" format="2">
  <advance width="1637"/>
  <unicode hex="040B"/>
  <outline>
    <contour>
      <point x="1423" y="0" type="line"/>
      <point x="1199" y="0" type="line"/>
      <point x="1293" y="411" type="line"/>
      <point x="1318" y="514"/>
      <point x="1318" y="585" type="qcurve" smooth="yes"/>
      <point x="1318" y="690"/>
      <point x="1206" y="785"/>
      <point x="1090" y="785" type="qcurve" smooth="yes"/>
      <point x="984" y="785"/>
      <point x="809" y="706"/>
      <point x="750" y="651" type="qcurve"/>
      <point x="596" y="0" type="line"/>
      <point x="372" y="0" type="line"/>
      <point x="651" y="1215" type="line"/>
      <point x="198" y="1215" type="line"/>
      <point x="244" y="1412" type="line"/>
      <point x="1375" y="1412" type="line"/>
      <point x="1329" y="1215" type="line"/>
      <point x="876" y="1215" type="line"/>
      <point x="802" y="917" type="line"/>
      <point x="947" y="1001"/>
      <point x="1115" y="1001" type="qcurve" smooth="yes"/>
      <point x="1332" y="1001"/>
      <point x="1543" y="794"/>
      <point x="1543" y="609" type="qcurve" smooth="yes"/>
      <point x="1543" y="521"/>
      <point x="1518" y="410" type="qcurve" smooth="yes"/>
    </contour>
  </outline>
</glyph>
<glyph name="afii10061" format="2">
  <advance width="1324"/>
  <unicode hex="040C"/>
  <outline>
    <contour>
      <point x="933" y="1537" type="line"/>
      <point x="770" y="1537" type="line"/>
      <point x="1058" y="1825" type="line"/>
      <point x="1294" y="1825" type="line"/>
    </contour>
    <contour>
      <point x="1173" y="0" type="line"/>
      <point x="901" y="0" type="line"/>
      <point x="841" y="510" type="line" smooth="yes"/>
      <point x="834" y="573"/>
      <point x="765" y="676"/>
      <point x="695" y="676" type="qcurve" smooth="yes"/>
      <point x="456" y="676" type="line"/>
      <point x="302" y="0" type="line"/>
      <point x="78" y="0" type="line"/>
      <point x="403" y="1412" type="line"/>
      <point x="627" y="1412" type="line"/>
      <point x="504" y="882" type="line"/>
      <point x="657" y="882" type="line"/>
      <point x="1129" y="1412" type="line"/>
      <point x="1430" y="1412" type="line"/>
      <point x="867" y="828" type="line"/>
      <point x="920" y="828"/>
      <point x="998" y="747"/>
      <point x="1043" y="643"/>
      <point x="1051" y="596" type="qcurve"/>
    </contour>
  </outline>
</glyph>
<glyph name="afii10145" format="2">
  <advance width="1479"/>
  <unicode hex="040F"/>
  <outline>
    <contour>
      <point x="665" y="-307" type="line"/>
      <point x="441" y="-307" type="line"/>
      <point x="513" y="0" type="line"/>
      <point x="77" y="0" type="line"/>
      <point x="402" y="1412" type="line"/>
      <point x="626" y="1412" type="line"/>
      <point x="347" y="203" type="line"/>
      <point x="995" y="203" type="line"/>
      <point x="1275" y="1412" type="line"/>
      <point x="1499" y="1412" type="line"/>
      <point x="1173" y="0" type="line"/>
      <point x="737" y="0" type="line"/>
    </contour>
  </outline>
</glyph>
<glyph name="afii10024" format="2">
  <advance width="2049"/>
  <unicode hex="0416"/>
  <outline>
    <contour>
      <point x="1893" y="0" type="line"/>
      <point x="1621" y="0" type="line"/>
      <point x="1562" y="510" type="line"/>
      <point x="1553" y="577"/>
      <point x="1485" y="676"/>
      <point x="1416" y="676" type="qcurve" smooth="yes"/>
      <point x="1177" y="676" type="line"/>
      <point x="1022" y="0" type="line"/>
      <point x="798" y="0" type="line"/>
      <point x="953" y="676" type="line"/>
      <point x="729" y="676" type="line" smooth="yes"/>
      <point x="660" y="676"/>
      <point x="533" y="561"/>
      <point x="495" y="492" type="qcurve"/>
      <point x="202" y="0" type="line"/>
      <point x="-77" y="0" type="line"/>
      <point x="320" y="614" type="line" smooth="yes"/>
      <point x="371" y="693"/>
      <point x="524" y="828"/>
      <point x="603" y="828" type="qcurve"/>
      <point x="326" y="1412" type="line"/>
      <point x="617" y="1412" type="line"/>
      <point x="843" y="882" type="line"/>
      <point x="1000" y="882" type="line"/>
      <point x="1124" y="1412" type="line"/>
      <point x="1348" y="1412" type="line"/>
      <point x="1224" y="882" type="line"/>
      <point x="1377" y="882" type="line"/>
      <point x="1849" y="1412" type="line"/>
      <point x="2150" y="1412" type="line"/>
      <point x="1587" y="828" type="line"/>
      <point x="1642" y="828"/>
      <point x="1719" y="749"/>
      <point x="1763" y="642"/>
      <point x="1771" y="596" type="qcurve"/>
    </contour>
  </outline>
</glyph>
<glyph name="afii10027" format="2">
  <advance width="1481"/>
  <unicode hex="0419"/>
  <outline>
    <contour>
      <point x="1014" y="1555" type="qcurve" smooth="yes"/>
      <point x="878" y="1555"/>
      <point x="745" y="1663"/>
      <point x="745" y="1752" type="qcurve" smooth="yes"/>
      <point x="745" y="1782"/>
      <point x="755" y="1825" type="qcurve"/>
      <point x="907" y="1825" type="line"/>
      <point x="902" y="1800"/>
      <point x="902" y="1785" type="qcurve" smooth="yes"/>
      <point x="902" y="1733"/>
      <point x="969" y="1687"/>
      <point x="1020" y="1687" type="qcurve" smooth="yes"/>
      <point x="1092" y="1687"/>
      <point x="1204" y="1765"/>
      <point x="1221" y="1825" type="qcurve"/>
      <point x="1373" y="1825" type="line"/>
      <point x="1314" y="1555"/>
    </contour>
    <contour>
      <point x="1174" y="0" type="line"/>
      <point x="950" y="0" type="line"/>
      <point x="1196" y="1068"/>
      <point x="1207" y="1113" type="qcurve"/>
      <point x="345" y="0" type="line"/>
      <point x="78" y="0" type="line"/>
      <point x="403" y="1412" type="line"/>
      <point x="627" y="1412" type="line"/>
      <point x="386" y="366"/>
      <point x="368" y="294" type="qcurve"/>
      <point x="1233" y="1412" type="line"/>
      <point x="1500" y="1412" type="line"/>
    </contour>
  </outline>
</glyph>
<glyph name="afii10033" format="2">
  <advance width="1479"/>
  <unicode hex="041F"/>
  <outline>
    <contour>
      <point x="1173" y="0" type="line"/>
      <point x="949" y="0" type="line"/>
      <point x="1227" y="1209" type="line"/>
      <point x="579" y="1209" type="line"/>
      <point x="301" y="0" type="line"/>
      <point x="77" y="0" type="line"/>
      <point x="402" y="1412" type="line"/>
      <point x="1499" y="1412" type="line"/>
    </contour>
  </outline>
</glyph>
<glyph name="afii10034" format="2">
  <advance width="1162"/>
  <unicode hex="0420"/>
  <outline>
    <contour>
      <point x="300" y="0" type="line"/>
      <point x="77" y="0" type="line"/>
      <point x="402" y="1412" type="line"/>
      <point x="824" y="1412" type="line" smooth="yes"/>
      <point x="942" y="1412"/>
      <point x="1124" y="1339"/>
      <point x="1228" y="1196"/>
      <point x="1228" y="1090" type="qcurve" smooth="yes"/>
      <point x="1228" y="1037"/>
      <point x="1215" y="984" type="qcurve" smooth="yes"/>
      <point x="1170" y="796"/>
      <point x="862" y="602"/>
      <point x="650" y="602" type="qcurve" smooth="yes"/>
      <point x="438" y="602" type="line"/>
    </contour>
    <contour>
      <point x="685" y="809" type="line" smooth="yes"/>
      <point x="823" y="809"/>
      <point x="980" y="922"/>
      <point x="1003" y="1024" type="qcurve" smooth="yes"/>
      <point x="1009" y="1050"/>
      <point x="1009" y="1072" type="qcurve" smooth="yes"/>
      <point x="1009" y="1205"/>
      <point x="788" y="1205" type="qcurve" smooth="yes"/>
      <point x="577" y="1205" type="line"/>
      <point x="485" y="809" type="line"/>
    </contour>
  </outline>
</glyph>
<glyph name="afii10036" format="2">
  <advance width="1197"/>
  <unicode hex="0422"/>
  <outline>
    <contour>
      <point x="595" y="0" type="line"/>
      <point x="372" y="0" type="line"/>
      <point x="651" y="1215" type="line"/>
      <point x="198" y="1215" type="line"/>
      <point x="244" y="1412" type="line"/>
      <point x="1375" y="1412" type="line"/>
      <point x="1329" y="1215" type="line"/>
      <point x="875" y="1215" type="line"/>
    </contour>
  </outline>
</glyph>
<glyph name="afii10039" format="2">
  <advance width="1320"/>
  <unicode hex="0425"/>
  <outline>
    <contour>
      <point x="1161" y="0" type="line"/>
      <point x="900" y="0" type="line"/>
      <point x="675" y="549" type="line"/>
      <point x="196" y="0" type="line"/>
      <point x="-77" y="0" type="line"/>
      <point x="559" y="707" type="line"/>
      <point x="256" y="1413" type="line"/>
      <point x="519" y="1413" type="line"/>
      <point x="737" y="855" type="line"/>
      <point x="1220" y="1413" type="line"/>
      <point x="1490" y="1413" type="line"/>
      <point x="856" y="707" type="line"/>
    </contour>
  </outline>
</glyph>
<glyph name="afii10041" format="2">
  <advance width="1343"/>
  <unicode hex="0427"/>
  <outline>
    <contour>
      <point x="1036" y="0" type="line"/>
      <point x="812" y="0" type="line"/>
      <point x="930" y="495" type="line"/>
      <point x="785" y="410"/>
      <point x="616" y="410" type="qcurve" smooth="yes"/>
      <point x="400" y="410"/>
      <point x="190" y="615"/>
      <point x="190" y="799" type="qcurve" smooth="yes"/>
      <point x="190" y="891"/>
      <point x="216" y="1001" type="qcurve"/>
      <point x="310" y="1412" type="line"/>
      <point x="534" y="1412" type="line"/>
      <point x="438" y="1001" type="line" smooth="yes"/>
      <point x="415" y="900"/>
      <point x="415" y="827" type="qcurve" smooth="yes"/>
      <point x="415" y="721"/>
      <point x="526" y="626"/>
      <point x="641" y="626" type="qcurve" smooth="yes"/>
      <point x="748" y="626"/>
      <point x="922" y="705"/>
      <point x="983" y="761" type="qcurve"/>
      <point x="1137" y="1412" type="line"/>
      <point x="1361" y="1412" type="line"/>
    </contour>
  </outline>
</glyph>
<glyph name="afii10047" format="2">
  <advance width="1428"/>
  <unicode hex="042D"/>
  <outline>
    <contour>
      <point x="558" y="-20" type="qcurve" smooth="yes"/>
      <point x="345" y="-20"/>
      <point x="75" y="193"/>
      <point x="35" y="387" type="qcurve"/>
      <point x="255" y="454" type="line"/>
      <point x="275" y="319"/>
      <point x="431" y="191"/>
      <point x="581" y="191" type="qcurve" smooth="yes"/>
      <point x="718" y="191"/>
      <point x="933" y="302"/>
      <point x="1086" y="494"/>
      <point x="1130" y="619" type="qcurve"/>
      <point x="543" y="610" type="line"/>
      <point x="588" y="807" type="line"/>
      <point x="1178" y="816" type="line"/>
      <point x="1183" y="861"/>
      <point x="1183" y="895" type="qcurve" smooth="yes"/>
      <point x="1183" y="1047"/>
      <point x="1019" y="1224"/>
      <point x="849" y="1224" type="qcurve" smooth="yes"/>
      <point x="704" y="1224"/>
      <point x="453" y="1093"/>
      <point x="376" y="947" type="qcurve"/>
      <point x="186" y="1049" type="line"/>
      <point x="321" y="1249"/>
      <point x="675" y="1436"/>
      <point x="870" y="1436" type="qcurve" smooth="yes"/>
      <point x="1051" y="1436"/>
      <point x="1288" y="1301"/>
      <point x="1404" y="1063"/>
      <point x="1404" y="910" type="qcurve" smooth="yes"/>
      <point x="1404" y="770"/>
      <point x="1312" y="466"/>
      <point x="1222" y="331" type="qcurve"/>
      <point x="1112" y="170"/>
      <point x="773" y="-20"/>
    </contour>
  </outline>
</glyph>
<glyph name="afii10066" format="2">
  <advance width="1228"/>
  <unicode hex="0431"/>
  <outline>
    <contour>
      <point x="553" y="-20" type="qcurve" smooth="yes"/>
      <point x="360" y="-20"/>
      <point x="146" y="187"/>
      <point x="146" y="362" type="qcurve" smooth="yes"/>
      <point x="146" y="432"/>
      <point x="164" y="513" type="qcurve" smooth="yes"/>
      <point x="215" y="733" type="line" smooth="yes"/>
      <point x="263" y="943"/>
      <point x="439" y="1176"/>
      <point x="542" y="1248" type="qcurve"/>
      <point x="665" y="1316"/>
      <point x="958" y="1395"/>
      <point x="1165" y="1436" type="qcurve"/>
      <point x="1128" y="1222" type="line"/>
      <point x="916" y="1182"/>
      <point x="616" y="1073"/>
      <point x="557" y="1029" type="qcurve"/>
      <point x="466" y="965"/>
      <point x="418" y="786" type="qcurve"/>
      <point x="490" y="863"/>
      <point x="695" y="960"/>
      <point x="815" y="960" type="qcurve" smooth="yes"/>
      <point x="940" y="960"/>
      <point x="1098" y="872"/>
      <point x="1174" y="717"/>
      <point x="1174" y="617" type="qcurve" smooth="yes"/>
      <point x="1174" y="518"/>
      <point x="1108" y="314"/>
      <point x="1037" y="223" type="qcurve" smooth="yes"/>
      <point x="951" y="114"/>
      <point x="702" y="-20"/>
    </contour>
    <contour>
      <point x="570" y="163" type="qcurve" smooth="yes"/>
      <point x="662" y="163"/>
      <point x="809" y="251"/>
      <point x="908" y="400"/>
      <point x="929" y="494" type="qcurve" smooth="yes"/>
      <point x="941" y="547"/>
      <point x="941" y="591" type="qcurve" smooth="yes"/>
      <point x="941" y="776"/>
      <point x="737" y="776" type="qcurve" smooth="yes"/>
      <point x="645" y="776"/>
      <point x="497" y="680"/>
      <point x="398" y="534"/>
      <point x="380" y="454" type="qcurve" smooth="yes"/>
      <point x="367" y="396"/>
      <point x="367" y="352" type="qcurve" smooth="yes"/>
      <point x="367" y="266"/>
      <point x="463" y="163"/>
    </contour>
  </outline>
</glyph>
<glyph name="afii10073" format="2">
  <advance width="988"/>
  <unicode hex="0437"/>
  <outline>
    <contour>
      <point x="214" y="-447" type="qcurve" smooth="yes"/>
      <point x="86" y="-447"/>
      <point x="-120" y="-329"/>
      <point x="-165" y="-214" type="qcurve"/>
      <point x="37" y="-99" type="line"/>
      <point x="48" y="-176"/>
      <point x="159" y="-249"/>
      <point x="231" y="-249" type="qcurve" smooth="yes"/>
      <point x="356" y="-249"/>
      <point x="552" y="-104"/>
      <point x="586" y="30" type="qcurve"/>
      <point x="595" y="69"/>
      <point x="595" y="102" type="qcurve" smooth="yes"/>
      <point x="595" y="170"/>
      <point x="516" y="251"/>
      <point x="431" y="251" type="qcurve" smooth="yes"/>
      <point x="233" y="251" type="line"/>
      <point x="276" y="440" type="line"/>
      <point x="480" y="440" type="line"/>
      <point x="568" y="447"/>
      <point x="679" y="558"/>
      <point x="697" y="643" type="qcurve" smooth="yes"/>
      <point x="704" y="675"/>
      <point x="704" y="693" type="qcurve" smooth="yes"/>
      <point x="704" y="756"/>
      <point x="609" y="814"/>
      <point x="531" y="814" type="qcurve" smooth="yes"/>
      <point x="370" y="814"/>
      <point x="229" y="626" type="qcurve"/>
      <point x="51" y="740" type="line"/>
      <point x="143" y="879"/>
      <point x="383" y="1012"/>
      <point x="550" y="1012" type="qcurve" smooth="yes"/>
      <point x="653" y="1012"/>
      <point x="820" y="945"/>
      <point x="918" y="813"/>
      <point x="918" y="714" type="qcurve" smooth="yes"/>
      <point x="918" y="651"/>
      <point x="871" y="512"/>
      <point x="759" y="390"/>
      <point x="664" y="349" type="qcurve"/>
      <point x="813" y="293"/>
      <point x="813" y="109" type="qcurve" smooth="yes"/>
      <point x="813" y="21"/>
      <point x="748" y="-174"/>
      <point x="678" y="-254" type="qcurve"/>
      <point x="585" y="-354"/>
      <point x="343" y="-447"/>
    </contour>
  </outline>
</glyph>
<glyph name="afii10078" format="2">
  <advance width="1453"/>
  <unicode hex="043C"/>
  <outline>
    <contour>
      <point x="1182" y="0" type="line"/>
      <point x="983" y="0" type="line"/>
      <point x="1151" y="724" type="line"/>
      <point x="694" y="0" type="line"/>
      <point x="535" y="0" type="line"/>
      <point x="409" y="722" type="line"/>
      <point x="241" y="0" type="line"/>
      <point x="41" y="0" type="line"/>
      <point x="270" y="999" type="line"/>
      <point x="543" y="999" type="line"/>
      <point x="668" y="258" type="line"/>
      <point x="1135" y="1000" type="line"/>
      <point x="1413" y="1000" type="line"/>
    </contour>
  </outline>
</glyph>
<glyph name="afii10079" format="2">
  <advance width="1187"/>
  <unicode hex="043D"/>
  <outline>
    <contour>
      <point x="916" y="0" type="line"/>
      <point x="699" y="0" type="line"/>
      <point x="808" y="472" type="line"/>
      <point x="367" y="472" type="line"/>
      <point x="259" y="0" type="line"/>
      <point x="41" y="0" type="line"/>
      <point x="270" y="999" type="line"/>
      <point x="488" y="999" type="line"/>
      <point x="403" y="634" type="line"/>
      <point x="844" y="634" type="line"/>
      <point x="929" y="999" type="line"/>
      <point x="1146" y="999" type="line"/>
    </contour>
  </outline>
</glyph>
<glyph name="afii10082" format="2">
  <advance width="1152"/>
  <unicode hex="0440"/>
  <outline>
    <contour>
      <point x="156" y="-438" type="line"/>
      <point x="-61" y="-438" type="line"/>
      <point x="270" y="999" type="line"/>
      <point x="487" y="999" type="line"/>
      <point x="460" y="895" type="line"/>
      <point x="585" y="1020"/>
      <point x="774" y="1020" type="qcurve" smooth="yes"/>
      <point x="883" y="1020"/>
      <point x="1029" y="923"/>
      <point x="1102" y="754"/>
      <point x="1102" y="646" type="qcurve" smooth="yes"/>
      <point x="1102" y="546"/>
      <point x="1039" y="327"/>
      <point x="976" y="229" type="qcurve" smooth="yes"/>
      <point x="905" y="118"/>
      <point x="693" y="-20"/>
      <point x="560" y="-20" type="qcurve" smooth="yes"/>
      <point x="469" y="-20"/>
      <point x="326" y="50"/>
      <point x="289" y="120" type="qcurve"/>
    </contour>
    <contour>
      <point x="525" y="176" type="qcurve" smooth="yes"/>
      <point x="615" y="176"/>
      <point x="755" y="267"/>
      <point x="849" y="421"/>
      <point x="871" y="519" type="qcurve" smooth="yes"/>
      <point x="885" y="580"/>
      <point x="885" y="630" type="qcurve" smooth="yes"/>
      <point x="885" y="717"/>
      <point x="799" y="828"/>
      <point x="701" y="828" type="qcurve" smooth="yes"/>
      <point x="609" y="828"/>
      <point x="469" y="731"/>
      <point x="378" y="574"/>
      <point x="357" y="479" type="qcurve" smooth="yes"/>
      <point x="343" y="418"/>
      <point x="343" y="368" type="qcurve" smooth="yes"/>
      <point x="343" y="283"/>
      <point x="428" y="176"/>
    </contour>
  </outline>
</glyph>
<glyph name="afii10084" format="2">
  <advance width="1733"/>
  <unicode hex="0442"/>
  <outline>
    <contour>
      <point x="1492" y="0" type="line"/>
      <point x="1274" y="0" type="line"/>
      <point x="1409" y="585" type="line" smooth="yes"/>
      <point x="1424" y="648"/>
      <point x="1424" y="693" type="qcurve" smooth="yes"/>
      <point x="1424" y="822"/>
      <point x="1298" y="822" type="qcurve" smooth="yes"/>
      <point x="1224" y="822"/>
      <point x="1100" y="743"/>
      <point x="1015" y="618"/>
      <point x="998" y="546" type="qcurve" smooth="yes"/>
      <point x="873" y="0" type="line"/>
      <point x="656" y="0" type="line"/>
      <point x="792" y="589" type="line"/>
      <point x="806" y="656"/>
      <point x="806" y="695" type="qcurve" smooth="yes"/>
      <point x="806" y="758"/>
      <point x="746" y="822"/>
      <point x="681" y="822" type="qcurve" smooth="yes"/>
      <point x="607" y="822"/>
      <point x="484" y="742"/>
      <point x="399" y="617"/>
      <point x="382" y="546" type="qcurve"/>
      <point x="257" y="0" type="line"/>
      <point x="41" y="0" type="line"/>
      <point x="270" y="999" type="line"/>
      <point x="486" y="999" type="line"/>
      <point x="457" y="882" type="line"/>
      <point x="519" y="954"/>
      <point x="664" y="1018"/>
      <point x="734" y="1018" type="qcurve" smooth="yes"/>
      <point x="840" y="1018"/>
      <point x="968" y="926"/>
      <point x="993" y="849" type="qcurve"/>
      <point x="1072" y="937"/>
      <point x="1254" y="1016"/>
      <point x="1350" y="1016" type="qcurve" smooth="yes"/>
      <point x="1499" y="1016"/>
      <point x="1643" y="851"/>
      <point x="1643" y="720" type="qcurve" smooth="yes"/>
      <point x="1643" y="657"/>
      <point x="1628" y="594" type="qcurve" smooth="yes"/>
    </contour>
  </outline>
</glyph>
<glyph name="afii10085" format="2">
  <advance width="1017"/>
  <unicode hex="0443"/>
  <outline>
    <contour>
      <point x="236" y="-430" type="line"/>
      <point x="1" y="-430" type="line"/>
      <point x="287" y="20" type="line"/>
      <point x="125" y="999" type="line"/>
      <point x="357" y="999" type="line"/>
      <point x="450" y="267" type="line"/>
      <point x="886" y="999" type="line"/>
      <point x="1126" y="999" type="line"/>
    </contour>
  </outline>
</glyph>
<glyph name="afii10087" format="2">
  <advance width="1002"/>
  <unicode hex="0445"/>
  <outline>
    <contour>
      <point x="859" y="0" type="line"/>
      <point x="603" y="0" type="line"/>
      <point x="470" y="349" type="line"/>
      <point x="172" y="0" type="line"/>
      <point x="-95" y="0" type="line"/>
      <point x="364" y="504" type="line"/>
      <point x="142" y="999" type="line"/>
      <point x="397" y="999" type="line"/>
      <point x="531" y="656" type="line"/>
      <point x="828" y="999" type="line"/>
      <point x="1095" y="999" type="line"/>
      <point x="636" y="504" type="line"/>
    </contour>
  </outline>
</glyph>
<glyph name="afii10088" format="2">
  <advance width="1178"/>
  <unicode hex="0446"/>
  <outline>
    <contour>
      <point x="923" y="-307" type="line"/>
      <point x="744" y="-307" type="line"/>
      <point x="816" y="-23" type="line"/>
      <point x="770" y="-23"/>
      <point x="700" y="59"/>
      <point x="700" y="117" type="qcurve"/>
      <point x="701" y="134" type="line"/>
      <point x="634" y="58"/>
      <point x="462" y="-23"/>
      <point x="376" y="-23" type="qcurve" smooth="yes"/>
      <point x="228" y="-23"/>
      <point x="86" y="147"/>
      <point x="86" y="282" type="qcurve" smooth="yes"/>
      <point x="86" y="345"/>
      <point x="102" y="419" type="qcurve"/>
      <point x="236" y="999" type="line"/>
      <point x="454" y="999" type="line"/>
      <point x="317" y="408" type="line" smooth="yes"/>
      <point x="303" y="347"/>
      <point x="303" y="301" type="qcurve" smooth="yes"/>
      <point x="303" y="241"/>
      <point x="361" y="177"/>
      <point x="426" y="177" type="qcurve" smooth="yes"/>
      <point x="506" y="177"/>
      <point x="652" y="260"/>
      <point x="753" y="384"/>
      <point x="769" y="450" type="qcurve"/>
      <point x="895" y="999" type="line"/>
      <point x="1113" y="999" type="line"/>
      <point x="935" y="225" type="line" smooth="yes"/>
      <point x="930" y="205"/>
      <point x="930" y="182" type="qcurve" smooth="yes"/>
      <point x="930" y="132"/>
      <point x="994" y="87"/>
      <point x="1047" y="87" type="qcurve"/>
    </contour>
  </outline>
</glyph>
<glyph name="afii10089" format="2">
  <advance width="1103"/>
  <unicode hex="0447"/>
  <outline>
    <contour>
      <point x="833" y="0" type="line"/>
      <point x="615" y="0" type="line"/>
      <point x="709" y="390" type="line"/>
      <point x="647" y="324"/>
      <point x="477" y="242"/>
      <point x="387" y="242" type="qcurve" smooth="yes"/>
      <point x="239" y="242"/>
      <point x="97" y="411"/>
      <point x="97" y="547" type="qcurve" smooth="yes"/>
      <point x="97" y="610"/>
      <point x="113" y="684" type="qcurve"/>
      <point x="185" y="999" type="line"/>
      <point x="403" y="999" type="line"/>
      <point x="328" y="673" type="line" smooth="yes"/>
      <point x="313" y="608"/>
      <point x="313" y="566" type="qcurve" smooth="yes"/>
      <point x="313" y="441"/>
      <point x="437" y="441" type="qcurve" smooth="yes"/>
      <point x="516" y="441"/>
      <point x="661" y="523"/>
      <point x="763" y="647"/>
      <point x="780" y="714" type="qcurve"/>
      <point x="845" y="999" type="line"/>
      <point x="1062" y="999" type="line"/>
    </contour>
  </outline>
</glyph>
<glyph name="afii10090" format="2">
  <advance width="1762"/>
  <unicode hex="0448"/>
  <outline>
    <contour>
      <point x="1029" y="-18" type="qcurve" smooth="yes"/>
      <point x="922" y="-18"/>
      <point x="794" y="74"/>
      <point x="769" y="151" type="qcurve"/>
      <point x="691" y="63"/>
      <point x="507" y="-16"/>
      <point x="412" y="-16" type="qcurve" smooth="yes"/>
      <point x="263" y="-16"/>
      <point x="119" y="149"/>
      <point x="119" y="280" type="qcurve" smooth="yes"/>
      <point x="119" y="343"/>
      <point x="134" y="406" type="qcurve" smooth="yes"/>
      <point x="270" y="999" type="line"/>
      <point x="488" y="999" type="line"/>
      <point x="353" y="414" type="line" smooth="yes"/>
      <point x="339" y="355"/>
      <point x="339" y="308" type="qcurve" smooth="yes"/>
      <point x="339" y="245"/>
      <point x="398" y="178"/>
      <point x="464" y="178" type="qcurve" smooth="yes"/>
      <point x="538" y="178"/>
      <point x="662" y="257"/>
      <point x="747" y="382"/>
      <point x="764" y="454" type="qcurve" smooth="yes"/>
      <point x="889" y="999" type="line"/>
      <point x="1106" y="999" type="line"/>
      <point x="970" y="410" type="line"/>
      <point x="956" y="344"/>
      <point x="956" y="304" type="qcurve" smooth="yes"/>
      <point x="956" y="243"/>
      <point x="1014" y="178"/>
      <point x="1080" y="178" type="qcurve" smooth="yes"/>
      <point x="1155" y="178"/>
      <point x="1280" y="258"/>
      <point x="1364" y="383"/>
      <point x="1380" y="454" type="qcurve" smooth="yes"/>
      <point x="1505" y="999" type="line"/>
      <point x="1721" y="999" type="line"/>
      <point x="1492" y="0" type="line"/>
      <point x="1276" y="0" type="line"/>
      <point x="1305" y="118" type="line"/>
      <point x="1243" y="46"/>
      <point x="1098" y="-18"/>
    </contour>
  </outline>
</glyph>
<glyph name="afii10092" format="2">
  <advance width="1204"/>
  <unicode hex="044A"/>
  <outline>
    <contour>
      <point x="564" y="-20" type="qcurve" smooth="yes"/>
      <point x="444" y="-20"/>
      <point x="286" y="60"/>
      <point x="209" y="203"/>
      <point x="209" y="299" type="qcurve" smooth="yes"/>
      <point x="209" y="364"/>
      <point x="225" y="434" type="qcurve" smooth="yes"/>
      <point x="318" y="834" type="line"/>
      <point x="84" y="834" type="line"/>
      <point x="121" y="999" type="line"/>
      <point x="557" y="999" type="line"/>
      <point x="488" y="723" type="line"/>
      <point x="622" y="822"/>
      <point x="769" y="822" type="qcurve" smooth="yes"/>
      <point x="892" y="822"/>
      <point x="1051" y="743"/>
      <point x="1128" y="602"/>
      <point x="1128" y="509" type="qcurve" smooth="yes"/>
      <point x="1128" y="423"/>
      <point x="1071" y="244"/>
      <point x="1009" y="170" type="qcurve" smooth="yes"/>
      <point x="936" y="82"/>
      <point x="710" y="-20"/>
    </contour>
    <contour>
      <point x="587" y="166" type="qcurve" smooth="yes"/>
      <point x="705" y="166"/>
      <point x="862" y="309"/>
      <point x="888" y="421" type="qcurve" smooth="yes"/>
      <point x="894" y="447"/>
      <point x="894" y="472" type="qcurve" smooth="yes"/>
      <point x="894" y="540"/>
      <point x="807" y="635"/>
      <point x="718" y="635" type="qcurve" smooth="yes"/>
      <point x="641" y="635"/>
      <point x="517" y="573"/>
      <point x="436" y="472"/>
      <point x="421" y="411" type="qcurve"/>
      <point x="416" y="386" type="line" smooth="yes"/>
      <point x="407" y="346"/>
      <point x="407" y="318" type="qcurve" smooth="yes"/>
      <point x="407" y="250"/>
      <point x="494" y="166"/>
    </contour>
  </outline>
</glyph>
<glyph name="afii10093" format="2">
  <advance width="1466"/>
  <unicode hex="044B"/>
  <outline>
    <contour>
      <point x="486" y="-20" type="qcurve" smooth="yes"/>
      <point x="365" y="-20"/>
      <point x="207" y="60"/>
      <point x="129" y="205"/>
      <point x="129" y="301" type="qcurve" smooth="yes"/>
      <point x="129" y="364"/>
      <point x="145" y="434" type="qcurve" smooth="yes"/>
      <point x="275" y="999" type="line"/>
      <point x="477" y="999" type="line"/>
      <point x="409" y="723" type="line"/>
      <point x="533" y="822"/>
      <point x="680" y="822" type="qcurve" smooth="yes"/>
      <point x="862" y="822"/>
      <point x="1048" y="649"/>
      <point x="1048" y="504" type="qcurve" smooth="yes"/>
      <point x="1048" y="419"/>
      <point x="989" y="243"/>
      <point x="929" y="170" type="qcurve" smooth="yes"/>
      <point x="855" y="82"/>
      <point x="631" y="-20"/>
    </contour>
    <contour>
      <point x="1287" y="0" type="line"/>
      <point x="1086" y="0" type="line"/>
      <point x="1315" y="999" type="line"/>
      <point x="1516" y="999" type="line"/>
    </contour>
    <contour>
      <point x="504" y="166" type="qcurve" smooth="yes"/>
      <point x="583" y="166"/>
      <point x="708" y="234"/>
      <point x="791" y="349"/>
      <point x="808" y="421" type="qcurve" smooth="yes"/>
      <point x="814" y="447"/>
      <point x="814" y="472" type="qcurve" smooth="yes"/>
      <point x="814" y="540"/>
      <point x="727" y="635"/>
      <point x="638" y="635" type="qcurve" smooth="yes"/>
      <point x="561" y="635"/>
      <point x="438" y="572"/>
      <point x="357" y="471"/>
      <point x="341" y="411" type="qcurve" smooth="yes"/>
      <point x="334" y="382"/>
      <point x="328" y="347"/>
      <point x="328" y="323" type="qcurve" smooth="yes"/>
      <point x="328" y="253"/>
      <point x="413" y="166"/>
    </contour>
  </outline>
</glyph>
<glyph name="afii10097" format="2">
  <advance width="1052"/>
  <unicode hex="044F"/>
  <outline>
    <contour>
      <point x="781" y="0" type="line"/>
      <point x="567" y="0" type="line"/>
      <point x="663" y="419" type="line"/>
      <point x="561" y="419" type="line" smooth="yes"/>
      <point x="461" y="419"/>
      <point x="388" y="289" type="qcurve"/>
      <point x="202" y="0" type="line"/>
      <point x="-54" y="0" type="line"/>
      <point x="131" y="316" type="line"/>
      <point x="170" y="375"/>
      <point x="275" y="464"/>
      <point x="332" y="468" type="qcurve"/>
      <point x="252" y="490"/>
      <point x="153" y="577"/>
      <point x="153" y="665" type="qcurve" smooth="yes"/>
      <point x="153" y="823"/>
      <point x="289" y="924" type="qcurve" smooth="yes"/>
      <point x="391" y="999"/>
      <point x="598" y="999" type="qcurve" smooth="yes"/>
      <point x="1011" y="999" type="line"/>
    </contour>
    <contour>
      <point x="700" y="583" type="line"/>
      <point x="754" y="814" type="line"/>
      <point x="535" y="814" type="line" smooth="yes"/>
      <point x="486" y="814"/>
      <point x="413" y="766"/>
      <point x="373" y="694"/>
      <point x="373" y="656" type="qcurve" smooth="yes"/>
      <point x="373" y="583"/>
      <point x="489" y="583" type="qcurve" smooth="yes"/>
    </contour>
  </outline>
</glyph>
<glyph name="afii10102" format="2">
  <advance width="891"/>
  <unicode hex="0455"/>
  <outline>
    <contour>
      <point x="344" y="-20" type="qcurve" smooth="yes"/>
      <point x="239" y="-20"/>
      <point x="87" y="58"/>
      <point x="0" y="184"/>
      <point x="-7" y="259" type="qcurve"/>
      <point x="176" y="321" type="line"/>
      <point x="184" y="252"/>
      <point x="269" y="160"/>
      <point x="353" y="160" type="qcurve" smooth="yes"/>
      <point x="439" y="160"/>
      <point x="558" y="248"/>
      <point x="574" y="314" type="qcurve" smooth="yes"/>
      <point x="576" y="321"/>
      <point x="576" y="334" type="qcurve" smooth="yes"/>
      <point x="576" y="377"/>
      <point x="491" y="419"/>
      <point x="411" y="439" type="qcurve"/>
      <point x="326" y="462"/>
      <point x="273" y="485" type="qcurve" smooth="yes"/>
      <point x="149" y="541"/>
      <point x="149" y="663" type="qcurve" smooth="yes"/>
      <point x="149" y="718"/>
      <point x="193" y="838"/>
      <point x="241" y="888" type="qcurve" smooth="yes"/>
      <point x="306" y="954"/>
      <point x="473" y="1014"/>
      <point x="556" y="1014" type="qcurve" smooth="yes"/>
      <point x="684" y="1014"/>
      <point x="844" y="888"/>
      <point x="876" y="793" type="qcurve"/>
      <point x="709" y="726" type="line"/>
      <point x="691" y="782"/>
      <point x="610" y="839"/>
      <point x="542" y="839" type="qcurve" smooth="yes"/>
      <point x="475" y="839"/>
      <point x="423" y="808" type="qcurve" smooth="yes"/>
      <point x="365" y="773"/>
      <point x="356" y="704" type="qcurve"/>
      <point x="356" y="679"/>
      <point x="395" y="646"/>
      <point x="452" y="626"/>
      <point x="499" y="612" type="qcurve" smooth="yes"/>
      <point x="582" y="589"/>
      <point x="650" y="562" type="qcurve"/>
      <point x="706" y="538"/>
      <point x="786" y="442"/>
      <point x="786" y="364" type="qcurve" smooth="yes"/>
      <point x="786" y="302"/>
      <point x="736" y="168"/>
      <point x="687" y="117" type="qcurve"/>
      <point x="615" y="45"/>
      <point x="434" y="-20"/>
    </contour>
  </outline>
</glyph>
<glyph name="afii10105" format="2">
  <advance width="522"/>
  <unicode hex="0458"/>
  <outline>
    <contour>
      <point x="539" y="1184" type="line"/>
      <point x="308" y="1184" type="line"/>
      <point x="361" y="1414" type="line"/>
      <point x="592" y="1414" type="line"/>
    </contour>
    <contour>
      <point x="-115" y="-438" type="qcurve" smooth="yes"/>
      <point x="-201" y="-438"/>
      <point x="-277" y="-407" type="qcurve"/>
      <point x="-281" y="-406" type="line"/>
      <point x="-193" y="-235" type="line"/>
      <point x="-148" y="-241"/>
      <point x="-102" y="-241" type="qcurve" smooth="yes"/>
      <point x="-56" y="-241"/>
      <point x="-3" y="-184"/>
      <point x="9" y="-130" type="qcurve" smooth="yes"/>
      <point x="269" y="999" type="line"/>
      <point x="485" y="999" type="line"/>
      <point x="226" y="-129" type="line" smooth="yes"/>
      <point x="205" y="-220"/>
      <point x="117" y="-359"/>
      <point x="-20" y="-438"/>
    </contour>
  </outline>
</glyph>
<glyph name="afii10106" format="2">
  <advance width="1662"/>
  <unicode hex="0459"/>
  <outline>
    <contour>
      <point x="110" y="-21" type="qcurve" smooth="yes"/>
      <point x="22" y="-21"/>
      <point x="-81" y="34" type="qcurve"/>
      <point x="0" y="167" type="line"/>
      <point x="11" y="159"/>
      <point x="49" y="146"/>
      <point x="64" y="146" type="qcurve" smooth="yes"/>
      <point x="103" y="146"/>
      <point x="182" y="274"/>
      <point x="256" y="489"/>
      <point x="287" y="624" type="qcurve" smooth="yes"/>
      <point x="373" y="999" type="line"/>
      <point x="1111" y="999" type="line"/>
      <point x="1040" y="692" type="line"/>
      <point x="1194" y="692" type="line" smooth="yes"/>
      <point x="1387" y="692"/>
      <point x="1565" y="570"/>
      <point x="1565" y="446" type="qcurve" smooth="yes"/>
      <point x="1565" y="394"/>
      <point x="1550" y="331" type="qcurve" smooth="yes"/>
      <point x="1473" y="0"/>
      <point x="1048" y="0" type="qcurve" smooth="yes"/>
      <point x="664" y="0" type="line"/>
      <point x="857" y="837" type="line"/>
      <point x="553" y="837" type="line"/>
      <point x="500" y="608" type="line" smooth="yes"/>
      <point x="445" y="370"/>
      <point x="327" y="93"/>
      <point x="193" y="-21"/>
    </contour>
    <contour>
      <point x="1076" y="183" type="line" smooth="yes"/>
      <point x="1167" y="183"/>
      <point x="1299" y="270"/>
      <point x="1322" y="371" type="qcurve" smooth="yes"/>
      <point x="1327" y="391"/>
      <point x="1327" y="413" type="qcurve" smooth="yes"/>
      <point x="1327" y="466"/>
      <point x="1243" y="509"/>
      <point x="1163" y="509" type="qcurve" smooth="yes"/>
      <point x="997" y="509" type="line"/>
      <point x="922" y="183" type="line"/>
    </contour>
  </outline>
</glyph>
<glyph name="afii10107" format="2">
  <advance width="1698"/>
  <unicode hex="045A"/>
  <outline>
    <contour>
      <point x="1084" y="0" type="qcurve" smooth="yes"/>
      <point x="700" y="0" type="line"/>
      <point x="808" y="472" type="line"/>
      <point x="367" y="472" type="line"/>
      <point x="258" y="0" type="line"/>
      <point x="41" y="0" type="line"/>
      <point x="270" y="999" type="line"/>
      <point x="487" y="999" type="line"/>
      <point x="403" y="634" type="line"/>
      <point x="845" y="634" type="line"/>
      <point x="929" y="999" type="line"/>
      <point x="1146" y="999" type="line"/>
      <point x="1061" y="634" type="line"/>
      <point x="1216" y="634" type="line" smooth="yes"/>
      <point x="1414" y="634"/>
      <point x="1592" y="524"/>
      <point x="1592" y="405" type="qcurve" smooth="yes"/>
      <point x="1592" y="355"/>
      <point x="1579" y="299" type="qcurve"/>
      <point x="1546" y="146"/>
      <point x="1312" y="0"/>
    </contour>
    <contour>
      <point x="1112" y="183" type="line" smooth="yes"/>
      <point x="1207" y="183"/>
      <point x="1330" y="249"/>
      <point x="1351" y="339" type="qcurve" smooth="yes"/>
      <point x="1356" y="362"/>
      <point x="1356" y="377" type="qcurve" smooth="yes"/>
      <point x="1356" y="413"/>
      <point x="1314" y="446"/>
      <point x="1250" y="451"/>
      <point x="1187" y="451" type="qcurve" smooth="yes"/>
      <point x="1020" y="451" type="line"/>
      <point x="957" y="183" type="line"/>
    </contour>
  </outline>
</glyph>
<glyph name="afii10110" format="2">
  <advance width="1017"/>
  <unicode hex="045E"/>
  <outline>
    <contour>
      <point x="668" y="1143" type="qcurve" smooth="yes"/>
      <point x="531" y="1143"/>
      <point x="400" y="1251"/>
      <point x="400" y="1341" type="qcurve" smooth="yes"/>
      <point x="400" y="1374"/>
      <point x="409" y="1413" type="qcurve"/>
      <point x="561" y="1413" type="line"/>
      <point x="556" y="1388"/>
      <point x="556" y="1372" type="qcurve" smooth="yes"/>
      <point x="556" y="1320"/>
      <point x="621" y="1274"/>
      <point x="673" y="1274" type="qcurve" smooth="yes"/>
      <point x="745" y="1274"/>
      <point x="859" y="1354"/>
      <point x="874" y="1413" type="qcurve"/>
      <point x="1027" y="1413" type="line"/>
      <point x="967" y="1143"/>
    </contour>
    <contour>
      <point x="236" y="-430" type="line"/>
      <point x="1" y="-430" type="line"/>
      <point x="287" y="20" type="line"/>
      <point x="125" y="999" type="line"/>
      <point x="357" y="999" type="line"/>
      <point x="450" y="267" type="line"/>
      <point x="886" y="999" type="line"/>
      <point x="1126" y="999" type="line"/>
    </contour>
  </outline>
</glyph>
<glyph name="afii10146" format="2">
  <advance width="1261"/>
  <unicode hex="0462"/>
  <outline>
    <contour>
      <point x="610" y="0" type="qcurve" smooth="yes"/>
      <point x="176" y="0" type="line"/>
      <point x="423" y="1069" type="line"/>
      <point x="176" y="1069" type="line"/>
      <point x="222" y="1272" type="line"/>
      <point x="469" y="1272" type="line"/>
      <point x="502" y="1412" type="line"/>
      <point x="724" y="1412" type="line"/>
      <point x="692" y="1272" type="line"/>
      <point x="1002" y="1272" type="line"/>
      <point x="956" y="1069" type="line"/>
      <point x="646" y="1069" type="line"/>
      <point x="586" y="810" type="line"/>
      <point x="785" y="810" type="line" smooth="yes"/>
      <point x="903" y="810"/>
      <point x="1086" y="739"/>
      <point x="1191" y="599"/>
      <point x="1191" y="493" type="qcurve" smooth="yes"/>
      <point x="1191" y="406"/>
      <point x="1125" y="240"/>
      <point x="1070" y="179" type="qcurve" smooth="yes"/>
      <point x="986" y="88"/>
      <point x="747" y="0"/>
    </contour>
    <contour>
      <point x="645" y="207" type="line" smooth="yes"/>
      <point x="782" y="207"/>
      <point x="942" y="326"/>
      <point x="965" y="428" type="qcurve" smooth="yes"/>
      <point x="971" y="454"/>
      <point x="971" y="475" type="qcurve" smooth="yes"/>
      <point x="971" y="603"/>
      <point x="762" y="603" type="qcurve" smooth="yes"/>
      <point x="538" y="603" type="line"/>
      <point x="445" y="207" type="line"/>
    </contour>
  </outline>
</glyph>
<glyph name="Eiotifiedcyrillic" format="2">
  <advance width="1901"/>
  <unicode hex="0464"/>
  <outline>
    <contour>
      <point x="1128" y="-20" type="qcurve" smooth="yes"/>
      <point x="945" y="-20"/>
      <point x="706" y="115"/>
      <point x="590" y="350"/>
      <point x="590" y="500" type="qcurve" smooth="yes"/>
      <point x="590" y="552"/>
      <point x="598" y="614" type="qcurve"/>
      <point x="439" y="605" type="line"/>
      <point x="301" y="0" type="line"/>
      <point x="77" y="0" type="line"/>
      <point x="402" y="1412" type="line"/>
      <point x="626" y="1412" type="line"/>
      <point x="486" y="808" type="line"/>
      <point x="643" y="817" type="line"/>
      <point x="685" y="945"/>
      <point x="827" y="1169"/>
      <point x="1026" y="1339"/>
      <point x="1281" y="1436"/>
      <point x="1436" y="1436" type="qcurve" smooth="yes"/>
      <point x="1653" y="1436"/>
      <point x="1918" y="1221"/>
      <point x="1958" y="1030" type="qcurve"/>
      <point x="1737" y="965" type="line"/>
      <point x="1722" y="1224"/>
      <point x="1411" y="1224" type="qcurve" smooth="yes"/>
      <point x="1273" y="1224"/>
      <point x="1057" y="1111"/>
      <point x="906" y="920"/>
      <point x="865" y="799" type="qcurve"/>
      <point x="1452" y="808" type="line"/>
      <point x="1405" y="605" type="line"/>
      <point x="817" y="596" type="line"/>
      <point x="813" y="561"/>
      <point x="813" y="521" type="qcurve" smooth="yes"/>
      <point x="813" y="365"/>
      <point x="977" y="191"/>
      <point x="1151" y="191" type="qcurve" smooth="yes"/>
      <point x="1304" y="191"/>
      <point x="1537" y="333"/>
      <point x="1622" y="472" type="qcurve"/>
      <point x="1811" y="369" type="line"/>
      <point x="1678" y="170"/>
      <point x="1324" y="-20"/>
    </contour>
  </outline>
</glyph>
<glyph name="yuslittlecyrillic" format="2">
  <advance width="985"/>
  <unicode hex="0467"/>
  <outline>
    <contour>
      <point x="840" y="0" type="line"/>
      <point x="630" y="0" type="line"/>
      <point x="615" y="225" type="line"/>
      <point x="511" y="225" type="line"/>
      <point x="460" y="0" type="line"/>
      <point x="299" y="0" type="line"/>
      <point x="350" y="225" type="line"/>
      <point x="252" y="225" type="line"/>
      <point x="124" y="0" type="line"/>
      <point x="-89" y="0" type="line"/>
      <point x="522" y="999" type="line"/>
      <point x="691" y="999" type="line"/>
    </contour>
    <contour>
      <point x="602" y="382" type="line"/>
      <point x="553" y="741" type="line"/>
      <point x="338" y="382" type="line"/>
    </contour>
  </outline>
</glyph>
<glyph name="yuslittleiotifiedcyrillic" format="2">
  <advance width="1411"/>
  <unicode hex="0469"/>
  <outline>
    <contour>
      <point x="1266" y="0" type="line"/>
      <point x="1056" y="0" type="line"/>
      <point x="1041" y="225" type="line"/>
      <point x="937" y="225" type="line"/>
      <point x="886" y="0" type="line"/>
      <point x="724" y="0" type="line"/>
      <point x="776" y="225" type="line"/>
      <point x="678" y="225" type="line"/>
      <point x="550" y="0" type="line"/>
      <point x="337" y="0" type="line"/>
      <point x="580" y="399" type="line"/>
      <point x="350" y="399" type="line"/>
      <point x="258" y="0" type="line"/>
      <point x="41" y="0" type="line"/>
      <point x="270" y="999" type="line"/>
      <point x="487" y="999" type="line"/>
      <point x="386" y="561" type="line"/>
      <point x="678" y="561" type="line"/>
      <point x="947" y="999" type="line"/>
      <point x="1117" y="999" type="line"/>
    </contour>
    <contour>
      <point x="1028" y="382" type="line"/>
      <point x="979" y="741" type="line"/>
      <point x="764" y="382" type="line"/>
    </contour>
  </outline>
</glyph>
<glyph name="yusbigcyrillic" format="2">
  <advance width="1274"/>
  <unicode hex="046B"/>
  <outline>
    <contour>
      <point x="1129" y="0" type="line"/>
      <point x="880" y="0" type="line"/>
      <point x="843" y="364" type="line"/>
      <point x="837" y="414"/>
      <point x="786" y="459"/>
      <point x="730" y="461" type="qcurve"/>
      <point x="618" y="0" type="line"/>
      <point x="426" y="0" type="line"/>
      <point x="538" y="458" type="line"/>
      <point x="425" y="451"/>
      <point x="370" y="345" type="qcurve"/>
      <point x="168" y="0" type="line"/>
      <point x="-89" y="0" type="line"/>
      <point x="188" y="458" type="line"/>
      <point x="229" y="521"/>
      <point x="329" y="607"/>
      <point x="393" y="607" type="qcurve"/>
      <point x="265" y="837" type="line"/>
      <point x="300" y="999" type="line"/>
      <point x="1202" y="999" type="line"/>
      <point x="1168" y="837" type="line"/>
      <point x="922" y="607" type="line"/>
      <point x="1026" y="607"/>
      <point x="1056" y="439" type="qcurve"/>
    </contour>
    <contour>
      <point x="660" y="616" type="line"/>
      <point x="896" y="837" type="line"/>
      <point x="536" y="837" type="line"/>
    </contour>
  </outline>
</glyph>
<glyph name="afii10148" format="2">
  <advance width="1337"/>
  <unicode hex="0474"/>
  <outline>
    <contour>
      <point x="615" y="0" type="line"/>
      <point x="441" y="0" type="line"/>
      <point x="229" y="1413" type="line"/>
      <point x="470" y="1413" type="line"/>
      <point x="603" y="349" type="line"/>
      <point x="1004" y="1013" type="line"/>
      <point x="1132" y="1227"/>
      <point x="1370" y="1408"/>
      <point x="1512" y="1414" type="qcurve"/>
      <point x="1475" y="1203" type="line"/>
      <point x="1339" y="1162"/>
      <point x="1202" y="937" type="qcurve"/>
    </contour>
  </outline>
</glyph>
<glyph name="titlocyrilliccmb" format="2">
  <unicode hex="0483"/>
  <outline>
    <contour>
      <point x="-510" y="1568" type="line"/>
      <point x="-716" y="1568" type="line"/>
      <point x="-641" y="1893" type="line"/>
      <point x="-14" y="1893" type="line"/>
      <point x="15" y="2021" type="line"/>
      <point x="228" y="2021" type="line"/>
      <point x="154" y="1700" type="line"/>
      <point x="-479" y="1700" type="line"/>
    </contour>
  </outline>
</glyph>
<glyph name="Ghestrokecyrillic" format="2">
  <advance width="1129"/>
  <unicode hex="0492"/>
  <outline>
    <contour>
      <point x="362" y="0" type="line"/>
      <point x="138" y="0" type="line"/>
      <point x="288" y="651" type="line"/>
      <point x="88" y="651" type="line"/>
      <point x="131" y="839" type="line"/>
      <point x="332" y="839" type="line"/>
      <point x="464" y="1412" type="line"/>
      <point x="1306" y="1412" type="line"/>
      <point x="1258" y="1209" type="line"/>
      <point x="640" y="1209" type="line"/>
      <point x="555" y="839" type="line"/>
      <point x="878" y="839" type="line"/>
      <point x="835" y="651" type="line"/>
      <point x="512" y="651" type="line"/>
    </contour>
  </outline>
</glyph>
<glyph name="Kadescendercyrillic" format="2">
  <advance width="1324"/>
  <unicode hex="049A"/>
  <outline>
    <contour>
      <point x="1212" y="-238" type="line"/>
      <point x="999" y="-238" type="line"/>
      <point x="1054" y="0" type="line"/>
      <point x="901" y="0" type="line"/>
      <point x="841" y="510" type="line" smooth="yes"/>
      <point x="834" y="573"/>
      <point x="765" y="676"/>
      <point x="695" y="676" type="qcurve" smooth="yes"/>
      <point x="456" y="676" type="line"/>
      <point x="302" y="0" type="line"/>
      <point x="78" y="0" type="line"/>
      <point x="403" y="1412" type="line"/>
      <point x="627" y="1412" type="line"/>
      <point x="504" y="882" type="line"/>
      <point x="657" y="882" type="line"/>
      <point x="1129" y="1412" type="line"/>
      <point x="1430" y="1412" type="line"/>
      <point x="867" y="828" type="line"/>
      <point x="920" y="828"/>
      <point x="998" y="747"/>
      <point x="1043" y="643"/>
      <point x="1051" y="596" type="qcurve"/>
      <point x="1139" y="168" type="line"/>
      <point x="1306" y="168" type="line"/>
    </contour>
  </outline>
</glyph>
<glyph name="Endescendercyrillic" format="2">
  <advance width="1482"/>
  <unicode hex="04A2"/>
  <outline>
    <contour>
      <point x="1322" y="-238" type="line"/>
      <point x="1109" y="-238" type="line"/>
      <point x="1164" y="0" type="line"/>
      <point x="950" y="0" type="line"/>
      <point x="1089" y="606" type="line"/>
      <point x="441" y="606" type="line"/>
      <point x="302" y="0" type="line"/>
      <point x="78" y="0" type="line"/>
      <point x="403" y="1413" type="line"/>
      <point x="628" y="1413" type="line"/>
      <point x="487" y="808" type="line"/>
      <point x="1136" y="808" type="line"/>
      <point x="1276" y="1413" type="line"/>
      <point x="1500" y="1413" type="line"/>
      <point x="1214" y="168" type="line"/>
      <point x="1416" y="168" type="line"/>
    </contour>
  </outline>
</glyph>
<glyph name="endescendercyrillic" format="2">
  <advance width="1187"/>
  <unicode hex="04A3"/>
  <outline>
    <contour>
      <point x="1062" y="-238" type="line"/>
      <point x="849" y="-238" type="line"/>
      <point x="904" y="0" type="line"/>
      <point x="699" y="0" type="line"/>
      <point x="808" y="472" type="line"/>
      <point x="367" y="472" type="line"/>
      <point x="259" y="0" type="line"/>
      <point x="41" y="0" type="line"/>
      <point x="270" y="999" type="line"/>
      <point x="488" y="999" type="line"/>
      <point x="403" y="634" type="line"/>
      <point x="844" y="634" type="line"/>
      <point x="929" y="999" type="line"/>
      <point x="1146" y="999" type="line"/>
      <point x="955" y="168" type="line"/>
      <point x="1156" y="168" type="line"/>
    </contour>
  </outline>
</glyph>
<glyph name="ustraightcyrillic" format="2">
  <advance width="994"/>
  <unicode hex="04AF"/>
  <outline>
    <contour>
      <point x="488" y="0" type="line"/>
      <point x="274" y="0" type="line"/>
      <point x="376" y="433" type="line"/>
      <point x="132" y="999" type="line"/>
      <point x="378" y="999" type="line"/>
      <point x="521" y="632" type="line"/>
      <point x="839" y="999" type="line"/>
      <point x="1096" y="999" type="line"/>
      <point x="589" y="433" type="line"/>
    </contour>
  </outline>
</glyph>
<glyph name="Ustraightstrokecyrillic" format="2">
  <advance width="1375"/>
  <unicode hex="04B0"/>
  <outline>
    <contour>
      <point x="683" y="0" type="line"/>
      <point x="460" y="0" type="line"/>
      <point x="526" y="282" type="line"/>
      <point x="267" y="282" type="line"/>
      <point x="321" y="470" type="line"/>
      <point x="570" y="470" type="line"/>
      <point x="589" y="551" type="line"/>
      <point x="224" y="1413" type="line"/>
      <point x="483" y="1413" type="line"/>
      <point x="740" y="757" type="line"/>
      <point x="1305" y="1413" type="line"/>
      <point x="1572" y="1413" type="line"/>
      <point x="812" y="551" type="line"/>
      <point x="793" y="470" type="line"/>
      <point x="1068" y="470" type="line"/>
      <point x="1014" y="282" type="line"/>
      <point x="749" y="282" type="line"/>
    </contour>
  </outline>
</glyph>
<glyph name="Hadescendercyrillic" format="2">
  <advance width="1320"/>
  <unicode hex="04B2"/>
  <outline>
    <contour>
      <point x="1191" y="-238" type="line"/>
      <point x="978" y="-238" type="line"/>
      <point x="1033" y="0" type="line"/>
      <point x="900" y="0" type="line"/>
      <point x="675" y="549" type="line"/>
      <point x="196" y="0" type="line"/>
      <point x="-77" y="0" type="line"/>
      <point x="559" y="707" type="line"/>
      <point x="256" y="1413" type="line"/>
      <point x="519" y="1413" type="line"/>
      <point x="737" y="855" type="line"/>
      <point x="1220" y="1413" type="line"/>
      <point x="1490" y="1413" type="line"/>
      <point x="856" y="707" type="line"/>
      <point x="1089" y="168" type="line"/>
      <point x="1285" y="168" type="line"/>
    </contour>
  </outline>
</glyph>
<glyph name="Shhacyrillic" format="2">
  <advance width="1343"/>
  <unicode hex="04BA"/>
  <outline>
    <contour>
      <point x="1129" y="1" type="line"/>
      <point x="905" y="1" type="line"/>
      <point x="1001" y="412" type="line" smooth="yes"/>
      <point x="1024" y="513"/>
      <point x="1024" y="586" type="qcurve" smooth="yes"/>
      <point x="1024" y="692"/>
      <point x="913" y="787"/>
      <point x="798" y="787" type="qcurve" smooth="yes"/>
      <point x="691" y="787"/>
      <point x="517" y="708"/>
      <point x="456" y="652" type="qcurve"/>
      <point x="302" y="1" type="line"/>
      <point x="78" y="1" type="line"/>
      <point x="403" y="1413" type="line"/>
      <point x="627" y="1413" type="line"/>
      <point x="509" y="918" type="line"/>
      <point x="654" y="1003"/>
      <point x="823" y="1003" type="qcurve" smooth="yes"/>
      <point x="1039" y="1003"/>
      <point x="1249" y="798"/>
      <point x="1249" y="614" type="qcurve" smooth="yes"/>
      <point x="1249" y="522"/>
      <point x="1223" y="412" type="qcurve"/>
    </contour>
  </outline>
</glyph>
<glyph name="endash" format="2">
  <advance width="1042"/>
  <unicode hex="2013"/>
  <outline>
    <contour>
      <point x="901" y="530" type="line"/>
      <point x="155" y="530" type="line"/>
      <point x="193" y="692" type="line"/>
      <point x="939" y="692" type="line"/>
    </contour>
  </outline>
</glyph>
<glyph name="quoteleft" format="2">
  <advance width="571"/>
  <unicode hex="2018"/>
  <outline>
    <contour>
      <point x="539" y="878" type="line"/>
      <point x="402" y="878" type="line"/>
      <point x="284" y="1413" type="line"/>
      <point x="531" y="1413" type="line"/>
    </contour>
  </outline>
</glyph>
<glyph name="quoteright" format="2">
  <advance width="570"/>
  <unicode hex="2019"/>
  <outline>
    <contour>
      <point x="346" y="878" type="line"/>
      <point x="202" y="878" type="line"/>
      <point x="458" y="1413" type="line"/>
      <point x="713" y="1413" type="line"/>
    </contour>
  </outline>
</glyph>
<glyph name="dagger" format="2">
  <advance width="790"/>
  <unicode hex="2020"/>
  <outline>
    <contour>
      <point x="333" y="-205" type="line"/>
      <point x="134" y="-205" type="line"/>
      <point x="370" y="820" type="line"/>
      <point x="148" y="820" type="line"/>
      <point x="195" y="1019" type="line"/>
      <point x="416" y="1019" type="line"/>
      <point x="506" y="1413" type="line"/>
      <point x="706" y="1413" type="line"/>
      <point x="615" y="1019" type="line"/>
      <point x="836" y="1019" type="line"/>
      <point x="790" y="820" type="line"/>
      <point x="569" y="820" type="line"/>
    </contour>
  </outline>
</glyph>
<glyph name="bullet" format="2">
  <advance width="780"/>
  <unicode hex="2022"/>
  <outline>
    <contour>
      <point x="343" y="244" type="qcurve" smooth="yes"/>
      <point x="253" y="244"/>
      <point x="145" y="359"/>
      <point x="145" y="443" type="qcurve" smooth="yes"/>
      <point x="145" y="522"/>
      <point x="230" y="647"/>
      <point x="360" y="719"/>
      <point x="428" y="719" type="qcurve" smooth="yes"/>
      <point x="519" y="719"/>
      <point x="625" y="603"/>
      <point x="625" y="521" type="qcurve" smooth="yes"/>
      <point x="625" y="441"/>
      <point x="541" y="316"/>
      <point x="412" y="244"/>
    </contour>
  </outline>
</glyph>
<glyph name="guilsinglleft" format="2">
  <advance width="597"/>
  <unicode hex="2039"/>
  <outline>
    <contour>
      <point x="367" y="165" type="line"/>
      <point x="35" y="510" type="line"/>
      <point x="523" y="857" type="line"/>
      <point x="481" y="662" type="line"/>
      <point x="261" y="510" type="line"/>
      <point x="409" y="360" type="line"/>
    </contour>
  </outline>
</glyph>
<glyph name="fivesuperior" format="2">
  <advance width="828"/>
  <unicode hex="2075"/>
  <outline>
    <contour>
      <point x="333" y="473" type="qcurve" smooth="yes"/>
      <point x="245" y="473"/>
      <point x="115" y="551"/>
      <point x="80" y="618" type="qcurve" smooth="yes"/>
      <point x="47" y="679"/>
      <point x="47" y="751" type="qcurve" smooth="yes"/>
      <point x="47" y="763" type="line"/>
      <point x="205" y="789" type="line"/>
      <point x="205" y="783" type="line" smooth="yes"/>
      <point x="205" y="622"/>
      <point x="349" y="622" type="qcurve" smooth="yes"/>
      <point x="406" y="622"/>
      <point x="508" y="678"/>
      <point x="543" y="724" type="qcurve" smooth="yes"/>
      <point x="596" y="794"/>
      <point x="596" y="861" type="qcurve" smooth="yes"/>
      <point x="596" y="914"/>
      <point x="526" y="981"/>
      <point x="458" y="981" type="qcurve" smooth="yes"/>
      <point x="406" y="981"/>
      <point x="297" y="930"/>
      <point x="260" y="889" type="qcurve"/>
      <point x="125" y="931" type="line"/>
      <point x="335" y="1428" type="line"/>
      <point x="860" y="1428" type="line"/>
      <point x="829" y="1275" type="line"/>
      <point x="421" y="1275" type="line"/>
      <point x="329" y="1080" type="line"/>
      <point x="404" y="1129"/>
      <point x="500" y="1129" type="qcurve" smooth="yes"/>
      <point x="580" y="1129"/>
      <point x="699" y="1062"/>
      <point x="764" y="944"/>
      <point x="764" y="872" type="qcurve" smooth="yes"/>
      <point x="764" y="743"/>
      <point x="670" y="634" type="qcurve" smooth="yes"/>
      <point x="606" y="561"/>
      <point x="428" y="473"/>
    </contour>
  </outline>
</glyph>
<glyph name="sevensuperior" format="2">
  <advance width="791"/>
  <unicode hex="2077"/>
  <outline>
    <contour>
      <point x="239" y="486" type="line"/>
      <point x="71" y="486" type="line"/>
      <point x="657" y="1276" type="line"/>
      <point x="174" y="1276" type="line"/>
      <point x="206" y="1428" type="line"/>
      <point x="868" y="1428" type="line"/>
      <point x="851" y="1343" type="line"/>
    </contour>
  </outline>
</glyph>
<glyph name="uni20B4" format="2">
  <advance width="1128"/>
  <unicode hex="20B4"/>
  <anchor x="442" y="0" name="b.uni0326"/>
  <anchor x="768" y="1413" name="t.ringcmb_1"/>
  <anchor x="0" y="0" name="b.ogonekcmb_2"/>
  <anchor x="0" y="0" name="m.horncmb_3"/>
  <outline>
    <contour>
      <point x="439" y="-16" type="qcurve" smooth="yes"/>
      <point x="326" y="-16"/>
      <point x="146" y="61"/>
      <point x="41" y="211"/>
      <point x="41" y="319" type="qcurve" smooth="yes"/>
      <point x="41" y="400"/>
      <point x="99" y="562"/>
      <point x="155" y="622" type="qcurve" smooth="yes"/>
      <point x="229" y="700"/>
      <point x="318" y="745" type="qcurve" smooth="yes"/>
      <point x="414" y="793"/>
      <point x="575" y="852" type="qcurve"/>
      <point x="263" y="852" type="line"/>
      <point x="291" y="978" type="line"/>
      <point x="819" y="978" type="line"/>
      <point x="856" y="1011"/>
      <point x="890" y="1086"/>
      <point x="890" y="1120" type="qcurve" smooth="yes"/>
      <point x="890" y="1175"/>
      <point x="804" y="1236"/>
      <point x="741" y="1236" type="qcurve" smooth="yes"/>
      <point x="661" y="1236"/>
      <point x="510" y="1147"/>
      <point x="455" y="1072" type="qcurve"/>
      <point x="295" y="1204" type="line"/>
      <point x="392" y="1325"/>
      <point x="629" y="1434"/>
      <point x="757" y="1434" type="qcurve" smooth="yes"/>
      <point x="855" y="1434"/>
      <point x="1015" y="1365"/>
      <point x="1111" y="1229"/>
      <point x="1111" y="1130" type="qcurve" smooth="yes"/>
      <point x="1111" y="1033"/>
      <point x="1042" y="887"/>
      <point x="931" y="786"/>
      <point x="866" y="759" type="qcurve"/>
      <point x="778" y="720"/>
      <point x="626" y="677" type="qcurve"/>
      <point x="984" y="677" type="line"/>
      <point x="954" y="550" type="line"/>
      <point x="358" y="550" type="line"/>
      <point x="267" y="462"/>
      <point x="267" y="338" type="qcurve" smooth="yes"/>
      <point x="267" y="262"/>
      <point x="367" y="190"/>
      <point x="459" y="190" type="qcurve" smooth="yes"/>
      <point x="577" y="190"/>
      <point x="791" y="322"/>
      <point x="839" y="454" type="qcurve"/>
      <point x="1043" y="378" type="line"/>
      <point x="990" y="245"/>
      <point x="800" y="70"/>
      <point x="561" y="-16"/>
    </contour>
  </outline>
</glyph>
<glyph name="uni20BD" format="2">
  <advance width="1322"/>
  <unicode hex="20BD"/>
  <outline>
    <contour>
      <point x="407" y="0" type="line"/>
      <point x="184" y="0" type="line"/>
      <point x="251" y="292" type="line"/>
      <point x="74" y="292" type="line"/>
      <point x="114" y="469" type="line"/>
      <point x="291" y="469" type="line"/>
      <point x="326" y="617" type="line"/>
      <point x="149" y="617" type="line"/>
      <point x="193" y="809" type="line"/>
      <point x="370" y="809" type="line"/>
      <point x="510" y="1413" type="line"/>
      <point x="932" y="1413" type="line" smooth="yes"/>
      <point x="1053" y="1413"/>
      <point x="1234" y="1338"/>
      <point x="1335" y="1195"/>
      <point x="1335" y="1092" type="qcurve" smooth="yes"/>
      <point x="1335" y="1039"/>
      <point x="1322" y="984" type="qcurve" smooth="yes"/>
      <point x="1281" y="803"/>
      <point x="981" y="617"/>
      <point x="760" y="617" type="qcurve" smooth="yes"/>
      <point x="548" y="617" type="line"/>
      <point x="514" y="469" type="line"/>
      <point x="863" y="469" type="line"/>
      <point x="822" y="292" type="line"/>
      <point x="473" y="292" type="line"/>
    </contour>
    <contour>
      <point x="792" y="809" type="line" smooth="yes"/>
      <point x="930" y="809"/>
      <point x="1088" y="922"/>
      <point x="1111" y="1024" type="qcurve" smooth="yes"/>
      <point x="1117" y="1050"/>
      <point x="1117" y="1071" type="qcurve" smooth="yes"/>
      <point x="1117" y="1206"/>
      <point x="896" y="1206" type="qcurve" smooth="yes"/>
      <point x="684" y="1206" type="line"/>
      <point x="592" y="809" type="line"/>
    </contour>
  </outline>
</glyph>
<glyph name="afii61352" format="2">
  <advance width="2445"/>
  <unicode hex="2116"/>
  <anchor x="1691" y="315" name="b.uni0326"/>
  <anchor x="1887" y="1169" name="t.ringcmb_1"/>
  <anchor x="1795" y="315" name="b.ogonekcmb_2"/>
  <anchor x="2352" y="1169" name="m.horncmb_3"/>
  <outline>
    <contour>
      <point x="1138" y="0" type="line"/>
      <point x="894" y="0" type="line"/>
      <point x="543" y="1066" type="line"/>
      <point x="295" y="0" type="line"/>
      <point x="78" y="0" type="line"/>
      <point x="403" y="1413" type="line"/>
      <point x="644" y="1413" type="line"/>
      <point x="998" y="349" type="line"/>
      <point x="1247" y="1413" type="line"/>
      <point x="1463" y="1413" type="line"/>
    </contour>
    <contour>
      <point x="1758" y="321" type="qcurve" smooth="yes"/>
      <point x="1649" y="321"/>
      <point x="1499" y="409"/>
      <point x="1420" y="560"/>
      <point x="1420" y="654" type="qcurve" smooth="yes"/>
      <point x="1420" y="731"/>
      <point x="1475" y="899"/>
      <point x="1533" y="976" type="qcurve" smooth="yes"/>
      <point x="1603" y="1067"/>
      <point x="1809" y="1181"/>
      <point x="1934" y="1181" type="qcurve" smooth="yes"/>
      <point x="2043" y="1181"/>
      <point x="2193" y="1093"/>
      <point x="2272" y="942"/>
      <point x="2272" y="848" type="qcurve" smooth="yes"/>
      <point x="2272" y="770"/>
      <point x="2216" y="601"/>
      <point x="2160" y="526" type="qcurve"/>
      <point x="2089" y="435"/>
      <point x="1883" y="321"/>
    </contour>
    <contour>
      <point x="1773" y="476" type="qcurve" smooth="yes"/>
      <point x="1892" y="476"/>
      <point x="1971" y="559" type="qcurve"/>
      <point x="2026" y="619"/>
      <point x="2089" y="781"/>
      <point x="2089" y="856" type="qcurve" smooth="yes"/>
      <point x="2089" y="930"/>
      <point x="2010" y="1025"/>
      <point x="1919" y="1025" type="qcurve" smooth="yes"/>
      <point x="1838" y="1025"/>
      <point x="1714" y="947"/>
      <point x="1633" y="815"/>
      <point x="1615" y="734" type="qcurve" smooth="yes"/>
      <point x="1604" y="685"/>
      <point x="1604" y="645" type="qcurve" smooth="yes"/>
      <point x="1604" y="571"/>
      <point x="1683" y="476"/>
    </contour>
    <contour>
      <point x="2234" y="0" type="line"/>
      <point x="1446" y="0" type="line"/>
      <point x="1446" y="166" type="line"/>
      <point x="2234" y="166" type="line"/>
    </contour>
  </outline>
</glyph>
<glyph name="Ohm" format="2">
  <advance width="1677"/>
  <unicode hex="2126"/>
  <outline>
    <contour>
      <point x="1404" y="0" type="line"/>
      <point x="846" y="0" type="line"/>
      <point x="880" y="174" type="line"/>
      <point x="1062" y="212"/>
      <point x="1327" y="519"/>
      <point x="1381" y="743" type="qcurve" smooth="yes"/>
      <point x="1395" y="802"/>
      <point x="1395" y="870" type="qcurve" smooth="yes"/>
      <point x="1395" y="989"/>
      <point x="1349" y="1073" type="qcurve"/>
      <point x="1287" y="1147"/>
      <point x="1108" y="1224"/>
      <point x="1018" y="1224" type="qcurve" smooth="yes"/>
      <point x="910" y="1224"/>
      <point x="687" y="1124"/>
      <point x="602" y="1043" type="qcurve"/>
      <point x="492" y="958"/>
      <point x="378" y="667"/>
      <point x="378" y="534" type="qcurve" smooth="yes"/>
      <point x="378" y="398"/>
      <point x="504" y="202"/>
      <point x="632" y="169" type="qcurve"/>
      <point x="599" y="0" type="line"/>
      <point x="41" y="0" type="line"/>
      <point x="83" y="181" type="line"/>
      <point x="384" y="186" type="line"/>
      <point x="200" y="352"/>
      <point x="200" y="604" type="qcurve" smooth="yes"/>
      <point x="200" y="789"/>
      <point x="319" y="988" type="qcurve" smooth="yes"/>
      <point x="393" y="1113"/>
      <point x="492" y="1204" type="qcurve"/>
      <point x="615" y="1300"/>
      <point x="903" y="1407"/>
      <point x="1035" y="1407" type="qcurve" smooth="yes"/>
      <point x="1177" y="1407"/>
      <point x="1416" y="1278"/>
      <point x="1484" y="1174" type="qcurve"/>
      <point x="1531" y="1116"/>
      <point x="1580" y="953"/>
      <point x="1580" y="861" type="qcurve" smooth="yes"/>
      <point x="1580" y="622"/>
      <point x="1421" y="403" type="qcurve" smooth="yes"/>
      <point x="1317" y="260"/>
      <point x="1172" y="170" type="qcurve"/>
      <point x="1444" y="176" type="line"/>
    </contour>
  </outline>
</glyph>
<glyph name="product" format="2">
  <advance width="1344"/>
  <unicode hex="220F"/>
  <outline>
    <contour>
      <point x="983" y="0" type="line"/>
      <point x="800" y="0" type="line"/>
      <point x="1083" y="1230" type="line"/>
      <point x="599" y="1230" type="line"/>
      <point x="315" y="0" type="line"/>
      <point x="132" y="0" type="line"/>
      <point x="416" y="1230" type="line"/>
      <point x="334" y="1230" type="line"/>
      <point x="376" y="1413" type="line"/>
      <point x="1390" y="1413" type="line"/>
      <point x="1348" y="1230" type="line"/>
      <point x="1266" y="1230" type="line"/>
    </contour>
  </outline>
</glyph>
<glyph name="approxequal" format="2">
  <advance width="1168"/>
  <unicode hex="2248"/>
  <outline>
    <contour>
      <point x="741" y="735" type="qcurve" smooth="yes"/>
      <point x="671" y="735"/>
      <point x="574" y="775"/>
      <point x="517" y="812" type="qcurve" smooth="yes"/>
      <point x="481" y="836"/>
      <point x="433" y="859"/>
      <point x="407" y="859" type="qcurve" smooth="yes"/>
      <point x="364" y="859"/>
      <point x="337" y="814"/>
      <point x="337" y="769" type="qcurve" smooth="yes"/>
      <point x="337" y="761" type="line"/>
      <point x="189" y="761" type="line"/>
      <point x="189" y="881"/>
      <point x="302" y="1007"/>
      <point x="405" y="1007" type="qcurve" smooth="yes"/>
      <point x="488" y="1007"/>
      <point x="595" y="965"/>
      <point x="650" y="928" type="qcurve" smooth="yes"/>
      <point x="683" y="906"/>
      <point x="723" y="886"/>
      <point x="747" y="886" type="qcurve" smooth="yes"/>
      <point x="794" y="886"/>
      <point x="824" y="940"/>
      <point x="824" y="1001" type="qcurve"/>
      <point x="980" y="1001" type="line"/>
      <point x="980" y="871"/>
      <point x="860" y="735"/>
    </contour>
    <contour>
      <point x="741" y="388" type="qcurve" smooth="yes"/>
      <point x="672" y="388"/>
      <point x="574" y="428"/>
      <point x="517" y="465" type="qcurve" smooth="yes"/>
      <point x="478" y="491"/>
      <point x="433" y="512"/>
      <point x="407" y="512" type="qcurve" smooth="yes"/>
      <point x="364" y="512"/>
      <point x="337" y="467"/>
      <point x="337" y="422" type="qcurve" smooth="yes"/>
      <point x="337" y="414" type="line"/>
      <point x="189" y="414" type="line"/>
      <point x="189" y="533"/>
      <point x="302" y="660"/>
      <point x="405" y="660" type="qcurve" smooth="yes"/>
      <point x="488" y="660"/>
      <point x="595" y="618"/>
      <point x="650" y="581" type="qcurve"/>
      <point x="685" y="559"/>
      <point x="725" y="540"/>
      <point x="747" y="540" type="qcurve" smooth="yes"/>
      <point x="794" y="540"/>
      <point x="824" y="593"/>
      <point x="824" y="654" type="qcurve"/>
      <point x="980" y="654" type="line"/>
      <point x="980" y="524"/>
      <point x="860" y="388"/>
    </contour>
  </outline>
</glyph>
<glyph name="lozenge" format="2">
  <advance width="1110"/>
  <unicode hex="25CA"/>
  <outline>
    <contour>
      <point x="538" y="0" type="line"/>
      <point x="347" y="0" type="line"/>
      <point x="129" y="717" type="line"/>
      <point x="672" y="1434" type="line"/>
      <point x="864" y="1434" type="line"/>
      <point x="1079" y="717" type="line"/>
    </contour>
    <contour>
      <point x="482" y="203" type="line"/>
      <point x="862" y="717" type="line"/>
      <point x="728" y="1230" type="line"/>
      <point x="346" y="717" type="line"/>
    </contour>
  </outline>
</glyph>
<glyph name="apple" format="2">
  <advance width="1782"/>
  <unicode hex="F8FF"/>
  <outline>
    <contour>
      <point x="940" y="-61" type="qcurve" smooth="yes"/>
      <point x="793" y="-61"/>
      <point x="537" y="38"/>
      <point x="337" y="211"/>
      <point x="270" y="325" type="qcurve" smooth="yes"/>
      <point x="166" y="502"/>
      <point x="166" y="713" type="qcurve" smooth="yes"/>
      <point x="166" y="860"/>
      <point x="265" y="1116"/>
      <point x="438" y="1316"/>
      <point x="552" y="1383" type="qcurve" smooth="yes"/>
      <point x="729" y="1487"/>
      <point x="940" y="1487" type="qcurve" smooth="yes"/>
      <point x="1087" y="1487"/>
      <point x="1343" y="1388"/>
      <point x="1543" y="1215"/>
      <point x="1610" y="1102" type="qcurve" smooth="yes"/>
      <point x="1714" y="924"/>
      <point x="1714" y="713" type="qcurve" smooth="yes"/>
      <point x="1714" y="566"/>
      <point x="1615" y="310"/>
      <point x="1442" y="110"/>
      <point x="1329" y="43" type="qcurve" smooth="yes"/>
      <point x="1151" y="-61"/>
    </contour>
    <contour>
      <point x="940" y="10" type="qcurve" smooth="yes"/>
      <point x="1073" y="10"/>
      <point x="1305" y="100"/>
      <point x="1488" y="257"/>
      <point x="1548" y="361" type="qcurve" smooth="yes"/>
      <point x="1642" y="522"/>
      <point x="1642" y="713" type="qcurve" smooth="yes"/>
      <point x="1642" y="846"/>
      <point x="1553" y="1078"/>
      <point x="1396" y="1261"/>
      <point x="1293" y="1321" type="qcurve" smooth="yes"/>
      <point x="1131" y="1415"/>
      <point x="940" y="1415" type="qcurve" smooth="yes"/>
      <point x="807" y="1415"/>
      <point x="575" y="1326"/>
      <point x="392" y="1169"/>
      <point x="332" y="1066" type="qcurve" smooth="yes"/>
      <point x="238" y="904"/>
      <point x="238" y="713" type="qcurve" smooth="yes"/>
      <point x="238" y="580"/>
      <point x="327" y="348"/>
      <point x="484" y="165"/>
      <point x="588" y="105" type="qcurve"/>
      <point x="749" y="10"/>
    </contour>
    <contour>
      <point x="537" y="410" type="qcurve" smooth="yes"/>
      <point x="522" y="410"/>
      <point x="502" y="429"/>
      <point x="502" y="444" type="qcurve" smooth="yes"/>
      <point x="502" y="981" type="line" smooth="yes"/>
      <point x="502" y="996"/>
      <point x="523" y="1018"/>
      <point x="537" y="1018" type="qcurve" smooth="yes"/>
      <point x="552" y="1018"/>
      <point x="573" y="996"/>
      <point x="573" y="981" type="qcurve" smooth="yes"/>
      <point x="573" y="444" type="line" smooth="yes"/>
      <point x="573" y="429"/>
      <point x="552" y="410"/>
    </contour>
    <contour>
      <point x="940" y="410" type="qcurve"/>
      <point x="925" y="410"/>
      <point x="905" y="429"/>
      <point x="905" y="444" type="qcurve" smooth="yes"/>
      <point x="905" y="981" type="line" smooth="yes"/>
      <point x="905" y="996"/>
      <point x="925" y="1018"/>
      <point x="940" y="1018" type="qcurve" smooth="yes"/>
      <point x="955" y="1018"/>
      <point x="975" y="996"/>
      <point x="975" y="981" type="qcurve" smooth="yes"/>
      <point x="975" y="444" type="line" smooth="yes"/>
      <point x="975" y="415"/>
    </contour>
    <contour>
      <point x="1341" y="410" type="qcurve" smooth="yes"/>
      <point x="1327" y="410"/>
      <point x="1319" y="420" type="qcurve"/>
      <point x="1049" y="688" type="line"/>
      <point x="1040" y="698"/>
      <point x="1040" y="713" type="qcurve" smooth="yes"/>
      <point x="1040" y="729"/>
      <point x="1049" y="737" type="qcurve" smooth="yes"/>
      <point x="1319" y="1006" type="line"/>
      <point x="1328" y="1018"/>
      <point x="1341" y="1018" type="qcurve" smooth="yes"/>
      <point x="1355" y="1018"/>
      <point x="1378" y="995"/>
      <point x="1378" y="981" type="qcurve" smooth="yes"/>
      <point x="1378" y="967"/>
      <point x="1368" y="956" type="qcurve"/>
      <point x="1124" y="713" type="line"/>
      <point x="1368" y="469" type="line" smooth="yes"/>
      <point x="1378" y="459"/>
      <point x="1378" y="444" type="qcurve" smooth="yes"/>
      <point x="1378" y="431"/>
      <point x="1355" y="410"/>
    </contour>
    <contour>
      <point x="805" y="678" type="qcurve" smooth="yes"/>
      <point x="672" y="678" type="line" smooth="yes"/>
      <point x="640" y="678"/>
      <point x="637" y="713" type="qcurve"/>
      <point x="637" y="728"/>
      <point x="656" y="748"/>
      <point x="672" y="748" type="qcurve" smooth="yes"/>
      <point x="805" y="748" type="line" smooth="yes"/>
      <point x="820" y="748"/>
      <point x="842" y="728"/>
      <point x="842" y="713" type="qcurve" smooth="yes"/>
      <point x="842" y="698"/>
      <point x="820" y="678"/>
    </contour>
  </outline>
</glyph>
<glyph name=".notdef" format="2">
  <advance width="728"/>
  <outline>
    <contour>
      <point x="66" y="0" type="line"/>
      <point x="66" y="1333" type="line"/>
      <point x="596" y="1333" type="line"/>
      <point x="596" y="0" type="line"/>
    </contour>
    <contour>
      <point x="132" y="66" type="line"/>
      <point x="530" y="66" type="line"/>
      <point x="530" y="1267" type="line"/>
      <point x="132" y="1267" type="line"/>
    </contour>
  </outline>
</glyph>
<glyph name="f_f" format="2">
  <advance width="1264"/>
  <outline>
    <contour>
      <point x="467" y="820" type="line"/>
      <point x="279" y="0" type="line"/>
      <point x="65" y="0" type="line"/>
      <point x="253" y="820" type="line"/>
      <point x="98" y="820" type="line"/>
      <point x="139" y="999" type="line"/>
      <point x="296" y="999" type="line"/>
      <point x="322" y="1108" type="line" smooth="yes"/>
      <point x="349" y="1221"/>
      <point x="486" y="1366"/>
      <point x="675" y="1434"/>
      <point x="779" y="1434" type="qcurve" smooth="yes"/>
      <point x="872" y="1434"/>
      <point x="943" y="1405" type="qcurve" smooth="yes"/>
      <point x="1001" y="1381"/>
      <point x="1042" y="1347" type="qcurve"/>
      <point x="1052" y="1357"/>
      <point x="1064" y="1366" type="qcurve" smooth="yes"/>
      <point x="1157" y="1434"/>
      <point x="1294" y="1434" type="qcurve" smooth="yes"/>
      <point x="1379" y="1434"/>
      <point x="1465" y="1390" type="qcurve"/>
      <point x="1364" y="1228" type="line"/>
      <point x="1323" y="1251"/>
      <point x="1278" y="1251" type="qcurve" smooth="yes"/>
      <point x="1234" y="1251"/>
      <point x="1164" y="1193"/>
      <point x="1150" y="1135" type="qcurve" smooth="yes"/>
      <point x="1118" y="999" type="line"/>
      <point x="1368" y="999" type="line"/>
      <point x="1327" y="820" type="line"/>
      <point x="1077" y="820" type="line"/>
      <point x="888" y="0" type="line"/>
      <point x="669" y="0" type="line"/>
      <point x="857" y="820" type="line"/>
    </contour>
    <contour>
      <point x="894" y="997" type="line"/>
      <point x="900" y="997" type="line"/>
      <point x="937" y="1158" type="line" smooth="yes"/>
      <point x="939" y="1168"/>
      <point x="942" y="1177" type="qcurve"/>
      <point x="939" y="1180" type="line" smooth="yes"/>
      <point x="880" y="1242"/>
      <point x="769" y="1242" type="qcurve" smooth="yes"/>
      <point x="667" y="1242"/>
      <point x="542" y="1146"/>
      <point x="526" y="1075" type="qcurve" smooth="yes"/>
      <point x="508" y="999" type="line"/>
    </contour>
  </outline>
</glyph>
